<svg id="Layer_1" xmlns="http://www.w3.org/2000/svg" viewBox="0 0 189.6 189.6"><path d="M189.6 189.6H0V0h189.6v189.6zM5.3 184.3h179V5.3H5.3v179z"/><path d="M37.7 76.3H43v23.2h12.1v4H37.7V76.3zm30.5 24.1l6.3-24.1h7.8l6.3 24.1v3h-4.7L82 95.6h-7.7l-1.9 7.9h-4.2v-3.1zm7-8.8H81l-2.5-10.7h-.7l-2.6 10.7zm26.6-15.3h6.1l7.3 18.4h.7V76.3h5v27.1h-6.1L107.4 85h-.7v18.4h-5V76.3zm33.6 0h9.6c1.3 0 2.4.2 3.4.5s1.9.7 2.6 1.2c.7.5 1.4 1.1 1.9 1.7.5.6.9 1.3 1.2 1.9V98c-.3.6-.7 1.3-1.2 1.9-.5.6-1.1 1.2-1.9 1.7-.8.5-1.6.9-2.6 1.2-1 .3-2.1.5-3.4.5h-9.6v-27zm8.6 23.2c1.2 0 2.3-.2 3.1-.7.8-.5 1.4-1.1 1.7-1.9v-14c-.3-.7-.9-1.4-1.7-1.9-.8-.5-1.8-.7-3.1-.7h-3.3v19.2h3.3zM35.3 122.9h6.8l3.2 10.9h.5l3-10.9h6.7V150h-5v-19.5H50l-3.3 10.9h-2.6l-3.3-10.9h-.5V150h-4.9v-27.1zM68.2 147l6.3-24.1h7.8l6.3 24.1v3h-4.7l-1.9-7.9h-7.7l-1.9 7.9h-4.2v-3zm7-8.9H81l-2.5-10.7h-.7l-2.6 10.7zm27-15.2H113c1.7 0 3.3.4 4.7 1.2 1.4.8 2.5 1.9 3.3 3.4v7.6c-.5 1-1.2 1.8-2.1 2.5-.8.7-1.8 1.2-2.9 1.6l5.2 7.9v3h-4.1l-6.3-10.4h-3.3V150h-5.3v-27.1zm9.7 12.9c1 0 1.8-.2 2.5-.6s1.2-.9 1.6-1.6V129c-.4-.7-.9-1.3-1.7-1.6-.7-.4-1.5-.6-2.4-.6h-4.3v9h4.3zm23.6-12.9h5.3v10.5h.6l8.9-10.5h3.8v3l-7.8 8.8 8.1 12.3v3h-4.1l-7.4-11.5-2 2.3v9.2h-5.3v-27.1zM37.7 43.2c.2-.4.4-.8.7-1.2.3-.4.7-.8 1.2-1.2.5-.4 1.1-.6 1.8-.9.7-.2 1.5-.3 2.4-.3.9 0 1.7.1 2.4.3.7.2 1.3.5 1.8.8.5.3.9.7 1.2 1.1.3.4.6.8.7 1.1v3.3h-3.1v-2.4c-.2-.5-.5-.9-1-1.2-.5-.3-1.1-.5-1.9-.5-.8 0-1.4.2-1.9.5s-.8.8-1 1.2v8.8c.2.5.5.9 1 1.2.5.3 1.1.5 1.9.5.8 0 1.4-.2 1.9-.5s.8-.8 1-1.2V50h3.1v3.5c-.2.3-.4.7-.7 1.1-.3.4-.7.8-1.2 1.1-.5.3-1.1.6-1.8.8-.7.2-1.5.3-2.4.3-.9 0-1.7-.1-2.4-.3-.7-.2-1.3-.5-1.8-.9s-.9-.7-1.2-1.2c-.3-.4-.6-.8-.7-1.2v-10zM55.3 40h3.3v6.8h4.9V40h3.3v16.6h-3.3v-7.4h-4.9v7.4h-3.3V40zm18.2 0H84v2.4h-7.2v4.4h6.7v2.4h-6.7V54h7.4v2.4H73.5V40zM91 40h3.3v14.2h7.4v2.4H91V40zm16.2 11.3h3.1v1.6c.2.3.5.7 1 1 .5.3 1.1.5 1.8.5.8 0 1.4-.2 1.8-.5.5-.3.8-.7 1-1V51c-.2-.3-.4-.6-.7-.8-.3-.2-.8-.4-1.6-.6l-1.4-.3c-.9-.2-1.6-.4-2.2-.7-.6-.2-1.1-.5-1.4-.7-.4-.3-.7-.5-.9-.8-.2-.3-.4-.5-.6-.8v-3.6c.2-.3.4-.6.7-.9.3-.4.7-.7 1.2-1 .5-.3 1-.6 1.7-.8.7-.2 1.5-.3 2.4-.3.9 0 1.7.1 2.4.3.7.2 1.2.5 1.7.8.5.3.9.7 1.2 1 .3.4.5.7.7.9V45H116v-1.4c-.2-.3-.5-.7-1-1-.5-.3-1.1-.5-1.8-.5-.4 0-.7 0-1 .1-.3.1-.6.2-.8.4-.2.1-.4.3-.6.5-.2.2-.3.3-.4.5v1.5c.2.3.4.6.7.8.3.2.9.4 1.6.6l1.4.3c.9.2 1.6.4 2.1.7.6.2 1 .5 1.4.7.4.3.7.5.9.8.2.3.4.5.5.8v4c-.1.3-.4.6-.7.9-.3.4-.7.7-1.2 1-.5.3-1 .6-1.7.8-.7.2-1.5.3-2.4.3-.9 0-1.7-.1-2.4-.3-.7-.2-1.2-.5-1.7-.8-.5-.3-.9-.7-1.2-1s-.5-.7-.7-1v-2.4zM125.5 40H136v2.4h-7.2v4.4h6.7v2.4h-6.7V54h7.4v2.4h-10.6V40zm16 14.7l3.8-14.8h4.8l3.9 14.8v1.9h-2.9l-1.1-4.8h-4.7l-1.2 4.8h-2.6v-1.9zm4.4-5.4h3.6l-1.5-6.5h-.4l-1.7 6.5z"/></svg>