<?xml version="1.0" standalone="no"?>
<!DOCTYPE svg PUBLIC "-//W3C//DTD SVG 1.1//EN" "http://www.w3.org/Graphics/SVG/1.1/DTD/svg11.dtd" >
<svg xmlns="http://www.w3.org/2000/svg">
<metadata></metadata>
<defs>
<font id="atlas_typewritermedium" horiz-adv-x="1310" >
<font-face units-per-em="2048" ascent="1673" descent="-375" />
<missing-glyph horiz-adv-x="500" />
<glyph horiz-adv-x="0" />
<glyph horiz-adv-x="682" />
<glyph horiz-adv-x="0" />
<glyph horiz-adv-x="0" />
<glyph unicode="&#xd;" horiz-adv-x="1024" />
<glyph unicode=" " />
<glyph unicode="!" d="M487 0v336h336v-336h-336zM498 1614h315l-47 -1094h-223z" />
<glyph unicode="&#x22;" d="M266 1567h326l-66 -598h-192zM707 1567h325l-65 -598h-193z" />
<glyph unicode="#" d="M98 594v168h238l43 295h-219v168h243l50 340h170l-50 -340h250l49 340h170l-49 -340h217v-168h-241l-43 -295h223v-168h-248l-57 -391h-170l57 391h-250l-57 -391h-170l57 391h-213zM504 762h252l43 295h-250z" />
<glyph unicode="$" d="M82 436h276q13 -101 65 -163t159 -78v462l-82 17q-373 74 -373 428q0 176 124.5 292t330.5 136v166h135v-166q212 -17 327 -125.5t132 -300.5h-277q-26 187 -182 221v-436l100 -21q201 -39 299 -140t98 -279q0 -211 -127.5 -331.5t-369.5 -137.5v-218h-135v218 q-231 13 -354 126.5t-146 329.5zM399 1120q0 -90 42 -135.5t141 -69.5v412q-91 -17 -137 -71.5t-46 -135.5zM717 195h4q215 32 215 215q0 94 -50 146t-169 75v-436z" />
<glyph unicode="%" d="M31 1225q0 172 90 264t227 92q136 0 226 -92t90 -264t-90.5 -266.5t-225.5 -94.5q-139 0 -228 94t-89 267zM57 0l1030 1585h177l-1031 -1585h-176zM225 1225q0 -205 121 -205q58 0 90.5 52t32.5 153t-32.5 153t-90.5 52q-121 0 -121 -205zM649 344q0 172 91 265t227 93 q135 0 225 -93t90 -265q0 -171 -90 -264.5t-225 -93.5q-139 0 -228.5 93t-89.5 265zM844 344q0 -203 121 -203q58 0 90 52t32 151q0 102 -32 154.5t-90 52.5q-121 0 -121 -207z" />
<glyph unicode="&#x26;" d="M51 416q0 143 68.5 243t212.5 191q-97 130 -132.5 205t-35.5 182q0 164 114 269.5t308 105.5q187 0 295 -98t108 -252q0 -58 -14.5 -108.5t-39 -91t-67 -82.5t-88 -76.5t-112.5 -78.5l256 -329q37 132 53 327h240q-15 -312 -132 -532q42 -45 76.5 -57.5t106.5 -12.5v-221 h-84q-89 0 -143.5 20t-108.5 74q-155 -129 -383 -129q-237 0 -367.5 123t-130.5 328zM319 442q0 -132 69.5 -197t191.5 -65q125 0 213 78l-9 10l-329 426l-11 -8q-69 -52 -97 -110t-28 -134zM414 1245q0 -72 28.5 -126.5t100.5 -145.5q109 78 157 138t48 146 q0 77 -43.5 121.5t-116.5 44.5q-80 0 -127 -49.5t-47 -128.5z" />
<glyph unicode="'" d="M502 1567h325l-65 -598h-193z" />
<glyph unicode="(" d="M401 674q0 161 29 300.5t85 253.5t124 205.5t160 180.5h268q-89 -89 -158 -182.5t-127 -209.5t-89 -255t-31 -293q0 -557 405 -940h-268q-91 86 -159.5 177.5t-124.5 206t-85 254.5t-29 302z" />
<glyph unicode=")" d="M244 -266q89 89 158 182.5t127 209.5t89 255t31 293q0 557 -405 940h268q91 -86 159.5 -177.5t124 -206t84.5 -254.5t29 -302q0 -161 -29 -300.5t-84.5 -253.5t-124 -205.5t-159.5 -180.5h-268z" />
<glyph unicode="*" d="M135 1106l76 229l354 -168l4 2l-37 398h244l-41 -400l6 -2l357 170l78 -227l-381 -96l-2 -8l270 -299l-193 -146l-215 338h-6l-213 -338l-194 146l272 296l-2 9z" />
<glyph unicode="+" d="M154 629v209h389v395h223v-395h391v-209h-391v-400h-223v400h-389z" />
<glyph unicode="," d="M432 -248l100 584h342l-231 -584h-211z" />
<glyph unicode="-" d="M309 526v250h692v-250h-692z" />
<glyph unicode="." d="M487 0v336h336v-336h-336z" />
<glyph unicode="/" d="M53 -266l932 1880h221l-930 -1880h-223z" />
<glyph unicode="0" d="M117 752q0 397 134 590.5t404 193.5q275 0 407 -192.5t132 -591.5q0 -397 -132 -591t-407 -194q-538 0 -538 785zM414 750q0 -301 55.5 -431.5t185.5 -130.5q129 0 185.5 134t56.5 428q0 296 -57 431.5t-185 135.5q-129 0 -185 -134.5t-56 -432.5z" />
<glyph unicode="1" d="M180 0v219h375v848h-354v190h104q146 0 217 68q68 62 68 199h248v-1305h364v-219h-1022z" />
<glyph unicode="2" d="M133 0v190l529 506q130 125 183.5 208t53.5 188t-62.5 165t-168.5 60q-116 0 -187 -80t-67 -242l-275 2q-5 243 138.5 393t394.5 150q127 0 226 -35.5t158 -97t89.5 -137t30.5 -160.5q0 -158 -63 -274t-224 -269l-193 -180q-82 -79 -133 -117q-16 -14 -43 -32v-9h670 v-229h-1057z" />
<glyph unicode="3" d="M123 436h268q12 -120 85.5 -183t185.5 -63t187 66t75 176t-67 170t-191 60h-150v217h131q108 0 174 59t66 162q0 99 -61 159t-164 60q-119 0 -183.5 -62.5t-70.5 -183.5h-265q2 73 21 139.5t60.5 127t101 104.5t147.5 70t195 26q225 0 354 -112.5t129 -280.5 q0 -132 -64 -217.5t-190 -136.5v-5q135 -37 214 -127.5t79 -244.5q0 -91 -35.5 -171.5t-101.5 -142t-169 -97.5t-229 -36q-136 0 -239 38t-163.5 105t-92 147.5t-37.5 176.5z" />
<glyph unicode="4" d="M88 344v203l557 971h371v-947h205v-227h-205v-344h-254v344h-674zM350 567h416v725h-12q-12 -28 -19 -49q-35 -78 -65 -127z" />
<glyph unicode="5" d="M119 426h270q12 -119 78.5 -179.5t177.5 -60.5q122 0 198.5 77.5t76.5 230.5q0 144 -71.5 221.5t-191.5 77.5q-159 0 -239 -119h-250l37 844h899v-232h-668l-18 -401h10q109 119 305 119q208 0 336.5 -130t128.5 -370q0 -153 -62 -273t-187.5 -191t-297.5 -71 q-112 0 -201.5 26t-148 68.5t-99 103t-59.5 124t-24 135.5z" />
<glyph unicode="6" d="M121 680q0 437 148.5 648.5t430.5 211.5q217 0 338.5 -105t139.5 -282h-265q-14 80 -67 126t-141 46q-282 0 -299 -506h12q105 156 338 156q66 0 128 -16t121 -53.5t103.5 -92t71 -137.5t26.5 -184q0 -107 -35 -200.5t-101.5 -166t-170.5 -114.5t-233 -42 q-122 0 -218.5 38.5t-171.5 120.5t-115 221.5t-40 330.5zM426 485q0 -143 70 -220t184 -77q113 0 181.5 77t68.5 220q0 139 -67.5 215t-182.5 76q-119 0 -186.5 -75.5t-67.5 -215.5z" />
<glyph unicode="7" d="M121 1284v234h1059v-197l-617 -1321h-293l607 1284h-756z" />
<glyph unicode="8" d="M98 408q0 78 24 142t65.5 107.5t91 71.5t106.5 43v6q-104 34 -172 125.5t-68 220.5q0 86 34.5 161.5t98 132.5t161 89.5t216.5 32.5t216.5 -32.5t161 -89.5t98 -132.5t34.5 -161.5q0 -129 -67 -218.5t-172 -127.5v-6q58 -15 107.5 -43.5t91 -72t65.5 -107t24 -141.5 q0 -195 -150.5 -319t-408.5 -124q-260 0 -408.5 122.5t-148.5 320.5zM381 418q0 -122 77.5 -186t196.5 -64q123 0 201 64t78 186q0 123 -77.5 185.5t-201.5 62.5q-120 0 -197 -62.5t-77 -185.5zM418 1100q0 -112 67.5 -175t169.5 -63t170 63t68 175q0 116 -67.5 175.5 t-170.5 59.5q-104 0 -170.5 -59.5t-66.5 -175.5z" />
<glyph unicode="9" d="M113 1034q0 219 142 362.5t378 143.5q268 0 416.5 -176t148.5 -539q0 -182 -26 -325t-73.5 -242.5t-119 -164.5t-159 -94.5t-195.5 -29.5q-206 0 -336 101t-154 297h262q39 -185 234 -185q287 0 284 535h-10q-45 -74 -128 -116t-191 -42q-93 0 -176 28.5t-150.5 84.5 t-107 149.5t-39.5 212.5zM387 1038q0 -134 71.5 -207t178.5 -73q117 0 188.5 72t71.5 208q0 138 -75.5 211.5t-182.5 73.5q-105 0 -178.5 -72.5t-73.5 -212.5z" />
<glyph unicode=":" d="M487 0v336h336v-336h-336zM487 756v336h336v-336h-336z" />
<glyph unicode=";" d="M399 -248l101 584h342l-232 -584h-211zM506 756v336h336v-336h-336z" />
<glyph unicode="&#x3c;" d="M139 612v140l996 501v-235l-678 -332l678 -334v-239z" />
<glyph unicode="=" d="M154 424v207h1003v-207h-1003zM154 827v207h1003v-207h-1003z" />
<glyph unicode="&#x3e;" d="M174 113v235l678 332l-678 334v239l995 -499v-140z" />
<glyph unicode="?" d="M129 1092q-8 240 137.5 389t397.5 149q129 0 227.5 -34.5t157.5 -94.5t88.5 -135.5t29.5 -163.5q0 -71 -15.5 -129.5t-45.5 -104t-59.5 -77t-71.5 -66.5l-135 -112q-42 -38 -55 -65t-13 -81v-55h-246v100q0 101 21.5 144t111.5 116l103 86q68 56 99.5 108.5t31.5 129.5 q0 96 -60 153.5t-167 57.5q-124 0 -196 -77.5t-71 -237.5h-270zM483 0v336h336v-336h-336z" />
<glyph unicode="@" d="M104 485v174q0 225 56 385q59 174 194 262.5t330 88.5q251 0 386.5 -150.5t135.5 -406.5v-672h-176v129h-10q-69 -154 -258 -154q-147 0 -234.5 103.5t-87.5 318.5q0 202 88 314t242 112q170 0 244 -137h8q0 172 -82 279.5t-252 107.5q-257 0 -344 -223 q-55 -135 -55 -371v-115q0 -103 8 -182.5t26.5 -151.5t51.5 -123t81.5 -88.5t117 -56t157.5 -18.5q130 0 236 37v-160q-125 -41 -256 -41q-318 0 -462.5 178.5t-144.5 560.5zM676 563q0 -126 33 -191t120 -65q75 0 122.5 59t47.5 150v74q0 103 -46 164t-119 61 q-83 0 -120.5 -64.5t-37.5 -187.5z" />
<glyph unicode="A" d="M70 0l387 1567h395l389 -1567h-289l-94 389h-420l-94 -389h-274zM487 604h320l-90 397q-27 125 -41 232q-6 39 -14 106h-27q0 -6 -8 -54.5t-22.5 -129.5t-29.5 -154z" />
<glyph unicode="B" d="M150 0v1567h503q250 0 379 -98.5t129 -294.5q0 -134 -76 -220t-198 -112v-8q152 -25 244 -126.5t92 -252.5q0 -118 -42 -206.5t-119.5 -142.5t-181.5 -80t-235 -26h-495zM434 209h197q149 0 224 61t75 205q0 126 -76.5 184t-232.5 58h-187v-508zM434 911h180 q263 0 263 238q0 104 -64.5 158.5t-183.5 54.5h-195v-451z" />
<glyph unicode="C" d="M98 768q0 406 140 613.5t446 207.5q241 0 381 -139.5t154 -390.5h-283q-14 147 -73.5 226t-180.5 79q-164 0 -227.5 -138.5t-63.5 -449.5q0 -123 8 -212.5t28.5 -162t54 -117t85 -68t121.5 -23.5q122 0 178.5 82t69.5 241h283q-12 -252 -152 -400.5t-383 -148.5 q-311 0 -448.5 197.5t-137.5 603.5z" />
<glyph unicode="D" d="M129 0v1567h379q176 0 306 -42.5t223 -135t139.5 -243t46.5 -360.5q0 -786 -709 -786h-385zM414 227h98q103 0 177 29t127.5 93.5t79.5 172.5t26 262t-26.5 262.5t-79 173.5t-125 94t-171.5 29h-106v-1116z" />
<glyph unicode="E" d="M195 0v1567h958v-228h-674v-442h613v-225h-613v-445h690v-227h-974z" />
<glyph unicode="F" d="M221 0v1567h963v-228h-680v-483h626v-227h-626v-629h-283z" />
<glyph unicode="G" d="M94 743q0 419 145 632.5t447 213.5q120 0 217 -37.5t160 -103t98 -151.5t39 -185h-274q-8 114 -70 186t-176 72q-165 0 -231 -144t-66 -450q0 -309 65 -448.5t228 -139.5q137 0 204.5 92.5t67.5 249.5v72h-295v217h555v-819h-223v164h-14q-45 -91 -130 -144t-208 -53 q-275 0 -407 195.5t-132 580.5z" />
<glyph unicode="H" d="M129 0v1567h285v-668h483v668h285v-1567h-285v672h-483v-672h-285z" />
<glyph unicode="I" d="M184 0v219h330v1129h-330v219h942v-219h-329v-1129h329v-219h-942z" />
<glyph unicode="J" d="M190 14v232q166 -29 322 -29q127 0 198.5 61t71.5 185v883h-497v221h780v-1123q0 -116 -43.5 -206.5t-119.5 -146t-174 -83.5t-212 -28q-132 0 -326 34z" />
<glyph unicode="K" d="M139 0v1567h279v-676l516 676h307l-514 -666l545 -901h-328l-412 686l-114 -147v-539h-279z" />
<glyph unicode="L" d="M213 0v1567h285v-1331h710v-236h-995z" />
<glyph unicode="M" d="M129 0v1567h328l139 -584q17 -78 39 -221q3 -19 8 -57.5t8 -57.5h17q7 72 14 115q17 115 41 221l139 584h320v-1567h-248v1182h-19q-9 -73 -14 -103q-17 -125 -33 -188l-108 -496h-219l-109 494q-17 68 -33 188q-9 53 -12 105h-18v-1182h-240z" />
<glyph unicode="N" d="M129 0v1567h338l381 -934q10 -26 20 -54.5t19.5 -58.5t13.5 -43q3 -14 10 -37t9 -32h16v1159h246v-1567h-338l-381 934q-12 28 -22 56.5t-19.5 59.5t-13.5 42q-4 18 -19 67h-14v-1159h-246z" />
<glyph unicode="O" d="M90 778q0 416 140 613.5t425 197.5q295 0 430.5 -194t135.5 -617q0 -418 -138 -614.5t-428 -196.5q-298 0 -431.5 193.5t-133.5 617.5zM393 778q0 -327 57.5 -458.5t204.5 -131.5q148 0 206.5 131t58.5 459q0 222 -28 351.5t-85 185t-152 55.5q-100 0 -156 -57.5 t-81 -184t-25 -350.5z" />
<glyph unicode="P" d="M170 0v1567h479q570 0 570 -502q0 -266 -155.5 -390t-438.5 -124h-170v-551h-285zM455 778h182q293 0 293 285q0 151 -71.5 215.5t-217.5 64.5h-186v-565z" />
<glyph unicode="Q" d="M90 778q0 419 139 615t428 196q291 0 427.5 -194.5t136.5 -616.5q0 -519 -211 -669v-9q105 -29 169 -95t105 -187l-240 -99q-45 129 -107.5 195t-152.5 66q-13 0 -56.5 -3.5t-70.5 -3.5q-295 0 -431 193t-136 612zM393 778q0 -168 12 -277t43 -181t80.5 -102t126.5 -30 q70 0 117 25.5t81.5 91t50.5 181.5t16 292q0 222 -27 351.5t-84 186t-154 56.5q-100 0 -156 -58t-81 -185t-25 -351z" />
<glyph unicode="R" d="M147 0v1567h496q197 0 328 -64q219 -112 219 -389q0 -96 -27 -174.5t-73 -130t-95.5 -84.5t-105.5 -53v-6l336 -666h-312l-301 616h-182v-616h-283zM430 846h199q272 0 272 254q0 130 -68.5 188t-197.5 58h-205v-500z" />
<glyph unicode="S" d="M86 446h279q11 -118 85 -189t214 -71t211 64t71 168q0 98 -51 151t-178 82l-201 45q-183 40 -281 146t-98 295q0 199 143 326.5t386 127.5q251 0 383.5 -116.5t146.5 -331.5h-276q-8 102 -71.5 167.5t-186.5 65.5q-111 0 -178.5 -60t-67.5 -153q0 -97 46 -145.5 t156 -73.5l207 -47q207 -48 305.5 -153t98.5 -287q0 -232 -148.5 -361t-418.5 -129q-264 0 -413 125.5t-163 353.5z" />
<glyph unicode="T" d="M76 1339v228h1159v-228h-438v-1339h-285v1339h-436z" />
<glyph unicode="U" d="M125 498v1069h283v-1043q0 -167 58.5 -245t192.5 -78t193 79t59 244v1043h273v-1069q0 -268 -142 -399.5t-389 -131.5q-249 0 -388.5 129.5t-139.5 401.5z" />
<glyph unicode="V" d="M51 1567h297l258 -1057q17 -68 33 -164q9 -44 12 -84h23q9 58 14 84q16 96 33 164l256 1057h283l-410 -1567h-387z" />
<glyph unicode="W" d="M61 1567h244l66 -1217h16q3 46 12 99q15 107 33 188l125 575h205l125 -575q18 -81 33 -188q5 -29 14 -99h16l64 1217h235l-96 -1567h-334l-112 539q-23 108 -37 213q-8 49 -15 100h-14q-3 -48 -12 -100q-15 -107 -37 -211l-117 -541h-317z" />
<glyph unicode="X" d="M39 0l455 801l-431 766h310l280 -529h4l285 529h287l-424 -744l463 -823h-312l-313 584h-4l-313 -584h-287z" />
<glyph unicode="Y" d="M43 1567h305l311 -623h9l309 623h291l-471 -897v-670h-283v664z" />
<glyph unicode="Z" d="M109 0v201l763 1138h-729v228h1049v-201l-762 -1137h774v-229h-1095z" />
<glyph unicode="[" d="M406 -266v1880h645v-191h-396v-1499h396v-190h-645z" />
<glyph unicode="\" d="M106 1614h222l929 -1880h-221z" />
<glyph unicode="]" d="M268 -76h396v1499h-396v191h643v-1880h-643v190z" />
<glyph unicode="^" d="M178 872l383 725h193l379 -725h-234l-246 482h-6l-250 -482h-219z" />
<glyph unicode="_" d="M205 -203h901v-182h-901v182z" />
<glyph unicode="`" d="M399 1614h340l115 -367h-217z" />
<glyph unicode="a" d="M145 307q0 187 166 275q83 43 197 60.5t326 25.5v51q0 205 -191 205q-92 0 -137.5 -43.5t-50.5 -112.5h-265q8 157 127 252.5t322 95.5q223 0 338 -96t115 -311v-435q0 -37 14.5 -51t52.5 -14h47v-209h-127q-105 0 -156.5 32.5t-68.5 119.5h-8q-47 -79 -132 -127 t-200 -48q-79 0 -144.5 19t-116.5 57.5t-79.5 103t-28.5 150.5zM420 317q0 -70 42 -106.5t116 -36.5q103 0 179.5 79.5t76.5 223.5v15q-168 -9 -242.5 -19t-112.5 -37q-59 -45 -59 -119z" />
<glyph unicode="b" d="M156 0v1614h274v-684h4q49 82 134.5 134t205.5 52q97 0 176 -31.5t139.5 -96.5t94 -175.5t33.5 -259.5q0 -140 -35.5 -251.5t-99 -182.5t-148.5 -108.5t-186 -37.5q-215 0 -320 160h-10v-133h-262zM428 494q0 -148 65 -238t191 -90q123 0 186.5 97.5t63.5 287.5 q0 183 -59.5 276t-192.5 93q-116 0 -185 -86t-69 -224v-116z" />
<glyph unicode="c" d="M143 545q0 274 142 423.5t395 149.5q209 0 346.5 -102t149.5 -295h-281q-11 91 -64.5 146t-152.5 55q-130 0 -190 -101.5t-60 -269.5q0 -379 248 -379q57 0 101 19t70 51.5t40 68.5t18 76h275q-12 -197 -152.5 -306.5t-351.5 -109.5q-264 0 -398.5 149.5t-134.5 424.5z " />
<glyph unicode="d" d="M92 535q0 140 36 251.5t100.5 183t150.5 109t188 37.5q211 0 305 -151h5v649h276v-1614h-262v150h-6q-108 -179 -332 -179q-211 0 -336 142.5t-125 421.5zM375 543q0 -377 248 -377q121 0 189.5 84t68.5 217v125q0 154 -66.5 241t-179.5 87q-128 0 -194 -95.5t-66 -281.5 z" />
<glyph unicode="e" d="M127 545q0 254 144 413.5t397 159.5q104 0 189.5 -29t144.5 -79.5t99.5 -120.5t59.5 -150.5t19 -171.5v-100h-770q12 -149 77.5 -223t188.5 -74q97 0 145 37t72 100h274q-33 -157 -160.5 -246.5t-336.5 -89.5q-265 0 -404 155t-139 419zM412 657h483v13q-5 113 -63 185.5 t-168 72.5q-114 0 -174 -68.5t-78 -202.5z" />
<glyph unicode="f" d="M137 874v218h363v139q0 87 22.5 155t60.5 112t92.5 72.5t114.5 40t130 11.5q121 0 239 -29v-215q-112 25 -207 25q-86 0 -133 -39.5t-47 -132.5v-139h387v-218h-387v-874h-272v874h-363z" />
<glyph unicode="g" d="M100 561q0 264 131 409.5t340 145.5q120 0 202.5 -51.5t119.5 -122.5h4v150h262v-1022q0 -239 -134.5 -359.5t-393.5 -120.5q-213 0 -343.5 85.5t-150.5 244.5h273q28 -135 227 -135q128 0 190 61.5t62 200.5v152h-6q-45 -78 -127 -127t-193 -49q-211 0 -337 134 t-126 404zM383 565q0 -354 256 -354q111 0 179.5 81.5t68.5 203.5v114q0 146 -66.5 229t-183.5 83q-118 0 -186 -93.5t-68 -263.5z" />
<glyph unicode="h" d="M178 0v1614h277v-692h2q36 82 120.5 138t210.5 56q184 0 269.5 -95t85.5 -294v-727h-277v651q0 50 -1.5 77.5t-8.5 60.5t-22 55q-47 65 -144 65q-119 0 -177 -70.5t-58 -199.5v-639h-277z" />
<glyph unicode="i" d="M160 0v217h379v662h-334v213h606v-875h373v-217h-1024zM502 1249v328h336v-328h-336z" />
<glyph unicode="j" d="M270 -162q121 -22 219 -22q179 0 179 178v883h-398v215h670v-1115q0 -98 -34.5 -173t-95 -120t-136.5 -67.5t-164 -22.5q-122 0 -240 33v211zM639 1251v312h319v-312h-319z" />
<glyph unicode="k" d="M197 0v1614h268v-1022l436 500h305l-397 -443l434 -649h-311l-305 477l-162 -182v-295h-268z" />
<glyph unicode="l" d="M150 0v215h378v1186h-340v213h613v-1399h387v-215h-1038z" />
<glyph unicode="m" d="M100 0v1092h217v-156h9q54 180 229 180q170 0 209 -178h8q48 178 227 178q222 0 222 -276v-840h-240v762q0 71 -18.5 104t-69.5 33q-111 0 -111 -182v-717h-243v762q0 71 -18.5 104t-69.5 33q-111 0 -111 -182v-717h-240z" />
<glyph unicode="n" d="M178 0v1092h262v-183h4q46 92 132 149.5t212 57.5q182 0 268.5 -95t86.5 -294v-727h-277v649q0 50 -1.5 78t-8.5 61.5t-22 55.5q-47 65 -144 65q-119 0 -177 -70.5t-58 -199.5v-639h-277z" />
<glyph unicode="o" d="M117 545q0 271 142 422t396 151q253 0 396 -151t143 -422q0 -268 -145 -422t-396 -154q-253 0 -394.5 154t-141.5 422zM406 545q0 -179 60.5 -279t188.5 -100q130 0 190 101t60 278q0 175 -62 276t-188 101q-128 0 -188.5 -101t-60.5 -276z" />
<glyph unicode="p" d="M156 -385v1477h268v-181h4q45 89 134 147t212 58q95 0 173.5 -31.5t140 -96.5t95.5 -175.5t34 -259.5q0 -275 -128.5 -427.5t-338.5 -152.5q-112 0 -193 43.5t-119 108.5h-8v-510h-274zM428 494q0 -148 66.5 -238t191.5 -90q248 0 248 385q0 180 -59 274.5t-189 94.5 q-116 0 -187 -87.5t-71 -222.5v-116z" />
<glyph unicode="q" d="M92 535q0 279 132 430t345 151q109 0 191.5 -49.5t122.5 -130.5h4v156h266v-1477h-276v532h-5q-44 -73 -124.5 -124.5t-198.5 -51.5q-212 0 -334.5 138.5t-122.5 425.5zM375 543q0 -377 248 -377q121 0 189.5 84t68.5 217v125q0 153 -67 240.5t-179 87.5 q-125 0 -192.5 -96t-67.5 -281z" />
<glyph unicode="r" d="M276 0v1092h265v-256h4q58 148 159 212t254 64q128 0 201 -39v-237q-97 38 -229 38q-184 0 -281.5 -108t-97.5 -301v-465h-275z" />
<glyph unicode="s" d="M166 317h258q13 -77 64 -114t167 -37q226 0 226 131q0 54 -36 79.5t-132 43.5l-193 31q-315 46 -315 321q0 152 122.5 249t334.5 97q217 0 331 -90t127 -235h-260q-15 129 -201 129q-93 0 -144.5 -32.5t-51.5 -88.5t35.5 -83.5t124.5 -41.5l186 -31q178 -28 255 -102.5 t77 -202.5q0 -180 -128 -274.5t-358 -94.5q-233 0 -352.5 85.5t-136.5 260.5z" />
<glyph unicode="t" d="M109 874v209h243q78 0 106.5 30t28.5 110v207h250v-338h404v-218h-402v-501q0 -97 42.5 -135.5t142.5 -38.5q98 0 219 34v-213q-151 -43 -289 -43q-188 0 -287.5 88.5t-99.5 260.5v548h-358z" />
<glyph unicode="u" d="M170 352v740h274v-650q0 -141 35 -194q44 -66 142 -66q237 0 237 316v594h277v-1092h-267v180h-4q-45 -92 -129 -147.5t-207 -55.5q-181 0 -269.5 92t-88.5 283z" />
<glyph unicode="v" d="M100 1092h281l209 -594q13 -36 29 -93.5t20 -70.5q9 -38 18 -72h13q9 34 18 72q4 13 20 70.5t29 93.5l207 594h264l-411 -1092h-287z" />
<glyph unicode="w" d="M66 1092h233l76 -689q5 -37 10 -127q1 -11 2 -33t2 -32h14q0 7 5 65q3 53 14 130l98 686h275l98 -691q3 -20 7 -62.5t7 -62.5q1 -12 2 -33t2 -32h15q1 10 2 32t2 33q5 90 10 127l76 689h227l-162 -1092h-307l-88 633q-4 27 -10 77t-8 66q-1 12 -6 70h-15q-5 -57 -6 -70 q-3 -23 -8.5 -73t-7.5 -70l-88 -633h-308z" />
<glyph unicode="x" d="M98 0l396 567l-367 525h303l227 -344h7l219 344h293l-367 -521l401 -571h-305l-260 385h-4l-252 -385h-291z" />
<glyph unicode="y" d="M111 1092h284l221 -617q17 -43 43 -143q11 -43 15 -60h6q9 43 14 60q22 86 45 143l213 617h271l-430 -1139q-52 -135 -105 -209.5t-137.5 -113t-214.5 -38.5q-123 0 -174 17v217q62 -12 131 -12q97 0 141.5 29t81.5 116l14 37z" />
<glyph unicode="z" d="M174 0v203l617 676h-596v213h915v-205l-618 -674h634v-213h-952z" />
<glyph unicode="{" d="M270 557v229h129q70 0 97.5 31t27.5 101v317q0 208 108 293.5t359 85.5h53v-193q-89 0 -141.5 -10.5t-82.5 -39.5t-40 -70t-10 -111v-270q0 -105 -42.5 -164.5t-147.5 -77.5v-8q105 -19 147.5 -80t42.5 -170v-264q0 -70 9 -110t38.5 -69.5t83 -40t143.5 -10.5v-192h-53 q-249 0 -358 85.5t-109 286.5v318q0 71 -27.5 102t-97.5 31h-129z" />
<glyph unicode="|" d="M555 -266v1880h201v-1880h-201z" />
<glyph unicode="}" d="M266 -74q71 0 118.5 7.5t79 23t48 44.5t23 65t6.5 92v270q0 105 42.5 164.5t147.5 77.5v8q-105 19 -147.5 80t-42.5 170v264q0 70 -9.5 110t-39 69t-83 39.5t-143.5 10.5v193h53q249 0 358 -86t109 -287v-317q0 -71 27.5 -102t97.5 -31h129v-230h-129q-70 0 -97.5 -30.5 t-27.5 -100.5v-317q0 -208 -108 -293.5t-359 -85.5h-53v192z" />
<glyph unicode="~" d="M209 551q0 141 66.5 231t181.5 90q62 0 138.5 -26.5t141 -53t97.5 -26.5q84 0 92 111h172q0 -142 -62 -231t-180 -89q-60 0 -136 26.5t-140 52.5t-97 26q-88 0 -96 -111h-178z" />
<glyph unicode="&#xa0;" />
<glyph unicode="&#xa1;" d="M496 903v336h335v-336h-335zM506 -375l47 1094h223l45 -1094h-315z" />
<glyph unicode="&#xa2;" d="M150 545q0 246 119.5 395t334.5 174v186h133v-184q188 -13 304.5 -112.5t123.5 -282.5h-272q-14 174 -156 205v-754q153 28 166 215h268q-12 -187 -129 -293.5t-305 -118.5v-213h-133v215q-219 24 -336.5 167.5t-117.5 400.5zM420 549q0 -328 184 -375v748 q-95 -29 -139.5 -128t-44.5 -245z" />
<glyph unicode="&#xa3;" d="M125 629v180h149l-22 68q-62 203 -18 350t170 230t301 83q229 0 355 -122t126 -335h-264q0 108 -48.5 177t-160.5 69q-62 0 -108 -22t-76 -71t-30.5 -127.5t27.5 -190.5l31 -109h414v-180h-371q19 -121 -10.5 -212.5t-120.5 -168.5l-20 -19v-4h737v-225h-1059v172l61 49 q58 46 92 83t54.5 84.5t19 105t-21.5 135.5h-207z" />
<glyph unicode="&#xa4;" d="M78 612v166h211q12 65 43 123l-156 156l117 117l156 -158q58 34 122 49v223h166v-223q57 -12 123 -51l164 166l113 -113l-166 -168q32 -49 45 -121h217v-166h-217q-12 -62 -45 -118l159 -158l-116 -117l-160 160q-56 -33 -117 -45v-230h-166v228q-59 10 -122 47 l-162 -162l-113 113l162 159q-35 60 -47 123h-211zM444 698q0 -99 57.5 -162t149.5 -63q93 0 151 63t58 162q0 98 -58 162t-151 64q-91 0 -149 -64t-58 -162z" />
<glyph unicode="&#xa5;" d="M68 1518h303l293 -531h4l297 531h280l-436 -730h367v-151h-385v-174h389v-152h-389v-311h-269v311h-387v152h387v174h-391v151h367z" />
<glyph unicode="&#xa6;" d="M555 -266v868h201v-868h-201zM555 788v826h201v-826h-201z" />
<glyph unicode="&#xa7;" d="M123 705q0 202 209 284v2q-88 77 -88 230q0 154 118 249t308 95q205 0 313.5 -94t116.5 -254h-250q-14 159 -182 159q-83 0 -126.5 -37.5t-43.5 -97.5q0 -63 32.5 -95.5t112.5 -66.5l272 -118q157 -67 219 -146.5t62 -196.5q0 -202 -205 -280v-6q88 -82 88 -209 q0 -172 -117 -265.5t-323 -93.5q-221 0 -335 97t-122 268h250q11 -88 60 -131t149 -43q182 0 182 133q0 55 -30 87.5t-105 64.5l-280 120q-72 31 -120.5 60.5t-88 69.5t-58 93t-18.5 122zM371 748q0 -62 35 -99t110 -71l225 -101q64 -29 84 -41q121 27 121 146 q0 56 -33.5 95t-117.5 75l-220 94q-34 14 -77 39q-61 -10 -94 -48t-33 -89z" />
<glyph unicode="&#xa8;" d="M256 1251v308h317v-308h-317zM725 1251v308h315v-308h-315z" />
<glyph unicode="&#xa9;" d="M92 702v156q0 127 19 235t61.5 201t107 158t160 102t215.5 37t215.5 -37t160 -102.5t107.5 -158.5t62 -201t19 -234v-156q0 -130 -19 -239t-62 -202t-108 -157.5t-160 -100.5t-215 -36t-215 36t-159.5 100t-107.5 156.5t-62 202t-19 240.5zM242 709q0 -99 9 -180.5 t36 -166t71 -142t120 -94t177 -36.5q102 0 178 36.5t120 93.5t71 142t36 166t9 181v143q0 616 -414 616q-413 0 -413 -616v-143zM377 782q0 230 71.5 337.5t221.5 107.5q253 0 262 -316h-174q-2 74 -21 113t-71 39q-64 0 -87.5 -65.5t-23.5 -213.5q0 -153 21.5 -215.5 t89.5 -62.5q24 0 41.5 10.5t27 23.5t15.5 39t8 41.5t4 47.5h172q-12 -330 -266 -330q-158 0 -224.5 103.5t-66.5 340.5z" />
<glyph unicode="&#xaa;" d="M229 895q0 148 136 219q63 34 154.5 45.5t271.5 18.5v36q0 79 -38 119.5t-108 40.5q-67 0 -105.5 -30t-43.5 -84h-232q11 129 111.5 204.5t265.5 75.5q204 0 291.5 -83t87.5 -263v-309q0 -35 11 -47.5t42 -12.5h31v-180h-90q-95 0 -144 23.5t-67 91.5h-8 q-43 -58 -114 -92.5t-161 -34.5q-140 0 -215.5 69.5t-75.5 192.5zM475 911q0 -54 30.5 -82t86.5 -28q80 0 139.5 56t59.5 153v28q-13 -1 -43.5 -2t-42.5 -1.5t-36.5 -2t-35.5 -2.5t-29.5 -3.5t-28.5 -5t-22.5 -6t-21.5 -8t-17 -10.5q-39 -26 -39 -86z" />
<glyph unicode="&#xab;" d="M188 532l236 418h231l-219 -422l226 -411h-236zM637 532l237 418h232l-219 -422l223 -411h-233z" />
<glyph unicode="&#xac;" d="M154 627v211h1003v-609h-225v398h-778z" />
<glyph unicode="&#xad;" d="M309 526v250h692v-250h-692z" />
<glyph unicode="&#xae;" d="M152 1079q0 142 64.5 258.5t179.5 184t257 67.5q217 0 361.5 -147t144.5 -363q0 -215 -144.5 -360.5t-361.5 -145.5q-142 0 -257 66.5t-179.5 182.5t-64.5 257zM266 1079q0 -177 109.5 -293t277.5 -116q170 0 282 116t112 293t-112 295.5t-282 118.5q-168 0 -277.5 -118 t-109.5 -296zM461 829v525h227q77 0 131.5 -39.5t54.5 -118.5q0 -60 -31 -95.5t-75 -47.5l115 -224h-142l-100 201h-53v-201h-127zM588 1124h76q79 0 79 74q0 64 -77 64h-78v-138z" />
<glyph unicode="&#xaf;" d="M313 1292v205h682v-205h-682z" />
<glyph unicode="&#xb0;" d="M231 1128q0 181 120 302.5t302 121.5q183 0 303.5 -121.5t120.5 -302.5q0 -182 -120 -302.5t-304 -120.5q-183 0 -302.5 120.5t-119.5 302.5zM428 1128q0 -105 63 -172t162 -67q102 0 164 67t62 172q0 106 -62.5 174t-163.5 68q-99 0 -162 -68.5t-63 -173.5z" />
<glyph unicode="&#xb1;" d="M154 0v209h1003v-209h-1003zM154 741v209h389v361h223v-361h391v-209h-391v-364h-223v364h-389z" />
<glyph unicode="&#xb2;" d="M238 680v147l419 369q91 77 126.5 131.5t35.5 126.5q0 71 -44.5 110.5t-117.5 39.5q-85 0 -135.5 -52.5t-50.5 -169.5h-225q0 183 107.5 290.5t301.5 107.5q185 0 288.5 -89t103.5 -227q0 -115 -49.5 -197t-176.5 -188l-116 -102q-56 -47 -99 -76q-31 -22 -39 -27v-8h490 v-186h-819z" />
<glyph unicode="&#xb3;" d="M244 997h223q10 -78 61.5 -119.5t128.5 -41.5q83 0 134 42t51 113q0 74 -47 114t-133 40h-113v174h96q74 0 122 39t48 106q0 66 -41.5 103t-111.5 37q-85 0 -130.5 -43t-50.5 -119h-219q2 66 25.5 124.5t69.5 108t125 78.5t182 29q179 0 277.5 -81.5t98.5 -205.5 q0 -96 -48 -156.5t-146 -91.5v-4q221 -52 221 -264q0 -135 -109 -228.5t-303 -93.5q-105 0 -185.5 27.5t-127.5 75.5t-71.5 107.5t-26.5 129.5z" />
<glyph unicode="&#xb4;" d="M477 1247l115 367h340l-240 -367h-215z" />
<glyph unicode="&#xb6;" d="M141 1180q0 131 59 219.5t156 128t226 39.5h172v-1567h-187v786q-195 5 -310.5 105t-115.5 289zM920 0v1567h188v-1567h-188z" />
<glyph unicode="&#xb7;" d="M487 477v336h336v-336h-336z" />
<glyph unicode="&#xb8;" d="M436 -283h172q12 -39 64 -39q67 0 67 66t-65 66q-39 0 -60 -27h-159l147 299h127l-80 -162h62q93 0 143.5 -42t50.5 -120q0 -89 -61 -142.5t-185 -53.5q-105 0 -160 41.5t-63 113.5z" />
<glyph unicode="&#xb9;" d="M313 680v178h277v555h-260v160h67q109 0 166 45q55 44 55 149h201v-909h262v-178h-768z" />
<glyph unicode="&#xba;" d="M217 1083q0 214 117 334.5t321 120.5q199 0 319 -121.5t120 -333.5q0 -210 -121 -333t-318 -123q-205 0 -321.5 120t-116.5 336zM469 1083q0 -280 186 -280q187 0 187 280q0 279 -187 279q-97 0 -141.5 -75.5t-44.5 -203.5z" />
<glyph unicode="&#xbb;" d="M203 950h233l238 -415l-236 -418h-233l221 422zM651 950h234l237 -415l-235 -418h-232l219 422z" />
<glyph unicode="&#xbc;" horiz-adv-x="3932" d="M313 526v179h277v555h-260v159h67q109 0 166 45q55 44 55 150h201v-909h262v-179h-768zM1362 -82l1132 1679h199l-1132 -1679h-199zM2621 156v166l447 679h295v-663h168v-182h-168v-238h-217v238h-525zM2839 334h313v485h-12q-4 -7 -17 -37q-17 -39 -51 -92z" />
<glyph unicode="&#xbd;" horiz-adv-x="3932" d="M313 526v179h277v555h-260v159h67q109 0 166 45q55 44 55 150h201v-909h262v-179h-768zM1300 -82l1133 1679h199l-1133 -1679h-199zM2654 66l420 368q91 77 126.5 131.5t35.5 126.5q0 71 -44.5 110.5t-117.5 39.5q-186 0 -186 -221h-226q0 183 108 290t302 107 q185 0 288 -88.5t103 -227.5q0 -116 -49.5 -197.5t-175.5 -187.5l-117 -102q-59 -50 -98 -76q-23 -16 -39 -26v-9h489v-186h-819v148z" />
<glyph unicode="&#xbe;" horiz-adv-x="3932" d="M244 844h223q10 -78 61.5 -120t128.5 -42q83 0 134 42.5t51 113.5q0 73 -47 113t-133 40h-113v174h96q74 0 122 39.5t48 106.5q0 66 -41.5 102.5t-111.5 36.5q-85 0 -130.5 -43t-50.5 -119h-219q2 66 25.5 124.5t69.5 108t125 78.5t182 29q179 0 277.5 -81.5t98.5 -205.5 q0 -96 -48 -156t-146 -91v-4q221 -52 221 -265q0 -135 -109 -228t-303 -93q-105 0 -185.5 27.5t-127.5 75.5t-71.5 107.5t-26.5 129.5zM1343 -82l1133 1679h199l-1133 -1679h-199zM2621 156v166l447 679h295v-663h168v-182h-168v-238h-217v238h-525zM2839 334h313v485h-12 q-4 -7 -17 -37q-17 -39 -51 -92z" />
<glyph unicode="&#xbf;" d="M139 37q0 71 15.5 129.5t46 104.5t59.5 77t72 66l135 112q42 38 55 65t13 81v55h245v-100q0 -101 -21.5 -144t-111.5 -116l-102 -86q-68 -56 -99.5 -108.5t-31.5 -129.5q0 -96 60 -153.5t167 -57.5q124 0 195.5 77.5t70.5 237.5h271q8 -240 -137.5 -389t-397.5 -149 q-129 0 -227.5 34.5t-158 94.5t-89 135.5t-29.5 163.5zM487 903v336h336v-336h-336z" />
<glyph unicode="&#xc0;" d="M70 0l387 1567h395l389 -1567h-289l-94 389h-420l-94 -389h-274zM328 1966h344l100 -272h-223zM487 604h320l-90 397q-27 125 -41 232q-6 39 -14 106h-27q0 -6 -8 -54.5t-22.5 -129.5t-29.5 -154z" />
<glyph unicode="&#xc1;" d="M70 0l387 1567h395l389 -1567h-289l-94 389h-420l-94 -389h-274zM487 604h320l-90 397q-27 125 -41 232q-6 39 -14 106h-27q0 -6 -8 -54.5t-22.5 -129.5t-29.5 -154zM547 1696l100 272h344l-221 -272h-223z" />
<glyph unicode="&#xc2;" d="M70 0l387 1567h395l389 -1567h-289l-94 389h-420l-94 -389h-274zM309 1694l205 272h283l207 -272h-222l-133 114h-2l-131 -114h-207zM487 604h320l-90 397q-27 125 -41 232q-6 39 -14 106h-27q0 -6 -8 -54.5t-22.5 -129.5t-29.5 -154z" />
<glyph unicode="&#xc3;" d="M70 0l387 1567h395l389 -1567h-289l-94 389h-420l-94 -389h-274zM276 1681q2 136 62 218.5t178 82.5q52 0 109 -22.5t106.5 -45t81.5 -22.5q70 0 80 99h174q-5 -137 -64 -219t-176 -82q-52 0 -108.5 22t-105 44t-81.5 22q-75 0 -81 -97h-175zM487 604h320l-90 397 q-27 125 -41 232q-6 39 -14 106h-27q0 -6 -8 -54.5t-22.5 -129.5t-29.5 -154z" />
<glyph unicode="&#xc4;" d="M70 0l387 1567h395l389 -1567h-289l-94 389h-420l-94 -389h-274zM260 1681v310h315v-310h-315zM487 604h320l-90 397q-27 125 -41 232q-6 39 -14 106h-27q0 -6 -8 -54.5t-22.5 -129.5t-29.5 -154zM733 1681v310h316v-310h-316z" />
<glyph unicode="&#xc5;" d="M70 0l387 1567h395l389 -1567h-289l-94 389h-420l-94 -389h-274zM385 1886q0 111 74 186.5t188 75.5t189 -75.5t75 -186.5q0 -113 -74.5 -185.5t-189.5 -72.5t-188.5 72.5t-73.5 185.5zM487 604h320l-90 397q-27 125 -41 232q-6 39 -14 106h-27q0 -6 -8 -54.5 t-22.5 -129.5t-29.5 -154zM526 1886q0 -56 34 -93.5t87 -37.5q55 0 89 37.5t34 93.5q0 57 -34.5 96t-88.5 39q-53 0 -87 -39t-34 -96z" />
<glyph unicode="&#xc6;" d="M-27 0l410 1567h897v-224h-387v-448h340v-219h-340v-453h403v-223h-665v408h-293l-100 -408h-265zM391 621h240v722h-62z" />
<glyph unicode="&#xc7;" d="M98 768q0 406 140 613.5t446 207.5q241 0 381 -139.5t154 -390.5h-283q-14 147 -73.5 226t-180.5 79q-164 0 -227.5 -138.5t-63.5 -449.5q0 -123 8 -212.5t28.5 -162t54 -117t85 -68t121.5 -23.5q122 0 178.5 82t69.5 241h283q-12 -252 -152 -400.5t-383 -148.5h-12 l-25 -51h62q93 0 143.5 -42t50.5 -120q0 -89 -61 -142.5t-185 -53.5q-105 0 -160 41.5t-63 113.5h172q12 -39 64 -39q67 0 67 66q0 65 -65 65q-40 0 -60 -26h-159l98 198q-239 40 -346 235t-107 556z" />
<glyph unicode="&#xc8;" d="M195 0v1567h958v-228h-674v-442h613v-225h-613v-445h690v-227h-974zM373 1966h344l100 -272h-223z" />
<glyph unicode="&#xc9;" d="M195 0v1567h958v-228h-674v-442h613v-225h-613v-445h690v-227h-974zM573 1694l101 272h344l-221 -272h-224z" />
<glyph unicode="&#xca;" d="M195 0v1567h958v-228h-674v-442h613v-225h-613v-445h690v-227h-974zM342 1694l205 272h282l207 -272h-221l-133 114h-2l-131 -114h-207z" />
<glyph unicode="&#xcb;" d="M195 0v1567h958v-228h-674v-442h613v-225h-613v-445h690v-227h-974zM295 1681v310h315v-310h-315zM768 1681v310h315v-310h-315z" />
<glyph unicode="&#xcc;" d="M184 0v219h330v1129h-330v219h942v-219h-329v-1129h329v-219h-942zM324 1966h344l100 -272h-223z" />
<glyph unicode="&#xcd;" d="M184 0v219h330v1129h-330v219h942v-219h-329v-1129h329v-219h-942zM557 1694l100 272h344l-221 -272h-223z" />
<glyph unicode="&#xce;" d="M184 0v219h330v1129h-330v219h942v-219h-329v-1129h329v-219h-942zM309 1694l205 272h283l207 -272h-222l-133 114h-2l-131 -114h-207z" />
<glyph unicode="&#xcf;" d="M184 0v219h330v1129h-330v219h942v-219h-329v-1129h329v-219h-942zM262 1681v310h316v-310h-316zM735 1681v310h316v-310h-316z" />
<glyph unicode="&#xd0;" d="M6 686v205h139v676h355q176 0 306 -42.5t222.5 -135t139 -243t46.5 -360.5q0 -398 -177.5 -592t-530.5 -194h-361v686h-139zM428 227h76q103 0 177.5 29t128 93.5t79.5 172.5t26 262t-26.5 262.5t-79.5 173.5t-125 94t-170 29h-86v-452h283v-205h-283v-459z" />
<glyph unicode="&#xd1;" d="M129 0v1567h338l381 -934q10 -26 20 -54.5t19.5 -58.5t13.5 -43q3 -14 10 -37t9 -32h16v1159h246v-1567h-338l-381 934q-12 28 -22 56.5t-19.5 59.5t-13.5 42q-4 18 -19 67h-14v-1159h-246zM309 1681q2 136 62 218.5t178 82.5q52 0 109 -22.5t106.5 -45t81.5 -22.5 q70 0 80 99h174q-5 -137 -64 -219t-176 -82q-52 0 -108.5 22t-105 44t-81.5 22q-76 0 -82 -97h-174z" />
<glyph unicode="&#xd2;" d="M90 778q0 416 140 613.5t425 197.5q295 0 430.5 -194t135.5 -617q0 -418 -138 -614.5t-428 -196.5q-298 0 -431.5 193.5t-133.5 617.5zM326 1966h344l100 -272h-223zM393 778q0 -327 57.5 -458.5t204.5 -131.5q148 0 206.5 131t58.5 459q0 222 -28 351.5t-85 185 t-152 55.5q-100 0 -156 -57.5t-81 -184t-25 -350.5z" />
<glyph unicode="&#xd3;" d="M90 778q0 416 140 613.5t425 197.5q295 0 430.5 -194t135.5 -617q0 -418 -138 -614.5t-428 -196.5q-298 0 -431.5 193.5t-133.5 617.5zM393 778q0 -327 57.5 -458.5t204.5 -131.5q148 0 206.5 131t58.5 459q0 222 -28 351.5t-85 185t-152 55.5q-100 0 -156 -57.5 t-81 -184t-25 -350.5zM545 1694l100 272h344l-221 -272h-223z" />
<glyph unicode="&#xd4;" d="M90 778q0 416 140 613.5t425 197.5q295 0 430.5 -194t135.5 -617q0 -418 -138 -614.5t-428 -196.5q-298 0 -431.5 193.5t-133.5 617.5zM315 1694l205 272h283l207 -272h-222l-133 114h-2l-131 -114h-207zM393 778q0 -327 57.5 -458.5t204.5 -131.5q148 0 206.5 131 t58.5 459q0 222 -28 351.5t-85 185t-152 55.5q-100 0 -156 -57.5t-81 -184t-25 -350.5z" />
<glyph unicode="&#xd5;" d="M90 778q0 416 140 613.5t425 197.5q295 0 430.5 -194t135.5 -617q0 -418 -138 -614.5t-428 -196.5q-298 0 -431.5 193.5t-133.5 617.5zM293 1681q2 136 61.5 218.5t177.5 82.5q52 0 109 -22.5t106.5 -45t81.5 -22.5q70 0 80 99h174q-5 -138 -63.5 -219.5t-175.5 -81.5 q-52 0 -108.5 22t-105 44t-81.5 22q-76 0 -82 -97h-174zM393 778q0 -327 57.5 -458.5t204.5 -131.5q148 0 206.5 131t58.5 459q0 222 -28 351.5t-85 185t-152 55.5q-100 0 -156 -57.5t-81 -184t-25 -350.5z" />
<glyph unicode="&#xd6;" d="M90 778q0 416 140 613.5t425 197.5q295 0 430.5 -194t135.5 -617q0 -418 -138 -614.5t-428 -196.5q-298 0 -431.5 193.5t-133.5 617.5zM262 1681v310h316v-310h-316zM393 778q0 -327 57.5 -458.5t204.5 -131.5q148 0 206.5 131t58.5 459q0 222 -28 351.5t-85 185 t-152 55.5q-100 0 -156 -57.5t-81 -184t-25 -350.5zM735 1681v310h316v-310h-316z" />
<glyph unicode="&#xd7;" d="M158 369l346 342l-344 342l153 155l342 -346l342 346l154 -153l-346 -342l346 -342l-156 -156l-342 346l-342 -346z" />
<glyph unicode="&#xd8;" d="M35 -51l166 260q-111 196 -111 569q0 416 140 613.5t425 197.5q224 0 353 -114l96 149h172l-172 -268q117 -200 117 -578q0 -418 -138 -614.5t-428 -196.5q-227 0 -360 121l-88 -139h-172zM387 766q0 -128 10 -248l465 727q-32 68 -82 98.5t-125 30.5q-100 0 -157.5 -58 t-84 -189t-26.5 -361zM442 319q30 -71 82 -103t131 -32q103 0 160.5 58t83 187t25.5 359q0 145 -13 265z" />
<glyph unicode="&#xd9;" d="M125 498v1069h283v-1043q0 -167 58.5 -245t192.5 -78t193 79t59 244v1043h273v-1069q0 -268 -142 -399.5t-389 -131.5q-249 0 -388.5 129.5t-139.5 401.5zM334 1966h344l100 -272h-223z" />
<glyph unicode="&#xda;" d="M125 498v1069h283v-1043q0 -167 58.5 -245t192.5 -78t193 79t59 244v1043h273v-1069q0 -268 -142 -399.5t-389 -131.5q-249 0 -388.5 129.5t-139.5 401.5zM547 1694l100 272h344l-221 -272h-223z" />
<glyph unicode="&#xdb;" d="M125 498v1069h283v-1043q0 -167 58.5 -245t192.5 -78t193 79t59 244v1043h273v-1069q0 -268 -142 -399.5t-389 -131.5q-249 0 -388.5 129.5t-139.5 401.5zM315 1694l205 272h283l207 -272h-222l-133 114h-2l-131 -114h-207z" />
<glyph unicode="&#xdc;" d="M125 498v1069h283v-1043q0 -167 58.5 -245t192.5 -78t193 79t59 244v1043h273v-1069q0 -268 -142 -399.5t-389 -131.5q-249 0 -388.5 129.5t-139.5 401.5zM264 1681v310h316v-310h-316zM737 1681v310h316v-310h-316z" />
<glyph unicode="&#xdd;" d="M43 1567h305l311 -623h9l309 623h291l-471 -897v-670h-283v664zM553 1694l100 272h344l-221 -272h-223z" />
<glyph unicode="&#xde;" d="M160 0v1567h282v-312h213q121 0 216.5 -24.5t169 -76.5t113.5 -141t40 -210q0 -126 -41.5 -217.5t-118.5 -144.5t-176.5 -78t-226.5 -25h-189v-338h-282zM442 559h197h12q131 5 194.5 62t63.5 180q0 126 -65 179.5t-199 53.5h-203v-475z" />
<glyph unicode="&#xdf;" d="M178 0v1139q0 231 125 352t361 121q213 0 337.5 -110.5t124.5 -295.5q0 -133 -64 -219t-163 -121v-6q144 -31 226.5 -129t82.5 -268q0 -224 -139 -343.5t-389 -119.5h-70v215h62q117 0 190.5 68.5t73.5 193.5q0 128 -73.5 199.5t-203.5 71.5h-36v210h32q103 0 156 59.5 t53 170.5q0 106 -58.5 161.5t-150.5 55.5q-89 0 -145.5 -60t-56.5 -188v-1157h-275z" />
<glyph unicode="&#xe0;" d="M145 307q0 187 166 275q83 43 197 60.5t326 25.5v51q0 205 -191 205q-92 0 -137.5 -43.5t-50.5 -112.5h-265q8 157 127 252.5t322 95.5q223 0 338 -96t115 -311v-435q0 -37 14.5 -51t52.5 -14h47v-209h-127q-105 0 -156.5 32.5t-68.5 119.5h-8q-47 -79 -132 -127 t-200 -48q-79 0 -144.5 19t-116.5 57.5t-79.5 103t-28.5 150.5zM322 1614h340l114 -367h-217zM420 317q0 -70 42 -106.5t116 -36.5q103 0 179.5 79.5t76.5 223.5v15q-168 -9 -242.5 -19t-112.5 -37q-59 -45 -59 -119z" />
<glyph unicode="&#xe1;" d="M145 307q0 187 166 275q83 43 197 60.5t326 25.5v51q0 205 -191 205q-92 0 -137.5 -43.5t-50.5 -112.5h-265q8 157 127 252.5t322 95.5q223 0 338 -96t115 -311v-435q0 -37 14.5 -51t52.5 -14h47v-209h-127q-105 0 -156.5 32.5t-68.5 119.5h-8q-47 -79 -132 -127 t-200 -48q-79 0 -144.5 19t-116.5 57.5t-79.5 103t-28.5 150.5zM420 317q0 -70 42 -106.5t116 -36.5q103 0 179.5 79.5t76.5 223.5v15q-168 -9 -242.5 -19t-112.5 -37q-59 -45 -59 -119zM526 1247l115 367h340l-240 -367h-215z" />
<glyph unicode="&#xe2;" d="M145 307q0 187 166 275q83 43 197 60.5t326 25.5v51q0 205 -191 205q-92 0 -137.5 -43.5t-50.5 -112.5h-265q8 157 127 252.5t322 95.5q223 0 338 -96t115 -311v-435q0 -37 14.5 -51t52.5 -14h47v-209h-127q-105 0 -156.5 32.5t-68.5 119.5h-8q-47 -79 -132 -127 t-200 -48q-79 0 -144.5 19t-116.5 57.5t-79.5 103t-28.5 150.5zM326 1247l219 367h256l219 -367h-217l-139 170h-2l-136 -170h-200zM420 317q0 -70 42 -106.5t116 -36.5q103 0 179.5 79.5t76.5 223.5v15q-168 -9 -242.5 -19t-112.5 -37q-59 -45 -59 -119z" />
<glyph unicode="&#xe3;" d="M145 307q0 187 166 275q83 43 197 60.5t326 25.5v51q0 205 -191 205q-92 0 -137.5 -43.5t-50.5 -112.5h-265q8 157 127 252.5t322 95.5q223 0 338 -96t115 -311v-435q0 -37 14.5 -51t52.5 -14h47v-209h-127q-105 0 -156.5 32.5t-68.5 119.5h-8q-47 -79 -132 -127 t-200 -48q-79 0 -144.5 19t-116.5 57.5t-79.5 103t-28.5 150.5zM274 1255q0 144 60 233t178 89q49 0 108.5 -25.5t111 -51t81.5 -25.5q36 0 56 25.5t24 84.5h180q0 -147 -59 -235t-178 -88q-49 0 -108.5 25.5t-111 51t-81.5 25.5q-71 0 -80 -109h-181zM420 317 q0 -70 42 -106.5t116 -36.5q103 0 179.5 79.5t76.5 223.5v15q-168 -9 -242.5 -19t-112.5 -37q-59 -45 -59 -119z" />
<glyph unicode="&#xe4;" d="M145 307q0 187 166 275q83 43 197 60.5t326 25.5v51q0 205 -191 205q-92 0 -137.5 -43.5t-50.5 -112.5h-265q8 157 127 252.5t322 95.5q223 0 338 -96t115 -311v-435q0 -37 14.5 -51t52.5 -14h47v-209h-127q-105 0 -156.5 32.5t-68.5 119.5h-8q-47 -79 -132 -127 t-200 -48q-79 0 -144.5 19t-116.5 57.5t-79.5 103t-28.5 150.5zM266 1251v308h318v-308h-318zM420 317q0 -70 42 -106.5t116 -36.5q103 0 179.5 79.5t76.5 223.5v15q-168 -9 -242.5 -19t-112.5 -37q-59 -45 -59 -119zM735 1251v308h316v-308h-316z" />
<glyph unicode="&#xe5;" d="M145 307q0 187 166 275q83 43 197 60.5t326 25.5v51q0 205 -191 205q-92 0 -137.5 -43.5t-50.5 -112.5h-265q8 157 127 252.5t322 95.5q223 0 338 -96t115 -311v-435q0 -37 14.5 -51t52.5 -14h47v-209h-127q-105 0 -156.5 32.5t-68.5 119.5h-8q-47 -79 -132 -127 t-200 -48q-79 0 -144.5 19t-116.5 57.5t-79.5 103t-28.5 150.5zM393 1452q0 111 74 185.5t188 74.5q115 0 190 -74.5t75 -185.5q0 -112 -74.5 -185t-190.5 -73q-115 0 -188.5 72.5t-73.5 185.5zM420 317q0 -70 42 -106.5t116 -36.5q103 0 179.5 79.5t76.5 223.5v15 q-168 -9 -242.5 -19t-112.5 -37q-59 -45 -59 -119zM535 1452q0 -58 33.5 -95.5t86.5 -37.5q55 0 89 37.5t34 95.5q0 57 -34.5 96t-88.5 39q-53 0 -86.5 -39t-33.5 -96z" />
<glyph unicode="&#xe6;" d="M55 303q0 174 123 268q58 46 135.5 63t212.5 17v84q0 98 -23 145.5t-85 47.5q-58 0 -83 -40t-30 -112h-225q6 157 93.5 249.5t240.5 92.5q171 0 241 -129h7q80 129 245 129q93 0 159.5 -37t105 -108.5t56 -164t17.5 -214.5v-107h-489q1 -178 31.5 -247.5t105.5 -69.5 q101 0 115 137h229q-17 -161 -103.5 -245.5t-238.5 -84.5q-202 0 -268 177h-9q-44 -88 -108.5 -131t-165.5 -43q-137 0 -213 85t-76 238zM283 324q0 -146 108 -146q135 0 135 230v79q-89 1 -132 -9.5t-68 -35.5q-43 -43 -43 -118zM756 651h260v17q-2 136 -30.5 201t-98.5 65 q-69 0 -97.5 -69t-33.5 -214z" />
<glyph unicode="&#xe7;" d="M143 545q0 274 142 423.5t395 149.5q209 0 346.5 -102t149.5 -295h-281q-11 91 -64.5 146t-152.5 55q-130 0 -190 -101.5t-60 -269.5q0 -379 248 -379q57 0 101 19t70 51.5t40 68.5t18 76h275q-12 -196 -151 -306t-343 -110l-24 -51h61q93 0 144 -42t51 -120 q0 -89 -61 -142.5t-185 -53.5q-105 0 -160 41.5t-63 113.5h172q12 -39 63 -39q68 0 68 66t-66 66q-38 0 -59 -27h-160l96 197q-208 30 -314 175.5t-106 389.5z" />
<glyph unicode="&#xe8;" d="M127 545q0 254 144 413.5t397 159.5q104 0 189.5 -29t144.5 -79.5t99.5 -120.5t59.5 -150.5t19 -171.5v-100h-770q12 -149 77.5 -223t188.5 -74q97 0 145 37t72 100h274q-33 -157 -160.5 -246.5t-336.5 -89.5q-265 0 -404 155t-139 419zM336 1614h340l115 -367h-218z M412 657h483v13q-5 113 -63 185.5t-168 72.5q-114 0 -174 -68.5t-78 -202.5z" />
<glyph unicode="&#xe9;" d="M127 545q0 254 144 413.5t397 159.5q104 0 189.5 -29t144.5 -79.5t99.5 -120.5t59.5 -150.5t19 -171.5v-100h-770q12 -149 77.5 -223t188.5 -74q97 0 145 37t72 100h274q-33 -157 -160.5 -246.5t-336.5 -89.5q-265 0 -404 155t-139 419zM412 657h483v13q-5 113 -63 185.5 t-168 72.5q-114 0 -174 -68.5t-78 -202.5zM555 1247l115 367h340l-240 -367h-215z" />
<glyph unicode="&#xea;" d="M127 545q0 254 144 413.5t397 159.5q104 0 189.5 -29t144.5 -79.5t99.5 -120.5t59.5 -150.5t19 -171.5v-100h-770q12 -149 77.5 -223t188.5 -74q97 0 145 37t72 100h274q-33 -157 -160.5 -246.5t-336.5 -89.5q-265 0 -404 155t-139 419zM336 1247l219 367h256l219 -367 h-217l-139 170h-2l-135 -170h-201zM412 657h483v13q-5 113 -63 185.5t-168 72.5q-114 0 -174 -68.5t-78 -202.5z" />
<glyph unicode="&#xeb;" d="M127 545q0 254 144 413.5t397 159.5q104 0 189.5 -29t144.5 -79.5t99.5 -120.5t59.5 -150.5t19 -171.5v-100h-770q12 -149 77.5 -223t188.5 -74q97 0 145 37t72 100h274q-33 -157 -160.5 -246.5t-336.5 -89.5q-265 0 -404 155t-139 419zM281 1251v308h317v-308h-317z M412 657h483v13q-5 113 -63 185.5t-168 72.5q-114 0 -174 -68.5t-78 -202.5zM750 1251v308h315v-308h-315z" />
<glyph unicode="&#xec;" d="M160 0v215h379v664h-334v213h606v-877h389v-215h-1040zM317 1614h340l115 -367h-217z" />
<glyph unicode="&#xed;" d="M160 0v215h379v664h-334v213h606v-877h389v-215h-1040zM563 1247l115 367h340l-240 -367h-215z" />
<glyph unicode="&#xee;" d="M160 0v215h379v664h-334v213h606v-877h389v-215h-1040zM319 1247l220 367h256l219 -367h-217l-140 170h-2l-135 -170h-201z" />
<glyph unicode="&#xef;" d="M160 0v215h379v664h-334v213h606v-877h389v-215h-1040zM260 1251v308h318v-308h-318zM729 1251v308h315v-308h-315z" />
<glyph unicode="&#xf0;" d="M117 547q0 245 135.5 403t337.5 158q140 0 227 -80l10 6q-57 119 -206 248l-342 -117l-46 138l250 86q-48 34 -215 143l211 94q142 -66 258 -149l256 88l47 -138l-174 -59q328 -325 328 -780q0 -296 -146 -456.5t-397 -160.5q-250 0 -392 156.5t-142 419.5zM401 545 q0 -381 252 -381q131 0 194.5 102t63.5 281q0 190 -60.5 284.5t-191.5 94.5q-129 0 -193.5 -102.5t-64.5 -278.5z" />
<glyph unicode="&#xf1;" d="M178 0v1092h262v-183h4q46 92 132 149.5t212 57.5q182 0 268.5 -95t86.5 -294v-727h-277v649q0 50 -1.5 78t-8.5 61.5t-22 55.5q-47 65 -144 65q-119 0 -177 -70.5t-58 -199.5v-639h-277zM281 1255q0 144 59.5 233t177.5 89q49 0 108.5 -25.5t111 -51t81.5 -25.5 q36 0 56 25.5t24 84.5h180q0 -147 -59 -235t-178 -88q-49 0 -108.5 25.5t-111 51t-81.5 25.5q-71 0 -80 -109h-180z" />
<glyph unicode="&#xf2;" d="M117 545q0 271 142 422t396 151q253 0 396 -151t143 -422q0 -268 -145 -422t-396 -154q-253 0 -394.5 154t-141.5 422zM311 1614h340l115 -367h-217zM406 545q0 -179 60.5 -279t188.5 -100q130 0 190 101t60 278q0 175 -62 276t-188 101q-128 0 -188.5 -101t-60.5 -276z " />
<glyph unicode="&#xf3;" d="M117 545q0 271 142 422t396 151q253 0 396 -151t143 -422q0 -268 -145 -422t-396 -154q-253 0 -394.5 154t-141.5 422zM406 545q0 -179 60.5 -279t188.5 -100q130 0 190 101t60 278q0 175 -62 276t-188 101q-128 0 -188.5 -101t-60.5 -276zM541 1247l114 367h340 l-239 -367h-215z" />
<glyph unicode="&#xf4;" d="M117 545q0 271 142 422t396 151q253 0 396 -151t143 -422q0 -268 -145 -422t-396 -154q-253 0 -394.5 154t-141.5 422zM315 1247l220 367h256l219 -367h-217l-140 170h-2l-135 -170h-201zM406 545q0 -179 60.5 -279t188.5 -100q130 0 190 101t60 278q0 175 -62 276 t-188 101q-128 0 -188.5 -101t-60.5 -276z" />
<glyph unicode="&#xf5;" d="M117 545q0 271 142 422t396 151q253 0 396 -151t143 -422q0 -268 -145 -422t-396 -154q-253 0 -394.5 154t-141.5 422zM276 1255q0 144 60 233t178 89q49 0 108.5 -25.5t111 -51t81.5 -25.5q36 0 56 25.5t24 84.5h180q0 -147 -59 -235t-178 -88q-49 0 -108.5 25.5 t-111 51t-81.5 25.5q-71 0 -80 -109h-181zM406 545q0 -179 60.5 -279t188.5 -100q130 0 190 101t60 278q0 175 -62 276t-188 101q-128 0 -188.5 -101t-60.5 -276z" />
<glyph unicode="&#xf6;" d="M117 545q0 271 142 422t396 151q253 0 396 -151t143 -422q0 -268 -145 -422t-396 -154q-253 0 -394.5 154t-141.5 422zM260 1251v308h318v-308h-318zM406 545q0 -179 60.5 -279t188.5 -100q130 0 190 101t60 278q0 175 -62 276t-188 101q-128 0 -188.5 -101t-60.5 -276z M729 1251v308h315v-308h-315z" />
<glyph unicode="&#xf7;" d="M154 629v209h1003v-209h-1003zM487 154v331h336v-331h-336zM487 979v332h336v-332h-336z" />
<glyph unicode="&#xf8;" d="M66 -70l174 215q-123 150 -123 402q0 264 143.5 417.5t394.5 153.5q183 0 308 -82l96 119h182l-172 -213q123 -147 123 -395q0 -263 -148 -419.5t-391 -156.5q-182 0 -307 82l-100 -123h-180zM395 547q0 -105 19 -189l413 512q-60 60 -172 60q-133 0 -196.5 -103 t-63.5 -280zM483 221q59 -59 172 -59q133 0 195.5 102.5t62.5 282.5q0 121 -16 184z" />
<glyph unicode="&#xf9;" d="M170 352v740h274v-650q0 -141 35 -194q44 -66 142 -66q237 0 237 316v594h277v-1092h-267v180h-4q-45 -92 -129 -147.5t-207 -55.5q-181 0 -269.5 92t-88.5 283zM317 1614h340l115 -367h-217z" />
<glyph unicode="&#xfa;" d="M170 352v740h274v-650q0 -141 35 -194q44 -66 142 -66q237 0 237 316v594h277v-1092h-267v180h-4q-45 -92 -129 -147.5t-207 -55.5q-181 0 -269.5 92t-88.5 283zM539 1247l114 367h340l-239 -367h-215z" />
<glyph unicode="&#xfb;" d="M170 352v740h274v-650q0 -141 35 -194q44 -66 142 -66q237 0 237 316v594h277v-1092h-267v180h-4q-45 -92 -129 -147.5t-207 -55.5q-181 0 -269.5 92t-88.5 283zM322 1247l219 367h256l219 -367h-217l-140 170h-2l-135 -170h-200z" />
<glyph unicode="&#xfc;" d="M170 352v740h274v-650q0 -141 35 -194q44 -66 142 -66q237 0 237 316v594h277v-1092h-267v180h-4q-45 -92 -129 -147.5t-207 -55.5q-181 0 -269.5 92t-88.5 283zM264 1251v308h318v-308h-318zM733 1251v308h316v-308h-316z" />
<glyph unicode="&#xfd;" d="M111 1092h284l221 -617q17 -43 43 -143q11 -43 15 -60h6q9 43 14 60q22 86 45 143l213 617h271l-430 -1139q-52 -135 -105 -209.5t-137.5 -113t-214.5 -38.5q-123 0 -174 17v217q62 -12 131 -12q97 0 141.5 29t81.5 116l14 37zM555 1247l115 367h340l-240 -367h-215z" />
<glyph unicode="&#xfe;" d="M156 -385v1999h274v-684h4q45 81 132.5 133.5t207.5 52.5q96 0 174.5 -31.5t139.5 -96.5t95 -175.5t34 -259.5q0 -275 -130.5 -427.5t-334.5 -152.5q-115 0 -194 40.5t-120 107.5h-8v-506h-274zM428 489q0 -146 66 -234.5t192 -88.5q248 0 248 385q0 180 -59.5 274.5 t-190.5 94.5q-116 0 -186 -86t-70 -226v-119z" />
<glyph unicode="&#xff;" d="M111 1092h284l221 -617q17 -43 43 -143q11 -43 15 -60h6q9 43 14 60q22 86 45 143l213 617h271l-430 -1139q-52 -135 -105 -209.5t-137.5 -113t-214.5 -38.5q-123 0 -174 17v217q62 -12 131 -12q97 0 141.5 29t81.5 116l14 37zM285 1251v308h317v-308h-317zM754 1251v308 h315v-308h-315z" />
<glyph unicode="&#x152;" d="M49 782q0 410 152 597.5t448 187.5h631v-224h-385v-448h338v-219h-338v-453h401v-223h-659q-139 0 -245 43t-184 134.5t-118.5 243.5t-40.5 361zM338 780q0 -309 69 -438t230 -129v1139q-158 0 -228.5 -131.5t-70.5 -440.5z" />
<glyph unicode="&#x153;" d="M41 547q0 153 24 264t70.5 178t109.5 98t146 31q192 0 266 -157h7q71 157 260 157q325 0 325 -502v-135l-487 -4q0 -170 30 -238.5t105 -68.5q56 0 82 35.5t33 101.5h231q-17 -159 -105 -245.5t-231 -86.5q-99 0 -162.5 38t-101.5 122h-8q-79 -164 -248 -164 q-66 0 -118.5 18.5t-96 61t-72 108.5t-44 163.5t-15.5 224.5zM281 547q0 -206 28.5 -292.5t102.5 -86.5t100.5 90.5t26.5 288.5q0 201 -26.5 289t-100.5 88q-73 0 -102 -87t-29 -290zM762 653h258v15q-1 65 -7 111.5t-19.5 82.5t-38 54t-60.5 18q-67 0 -97.5 -70t-35.5 -211 z" />
<glyph unicode="&#x178;" d="M43 1567h305l311 -623h9l309 623h291l-471 -897v-670h-283v664zM270 1681v310h316v-310h-316zM743 1681v310h316v-310h-316z" />
<glyph unicode="&#x2c6;" d="M309 1247l219 367h256l220 -367h-218l-139 170h-2l-135 -170h-201z" />
<glyph unicode="&#x2dc;" d="M272 1255q0 144 60 233t178 89q49 0 108.5 -25.5t111 -51t81.5 -25.5q36 0 56 25.5t24 84.5h180q0 -147 -59 -235t-178 -88q-49 0 -109 25.5t-111.5 51t-81.5 25.5q-70 0 -79 -109h-181z" />
<glyph unicode="&#x2000;" horiz-adv-x="1074" />
<glyph unicode="&#x2001;" horiz-adv-x="2148" />
<glyph unicode="&#x2002;" horiz-adv-x="1074" />
<glyph unicode="&#x2003;" horiz-adv-x="2148" />
<glyph unicode="&#x2004;" horiz-adv-x="716" />
<glyph unicode="&#x2005;" horiz-adv-x="537" />
<glyph unicode="&#x2006;" horiz-adv-x="358" />
<glyph unicode="&#x2007;" horiz-adv-x="358" />
<glyph unicode="&#x2008;" horiz-adv-x="268" />
<glyph unicode="&#x2009;" horiz-adv-x="429" />
<glyph unicode="&#x200a;" horiz-adv-x="119" />
<glyph unicode="&#x2010;" d="M309 526v250h692v-250h-692z" />
<glyph unicode="&#x2011;" d="M309 526v250h692v-250h-692z" />
<glyph unicode="&#x2012;" d="M309 526v250h692v-250h-692z" />
<glyph unicode="&#x2013;" d="M254 545v213h803v-213h-803z" />
<glyph unicode="&#x2014;" d="M20 545v213h1270v-213h-1270z" />
<glyph unicode="&#x2018;" d="M424 985l231 582h209l-98 -582h-342z" />
<glyph unicode="&#x2019;" d="M446 985l99 582h342l-232 -582h-209z" />
<glyph unicode="&#x201a;" d="M446 -248l99 584h342l-232 -584h-209z" />
<glyph unicode="&#x201c;" d="M197 985l231 582h209l-98 -582h-342zM635 985l231 582h209l-98 -582h-342z" />
<glyph unicode="&#x201d;" d="M223 985l99 582h342l-232 -582h-209zM662 985l98 582h342l-232 -582h-208z" />
<glyph unicode="&#x201e;" d="M233 -248l99 584h342l-232 -584h-209zM674 -248l98 584h342l-231 -584h-209z" />
<glyph unicode="&#x2022;" d="M377 631q0 122 80 203t198 81q124 0 201.5 -79.5t77.5 -204.5t-81 -204t-200 -79q-124 0 -200 77.5t-76 205.5z" />
<glyph unicode="&#x2026;" d="M61 0v336h312v-336h-312zM500 0v336h313v-336h-313zM938 0v336h311v-336h-311z" />
<glyph unicode="&#x202f;" horiz-adv-x="429" />
<glyph unicode="&#x2039;" d="M319 532l355 418h284l-346 -420l346 -413h-288z" />
<glyph unicode="&#x203a;" d="M352 117l346 420l-346 413h289l350 -415l-354 -418h-285z" />
<glyph unicode="&#x205f;" horiz-adv-x="537" />
<glyph unicode="&#x20ac;" d="M35 840v153h178q42 272 180 409.5t357 137.5q209 0 342 -129t145 -344h-266q-13 114 -66 184t-153 70q-110 0 -172.5 -78.5t-85.5 -249.5h383v-153h-396q-2 -27 -2 -84q0 -59 2 -90h400v-154h-387q24 -168 88 -247t170 -79q104 0 159 66t68 182h260q-21 -217 -146.5 -342 t-349.5 -125q-455 0 -532 545h-172v154h160q-2 31 -2 86q0 57 2 88h-164z" />
<glyph unicode="&#x2122;" d="M23 1440v127h466v-127h-159v-541h-148v541h-159zM559 899v668h217l103 -369q12 -56 14 -72q1 -5 2 -14.5t2 -13.5h8q0 18 2 28q1 11 17 72l104 369h213v-668h-141v494h-10l-7 -43q-20 -92 -26 -109l-99 -342h-124l-99 340q-6 21 -10.5 42t-8 41t-5.5 28q-4 28 -4 43h-13 v-494h-135z" />
<glyph unicode="&#x25fc;" horiz-adv-x="1095" d="M0 0v1096h1096v-1096h-1096z" />
<glyph unicode="&#xfb01;" horiz-adv-x="2621" d="M137 874v218h363v139q0 87 22.5 155t60.5 112t92.5 72.5t114.5 40t130 11.5q121 0 239 -29v-215q-112 25 -207 25q-86 0 -133 -39.5t-47 -132.5v-139h387v-218h-387v-874h-272v874h-363zM1473 0v217h378v662h-333v213h606v-875h373v-217h-1024zM1815 1249v328h335v-328 h-335z" />
<glyph unicode="&#xfb02;" horiz-adv-x="2621" d="M137 874v218h363v139q0 87 22.5 155t60.5 112t92.5 72.5t114.5 40t130 11.5q121 0 239 -29v-215q-112 25 -207 25q-86 0 -133 -39.5t-47 -132.5v-139h387v-218h-387v-874h-272v874h-363zM1460 0v215h379v1186h-340v213h612v-1399h388v-215h-1039z" />
</font>
</defs>
</svg>
