<?xml version="1.0" standalone="no"?>
<!DOCTYPE svg PUBLIC "-//W3C//DTD SVG 1.1//EN" "http://www.w3.org/Graphics/SVG/1.1/DTD/svg11.dtd" >
<svg xmlns="http://www.w3.org/2000/svg">
<metadata></metadata>
<defs>
<font id="atlas_typewriterRgIt" horiz-adv-x="1310" >
<font-face units-per-em="2048" ascent="1663" descent="-385" />
<missing-glyph horiz-adv-x="500" />
<glyph horiz-adv-x="0" />
<glyph horiz-adv-x="682" />
<glyph horiz-adv-x="0" />
<glyph horiz-adv-x="0" />
<glyph unicode="&#xd;" horiz-adv-x="1024" />
<glyph unicode=" " />
<glyph unicode="!" d="M422 0l49 274h274l-49 -274h-274zM569 485l172 1129h205l-227 -1129h-150z" />
<glyph unicode="&#x22;" d="M434 1012l35 555h283l-170 -555h-148zM842 1012l35 555h282l-170 -555h-147z" />
<glyph unicode="#" d="M141 610l27 146h238l98 307h-221l26 145h244l113 357h149l-113 -357h275l113 357h149l-113 -357h222l-27 -145h-244l-98 -307h227l-26 -146h-248l-131 -407h-150l131 407h-274l-131 -407h-150l131 407h-217zM555 756h274l99 307h-275z" />
<glyph unicode="$" d="M109 455h170q-4 -151 59 -227.5t194 -90.5l109 592l-51 19q-277 89 -277 366q0 183 130 296.5t343 125.5l29 160h133l-30 -166q81 -13 146.5 -46.5t113 -87t71 -131.5t17.5 -173h-172q8 113 -43.5 190t-159.5 100l-94 -532l30 -10q178 -65 249 -155.5t71 -244.5 q0 -196 -141.5 -316t-364.5 -138l-41 -224h-135l41 226q-189 18 -296.5 134.5t-100.5 332.5zM489 1130q0 -96 38.5 -148t142.5 -87l90 494q-117 -13 -194 -80t-77 -179zM668 137h4q127 19 212 91.5t85 193.5q0 100 -43 156.5t-160 105.5z" />
<glyph unicode="%" d="M29 0l1171 1585h166l-1171 -1585h-166zM123 1147q0 53 9.5 108.5t34.5 115t61.5 105.5t97 75.5t135.5 29.5q133 0 199.5 -75.5t66.5 -192.5q0 -53 -9.5 -107.5t-34 -114.5t-62 -106t-100 -76t-140.5 -30q-125 0 -191.5 76.5t-66.5 191.5zM260 1149q0 -156 129 -156 q58 0 100 34t62.5 87.5t29.5 103t9 95.5q0 66 -30 109.5t-99 43.5q-54 0 -95 -31.5t-63 -81t-32.5 -101.5t-10.5 -103zM655 254q0 53 9.5 108.5t34.5 115t61.5 105.5t97 75.5t135.5 29.5q134 0 200.5 -75.5t66.5 -192.5q0 -53 -9.5 -107.5t-34.5 -114.5t-62.5 -106t-100 -76 t-140.5 -30q-125 0 -191.5 76.5t-66.5 191.5zM793 256q0 -156 129 -156q58 0 100 34t62 87.5t29 103t9 95.5q0 66 -30 109.5t-99 43.5q-44 0 -79 -21t-57 -54t-37 -76.5t-21 -84.5t-6 -81z" />
<glyph unicode="&#x26;" d="M39 373q0 169 101 284.5t304 212.5q-49 89 -73.5 165t-24.5 177q0 175 117.5 287.5t290.5 112.5q156 0 254 -84.5t98 -233.5q0 -77 -29.5 -144t-90 -126t-133.5 -108.5t-177 -104.5l227 -410q69 141 141 385h179q-118 -365 -234 -536q35 -63 69 -76.5t136 -13.5l-31 -160 h-24q-125 0 -179 22t-96 87q-163 -138 -401 -138q-182 0 -303 107t-121 295zM229 383q0 -120 68.5 -191t194.5 -71q174 0 296 119l-276 497q-164 -78 -223.5 -159t-59.5 -195zM524 1227q0 -72 21.5 -137.5t64.5 -149.5q50 27 73.5 40.5t65 39.5t62 43.5t49 45.5t41.5 54 t23 60t10 71q0 81 -48.5 128.5t-135.5 47.5q-99 0 -162.5 -65t-63.5 -178z" />
<glyph unicode="'" d="M637 1012l35 555h282l-170 -555h-147z" />
<glyph unicode="(" d="M446 504q0 359 156 639.5t440 470.5h191q-106 -81 -187.5 -157.5t-163 -180.5t-134.5 -214.5t-86 -254.5t-33 -305q0 -205 60.5 -386t195.5 -382h-166q-113 136 -193 341t-80 429z" />
<glyph unicode=")" d="M100 -266q105 81 187.5 158t163.5 181t134.5 214.5t86.5 254.5t33 304q0 219 -58.5 390t-197.5 378h165q113 -136 193 -341t80 -429q0 -359 -156 -639.5t-440 -470.5h-191z" />
<glyph unicode="*" d="M242 1225l100 180l346 -250l6 2l33 432l205 -35l-119 -419l6 -2l410 116l35 -205l-422 -36l-2 -7l223 -368l-184 -88l-156 399h-4l-287 -321l-143 145l336 272v7z" />
<glyph unicode="+" d="M242 653l28 158h375l76 391h176l-76 -391h373l-29 -158h-374l-78 -393h-176l77 393h-372z" />
<glyph unicode="," d="M307 -260l205 534h295l-338 -534h-162z" />
<glyph unicode="-" d="M348 580l33 182h610l-33 -182h-610z" />
<glyph unicode="." d="M422 0l49 274h274l-49 -274h-274z" />
<glyph unicode="/" d="M-63 -266l1255 1880h178l-1255 -1880h-178z" />
<glyph unicode="0" d="M152 477q0 82 8.5 172t30.5 195t55 202t86.5 188t120 158t160.5 107.5t204 40.5q200 0 311 -130t111 -380q0 -82 -8.5 -172t-30.5 -195t-55 -202t-86.5 -188t-120 -158t-160 -107.5t-203.5 -40.5q-211 0 -317 135t-106 375zM344 465q0 -342 252 -342q82 0 152.5 48 t118 127.5t84 176.5t56.5 202.5t30 197t10 167.5q0 342 -252 342q-82 0 -152.5 -48t-118 -127.5t-84 -176.5t-56.5 -202.5t-30 -197t-10 -167.5z" />
<glyph unicode="1" d="M156 0l26 154h375l170 964h-375l27 144h137q136 0 207 59q44 39 68 85.5t36 117.5h154l-242 -1370h379l-26 -154h-936z" />
<glyph unicode="2" d="M74 0l26 141l574 486q57 48 85 71.5t74 66.5t69 69.5t53 67t44 74.5t24.5 76.5t10.5 86.5q0 118 -66.5 181.5t-193.5 63.5q-49 0 -92 -10t-85 -36t-73 -65.5t-52 -103t-26 -145.5h-176q3 165 74 283.5t185 175.5t257 57q124 0 221 -42.5t155.5 -130.5t58.5 -210 q0 -90 -23.5 -167.5t-74 -149.5t-111 -133t-152.5 -138l-303 -250q-53 -47 -145 -116q-8 -6 -17.5 -13t-20 -14t-14.5 -10v-4h760l-30 -162h-1016z" />
<glyph unicode="3" d="M115 426h182q3 -299 307 -299q152 0 244 88t92 223q0 116 -62 184t-192 68h-121l33 164h113q150 0 239.5 78t89.5 217q0 113 -70 174t-184 61q-132 0 -219.5 -73.5t-109.5 -227.5h-181q17 203 162 330t355 127q196 0 314 -102.5t118 -276.5q0 -152 -96 -257.5 t-234 -131.5v-8q227 -67 227 -328q0 -136 -71.5 -243.5t-192 -165.5t-264.5 -58q-233 0 -362 124.5t-117 332.5z" />
<glyph unicode="4" d="M106 369l23 147l838 1002h219l-174 -990h190l-26 -159h-193l-65 -369h-177l66 369h-701zM332 526h502l139 783h-12q-3 -5 -14.5 -24.5t-18.5 -29.5q-61 -87 -88 -120z" />
<glyph unicode="5" d="M152 395h180q-4 -136 72.5 -203t222.5 -67q92 0 165.5 38.5t118 102t67.5 139t23 154.5q0 130 -71 208.5t-211 78.5q-104 0 -171 -34t-118 -101h-168l141 807h861l-29 -162h-688l-84 -477h6q38 49 123 82.5t182 33.5q197 0 309.5 -117.5t112.5 -306.5q0 -170 -72.5 -307 t-208 -216t-309.5 -79q-221 0 -343.5 110.5t-110.5 315.5z" />
<glyph unicode="6" d="M145 479q0 61 7 137t27.5 180.5t52 204t87 199t126.5 173.5t175.5 120.5t229.5 46.5q178 0 285 -102.5t112 -261.5h-176q-5 99 -65.5 156t-163.5 57q-80 0 -148 -31t-119.5 -85.5t-93 -132.5t-70.5 -167.5t-49 -196.5h15q126 193 377 193q188 0 302.5 -117.5 t114.5 -308.5q0 -158 -68.5 -288.5t-197 -208t-291.5 -77.5q-122 0 -214.5 40.5t-147 111.5t-81 161t-26.5 197zM338 430q0 -141 77 -223t210 -82q87 0 157 35t112.5 93t65.5 128.5t23 146.5q0 138 -76.5 211.5t-208.5 73.5q-163 0 -261.5 -109.5t-98.5 -273.5z" />
<glyph unicode="7" d="M219 0l864 1348h-802l30 170h1022l-24 -134l-881 -1384h-209z" />
<glyph unicode="8" d="M117 362q0 155 98 268.5t254 151.5v6q-76 32 -126 112.5t-50 186.5q0 131 70.5 237t185 163t246.5 57q188 0 313 -107.5t125 -281.5q0 -140 -87 -253t-216 -146v-4q91 -33 154 -113.5t63 -200.5q0 -110 -44.5 -201t-120.5 -150t-174.5 -91.5t-207.5 -32.5 q-219 0 -351 107.5t-132 291.5zM305 367q0 -125 84 -189.5t217 -64.5q165 0 258.5 89t93.5 236q0 123 -88 188.5t-215 65.5q-162 0 -256 -90.5t-94 -234.5zM479 1075q0 -112 72 -174.5t186 -62.5q138 0 224 88.5t86 228.5q0 109 -75.5 174.5t-183.5 65.5 q-144 0 -226.5 -90.5t-82.5 -229.5z" />
<glyph unicode="9" d="M117 342h174q0 -101 64 -161t184 -60q99 0 177.5 44.5t135 131.5t95.5 197t69 258h-12q-59 -88 -154 -131t-207 -43q-186 0 -302 115.5t-116 307.5q0 107 38.5 205t107 172t170 118t219.5 44q98 0 177 -28t131 -75t87 -110.5t50.5 -132t15.5 -143.5q0 -86 -8.5 -177.5 t-31 -199.5t-56 -206t-89 -190.5t-126 -160t-170 -108t-216.5 -40.5q-196 0 -305.5 107.5t-101.5 265.5zM412 1010q0 -128 68.5 -205.5t195.5 -77.5q173 0 267.5 104t94.5 265q0 133 -80 213t-206 80q-68 0 -125.5 -23.5t-96.5 -61.5t-66 -88t-39.5 -102t-12.5 -104z" />
<glyph unicode=":" d="M422 0l49 274h274l-49 -274h-274zM563 805l49 274h275l-49 -274h-275z" />
<glyph unicode=";" d="M266 -260l205 534h295l-338 -534h-162zM584 805l47 274h274l-47 -274h-274z" />
<glyph unicode="&#x3c;" d="M193 627l24 118l1028 455l-31 -184l-790 -342l651 -352l-33 -164z" />
<glyph unicode="=" d="M199 469l30 156h930l-31 -156h-929zM270 840l31 155h930l-31 -155h-930z" />
<glyph unicode="&#x3e;" d="M121 158l31 186l790 342l-651 352l33 162l850 -469l-25 -119z" />
<glyph unicode="?" d="M289 1104q12 253 153.5 390.5t370.5 137.5q202 0 315 -108t113 -273q0 -70 -17.5 -133t-43.5 -108t-65.5 -88t-74 -70t-79.5 -57l-91 -64q-12 -9 -33 -23.5t-27 -19.5t-19.5 -15t-16.5 -15.5t-10.5 -15.5t-10.5 -20.5t-7 -24t-9 -32.5l-20 -100h-170l24 131 q21 102 56.5 146t154.5 124l103 72q86 59 129 127t43 170q0 111 -67.5 177.5t-184.5 66.5q-157 0 -238 -92.5t-100 -282.5h-178zM418 0l49 274h274l-49 -274h-274z" />
<glyph unicode="@" d="M117 510l24 156q13 84 28 152t40 146t56.5 138t79 117.5t105.5 95t137.5 60t174.5 22.5q258 0 383 -161t76 -429l-111 -629h-137l20 111h-6q-91 -133 -250 -133q-132 0 -206 74t-74 212q0 73 8.5 140t33.5 141t64.5 127t108 88t157.5 35q173 0 244 -146h6q17 97 4 178 t-49.5 140t-107 92t-168.5 33q-72 0 -132 -19.5t-103.5 -51.5t-79.5 -82.5t-59.5 -101.5t-43.5 -121.5t-31.5 -129.5t-23.5 -137l-21 -131q-96 -619 418 -619q85 0 223 29l-22 -123q-100 -33 -240 -33q-298 0 -440 196.5t-86 563.5zM625 463q0 -184 149 -184q96 0 161.5 65 t82.5 176l12 78q23 115 -27.5 185.5t-146.5 70.5q-44 0 -80.5 -18t-59.5 -45.5t-41 -65.5t-27 -74t-14.5 -76t-7 -65t-1.5 -47z" />
<glyph unicode="A" d="M-16 0l729 1567h248l184 -1567h-201l-49 467h-506l-211 -467h-194zM459 621h422l-52 501q-3 25 -7 86.5t-7 87.5q-2 35 -6 101h-16q0 -1 -13 -35t-28.5 -73.5t-35 -88t-32.5 -78.5z" />
<glyph unicode="B" d="M88 0l277 1567h417q119 0 208 -27t142 -76t79 -112.5t26 -141.5q0 -300 -299 -370v-13q125 -31 194.5 -115t69.5 -210t-45.5 -223t-129 -157.5t-196 -91t-251.5 -30.5h-492zM305 152h291q88 0 159.5 18t130.5 57t91.5 109t32.5 166q0 131 -82 189.5t-242 58.5h-274z M436 903h266q73 0 133 15.5t109 48.5t76 91.5t27 137.5q0 219 -254 219h-265z" />
<glyph unicode="C" d="M137 526q0 27 1.5 63t9.5 110t21 146.5t39 163.5t61.5 169.5t91 156t123.5 132t164 88.5t208 34q220 0 342 -131q112 -119 112 -318q0 -19 -1 -40h-193v19q0 55 -10 103q-12 56 -41.5 105.5t-86.5 78t-136 28.5q-95 0 -174 -43.5t-131 -110.5t-91.5 -159t-60.5 -179 t-34.5 -180.5t-17 -153t-3.5 -106.5q0 -190 83 -283.5t218 -93.5q149 0 251 98t138 266h188q-17 -102 -60.5 -193.5t-113.5 -166t-174 -118.5t-229 -44q-231 0 -362.5 137.5t-131.5 421.5z" />
<glyph unicode="D" d="M57 0l277 1567h350q129 0 235.5 -36t187.5 -108.5t126 -189.5t45 -270q0 -155 -27.5 -293.5t-89 -262t-152.5 -213.5t-225.5 -142t-300.5 -52h-426zM276 164h236q108 0 196.5 35t146.5 89.5t101.5 131.5t67 150t37.5 155.5t18 138.5t4 109q0 430 -411 430h-176z" />
<glyph unicode="E" d="M119 0l276 1567h940l-28 -166h-750l-94 -529h643l-29 -161h-643l-96 -545h760l-29 -166h-950z" />
<glyph unicode="F" d="M160 0l276 1567h930l-29 -166h-739l-102 -572h655l-29 -161h-653l-119 -668h-190z" />
<glyph unicode="G" d="M115 516q0 85 10 178t34.5 199t61.5 203.5t95.5 188.5t131 157.5t173 106.5t217.5 40q216 0 336 -115q114 -109 114 -300v-23h-182v18q0 116 -60 189q-64 78 -208 78q-93 0 -171 -40t-131.5 -104.5t-95.5 -152t-66.5 -175t-40 -181t-21 -163.5t-5.5 -128q0 -193 74 -283 t217 -90q82 0 150 26t111 65.5t75.5 93.5t48.5 102t25 100l22 129h-373l29 156h547l-139 -791h-166l30 178h-8q-134 -209 -368 -209q-467 0 -467 547z" />
<glyph unicode="H" d="M55 0l277 1567h190l-123 -697h623l123 697h190l-276 -1567h-191l125 709h-622l-125 -709h-191z" />
<glyph unicode="I" d="M109 0l26 154h357l223 1259h-357l27 154h901l-26 -154h-357l-223 -1259h356l-26 -154h-901z" />
<glyph unicode="J" d="M129 16l31 172q152 -38 313 -38q164 0 248 74.5t110 221.5l170 959h-532l29 162h723l-201 -1133q-80 -454 -576 -454q-155 0 -315 36z" />
<glyph unicode="K" d="M98 0l277 1567h188l-131 -740l727 740h227l-653 -664l430 -903h-200l-369 772l-209 -213l-98 -559h-189z" />
<glyph unicode="L" d="M160 0l276 1567h191l-248 -1401h778l-29 -166h-968z" />
<glyph unicode="M" d="M57 0l277 1567h262l49 -768q2 -28 2.5 -71.5t-2.5 -102.5q-1 -13 -2 -38.5t-2 -37.5h16q11 43 21 76q36 121 61 174l322 768h276l-276 -1567h-178l237 1354h-20q-5 -17 -15.5 -48.5t-13.5 -39.5q-18 -55 -72 -187l-292 -704h-179l-45 708q-4 40 -4 95q0 40 2 88 q1 15 6 88h-20l-238 -1354h-172z" />
<glyph unicode="N" d="M55 0l277 1567h252l293 -1143q18 -72 30 -148q11 -61 11 -65h12l237 1356h172l-276 -1567h-252l-295 1149q-18 70 -29 143q-8 46 -10 64h-12l-238 -1356h-172z" />
<glyph unicode="O" d="M113 516q0 73 8 157.5t29.5 190.5t54 205t87 195t123.5 167t168 114.5t216 43.5q477 0 477 -551q0 -72 -8 -155.5t-29 -189.5t-53.5 -205t-87 -195t-123.5 -167.5t-168.5 -115t-216.5 -43.5q-477 0 -477 549zM305 502q0 -197 74 -286t215 -89q83 0 153.5 39t119.5 102 t88 147.5t62.5 171t39 177.5t21 162t5.5 129q0 197 -73.5 286t-214.5 89q-83 0 -154 -39t-120 -102t-88 -147.5t-62.5 -171t-39 -177.5t-21 -162t-5.5 -129z" />
<glyph unicode="P" d="M96 0l277 1567h477q130 0 229.5 -44.5t160 -141.5t60.5 -236q0 -174 -76 -299.5t-202 -186.5t-287 -61h-344l-104 -598h-191zM420 754h301q185 0 287 95.5t102 287.5q0 137 -74.5 205.5t-212.5 68.5h-286z" />
<glyph unicode="Q" d="M113 516q0 73 8 157.5t29.5 190.5t54 205t87 195t123.5 167t168 114.5t216 43.5q477 0 477 -551q0 -173 -39.5 -358t-122.5 -347t-192 -224v-11q104 -17 173 -72t130 -167l-166 -90q-68 123 -125 165.5t-164 42.5q-29 0 -83.5 -5t-96.5 -5q-477 0 -477 549zM305 502 q0 -197 74 -286t215 -89q83 0 153.5 39t119.5 102t88 147.5t62.5 171t39 177.5t21 162t5.5 129q0 197 -73.5 286t-214.5 89q-83 0 -154 -39t-120 -102t-88 -147.5t-62.5 -171t-39 -177.5t-21 -162t-5.5 -129z" />
<glyph unicode="R" d="M90 0l277 1567h479q205 0 322.5 -106.5t117.5 -297.5q0 -92 -25 -167.5t-64 -125t-94 -86.5t-108.5 -56t-113.5 -30v-6l247 -692h-198l-228 664h-305l-116 -664h-191zM426 821h303q169 0 265 87.5t96 252.5q0 121 -67 185.5t-185 64.5h-310z" />
<glyph unicode="S" d="M66 440l178 -2v-5q0 -310 360 -310q71 0 136 18.5t119.5 54.5t87 96.5t32.5 137.5q0 97 -50.5 151.5t-172.5 100.5l-195 72q-77 29 -130.5 60.5t-97.5 76.5t-65.5 108t-21.5 144q0 197 143.5 320.5t376.5 123.5q235 0 368 -113q126 -107 126 -308v-21h-181v7 q1 130 -77 206q-80 78 -242 78q-140 0 -234 -72t-94 -199q0 -56 14.5 -97t45.5 -69.5t65.5 -46.5t87.5 -37l186 -67q187 -67 262.5 -153.5t75.5 -241.5q0 -223 -162 -354.5t-419 -131.5q-118 0 -214.5 28.5t-168 84.5t-108.5 148q-32 79 -32 179q0 16 1 33z" />
<glyph unicode="T" d="M209 1405l29 162h1194l-29 -162h-502l-248 -1405h-190l248 1405h-502z" />
<glyph unicode="U" d="M133 330q-4 32 -4 68q0 74 18 163l181 1006h190l-178 -1008q-16 -87 -15 -156q1 -112 41 -175q66 -103 242 -103q305 0 363 338l196 1104h187l-195 -1100q-45 -255 -180 -376.5t-381 -121.5q-95 0 -172 19t-142 62t-101.5 111.5t-49.5 168.5z" />
<glyph unicode="V" d="M260 1567h195l110 -1137q3 -25 6.5 -82t6.5 -82l3 -45l3 -45h18q11 35 37 92q9 20 33 78t37 84l505 1137h195l-715 -1567h-264z" />
<glyph unicode="W" d="M92 0l174 1567h174l-161 -1364h12q3 13 11 36.5t11 34.5q29 99 64 179l307 786h184l25 -735v-213q-2 -33 -2 -88h16l322 1364h176l-379 -1567h-260l-33 766q-2 45 -1.5 84.5t1.5 73.5q1 12 2 36t2 37h-10l-11.5 -34.5l-13.5 -40.5q-30 -102 -53 -156l-295 -766h-262z" />
<glyph unicode="X" d="M-35 0l633 827l-317 740h206l240 -592h2l445 592h212l-581 -754l342 -813h-209l-264 653h-2l-494 -653h-213z" />
<glyph unicode="Y" d="M256 1567h199l252 -721h4l497 721h207l-641 -899l-117 -668h-188l117 662z" />
<glyph unicode="Z" d="M33 0l26 145l1041 1258h-789l29 164h1026l-27 -146l-1042 -1257h838l-29 -164h-1073z" />
<glyph unicode="[" d="M344 -266l332 1880h569l-24 -144h-396l-282 -1593h395l-25 -143h-569z" />
<glyph unicode="\" d="M342 1614h156l598 -1880h-154z" />
<glyph unicode="]" d="M106 -266l25 143h395l283 1593h-395l24 144h570l-332 -1880h-570z" />
<glyph unicode="^" d="M285 872l387 695h147l379 -693h-192l-261 492h-10l-274 -494h-176z" />
<glyph unicode="_" d="M98 -385l27 152h901l-27 -152h-901z" />
<glyph unicode="`" d="M547 1614h270l98 -367h-157z" />
<glyph unicode="a" d="M158 285q0 137 86 223t233 113q101 17 190 23.5t240 6.5l8 43q8 42 8 78q0 193 -223 193q-101 0 -167 -47t-76 -140h-178q8 145 126.5 236.5t309.5 91.5q217 0 313 -116q71 -86 71 -216q0 -45 -9 -94l-80 -447q-3 -15 -3 -28q0 -55 64 -55h51l-24 -150h-68 q-186 0 -186 168v8h-6q-116 -192 -344 -192q-156 0 -246 77.5t-90 223.5zM346 301q0 -91 46 -131.5t140 -40.5q128 0 221 91t121 235l13 65q-276 0 -398 -41q-143 -46 -143 -178z" />
<glyph unicode="b" d="M102 0l285 1614h184l-125 -703h5q130 193 356 193q184 0 283.5 -118t99.5 -316q0 -109 -21.5 -210t-65.5 -190t-107 -155t-152 -104t-193 -38q-240 0 -336 193h-8l-31 -166h-174zM363 343q11 -67 40.5 -117.5t88.5 -80.5t141 -30t147 36t105 92.5t66.5 132t37 148.5 t10.5 148q0 131 -61 208.5t-188 77.5q-77 0 -143 -31t-109 -80.5t-69.5 -104.5t-35.5 -109l-26 -148q-9 -43 -9 -84q0 -30 5 -58z" />
<glyph unicode="c" d="M180 428q0 101 19.5 196t63.5 183.5t108.5 154t162 105t216.5 39.5q204 0 310 -97q102 -93 101 -241v-14h-178q0 39 -12 74t-38 66t-74.5 49t-113.5 18q-85 0 -152 -35.5t-108 -90t-68 -126.5t-37.5 -138t-10.5 -131q0 -152 66 -234.5t204 -82.5q118 0 193.5 63t93.5 166 h188q-21 -161 -150 -270t-335 -109q-220 0 -334.5 124t-114.5 331z" />
<glyph unicode="d" d="M129 414q0 104 22.5 204.5t68.5 188.5t109.5 155t151 105.5t187.5 38.5q237 0 329 -193h4l123 701h187l-285 -1614h-176l24 147h-8q-65 -84 -145.5 -128t-198.5 -44q-188 0 -290.5 118.5t-102.5 320.5zM319 410q0 -131 64 -210t192 -79q81 0 145 29t105 79.5t66.5 109 t38.5 128.5l20 115q8 58 8 113t-18 104t-47 86t-78 58.5t-113 21.5q-80 0 -146.5 -34.5t-109.5 -90.5t-72.5 -129.5t-42 -149t-12.5 -151.5z" />
<glyph unicode="e" d="M162 422q0 102 20.5 198t65.5 185t110.5 155.5t163 106t215.5 39.5q84 0 153.5 -22t118.5 -61.5t83 -93t48 -117.5q14 -59 15 -124q0 -6 -1 -10q-1 -70 -19 -143l-11 -46h-776q-2 -23 -2 -63q0 -301 283 -301q100 0 167 43t91 115h190q-42 -144 -161 -227t-300 -83 q-118 0 -206.5 34t-142 95.5t-79.5 141.5t-26 178zM367 635h600q8 44 8 83q1 96 -45 158q-64 88 -199 87q-80 0 -144 -26t-107 -73t-70.5 -103.5t-42.5 -125.5z" />
<glyph unicode="f" d="M211 926l27 153h387l39 215q17 89 53.5 152.5t91.5 100.5t122 54t152 17q134 0 238 -39l-25 -145q-105 30 -215 30q-105 0 -161.5 -47.5t-75.5 -152.5l-33 -185h422l-27 -153h-422l-163 -926h-187l164 926h-387z" />
<glyph unicode="g" d="M98 -102h174q5 -73 64 -117.5t182 -44.5q153 0 241.5 78.5t123.5 273.5l20 119h-6q-61 -97 -147.5 -148t-219.5 -51q-79 0 -147.5 24t-123.5 71.5t-86.5 126t-31.5 178.5q0 107 21.5 206.5t67 188.5t110.5 155.5t159 105t206 38.5q122 0 204.5 -55t116.5 -138h6l31 170 h176l-178 -1011q-22 -127 -72.5 -220.5t-125 -148.5t-163.5 -81t-196 -26q-178 0 -294 79q-112 76 -112 217v10zM334 436q0 -134 56 -207t200 -73q141 0 238.5 94.5t123.5 238.5l21 109q8 37 8 74q0 29 -5 58q-12 66 -41.5 117.5t-89 83.5t-138.5 32q-78 0 -143.5 -37 t-106.5 -94t-70 -129t-41 -139t-12 -128z" />
<glyph unicode="h" d="M129 0l285 1614h186l-131 -731h6q16 38 43.5 73.5t69.5 71t105 57t136 21.5q163 0 243 -110q56 -78 56 -199q0 -51 -10 -111l-121 -686h-184l117 666q11 60 11 108q-1 68 -23 110q-38 70 -160 70q-128 0 -219 -104t-121 -266l-103 -584h-186z" />
<glyph unicode="i" d="M92 0l27 154h393l137 778h-334l27 147h514l-164 -925h404l-27 -154h-977zM641 1282l49 274h275l-50 -274h-274z" />
<glyph unicode="j" d="M109 -360l43 149q98 -41 202 -41q117 0 168 56.5t76 203.5l164 924h-422l27 147h602l-195 -1099q-36 -200 -136 -294t-292 -94q-116 0 -237 48zM754 1282l49 274h274l-49 -274h-274z" />
<glyph unicode="k" d="M162 0l284 1614h177l-187 -1061l563 526h232l-494 -452l391 -627h-208l-314 516l-213 -199l-55 -317h-176z" />
<glyph unicode="l" d="M92 0l27 154h393l231 1312h-354l27 148h536l-258 -1460h402l-27 -154h-977z" />
<glyph unicode="m" d="M25 0l190 1079h158l-29 -168h8q73 195 252 195q98 0 144 -52.5t51 -138.5h6q72 191 239 191q212 0 211 -200q0 -40 -8 -89l-143 -817h-174l139 788q6 35 6 63q0 105 -90 105q-164 0 -231 -374l-103 -582h-174l139 788q6 35 6 63q0 105 -90 105q-164 0 -231 -374 l-102 -582h-174z" />
<glyph unicode="n" d="M127 0l190 1079h175l-39 -213h4q123 238 370 238q173 0 249 -112q52 -76 52 -196q0 -57 -12 -124l-119 -672h-186l119 668q11 60 11 107q-1 67 -23 109q-38 70 -160 70q-128 0 -220 -104.5t-122 -265.5l-103 -584h-186z" />
<glyph unicode="o" d="M145 403q0 107 20.5 207.5t66 190.5t110.5 157t160 106.5t209 39.5q223 0 338.5 -116t115.5 -314q0 -108 -21 -208.5t-66 -191t-110 -157t-160.5 -105.5t-209.5 -39q-222 0 -337.5 116t-115.5 314zM336 401q0 -131 65 -207.5t203 -76.5q68 0 125.5 26t97 71.5t69 101.5 t46.5 120t25 123.5t8 116.5q0 130 -67 207.5t-203 77.5q-82 0 -147.5 -38t-106 -97t-67.5 -135.5t-37.5 -148.5t-10.5 -141z" />
<glyph unicode="p" d="M35 -385l258 1464h178l-29 -172h4q136 197 359 197q179 0 282 -118.5t103 -323.5q0 -105 -22.5 -204.5t-68 -187.5t-109 -154t-152 -104.5t-191.5 -38.5q-130 0 -206.5 48.5t-123.5 132.5h-4l-94 -539h-184zM361 377.5q0 -53.5 18 -101t48 -83.5t82.5 -57t121.5 -21 q65 0 120.5 25t95 68.5t69.5 98t48 117.5t26.5 123.5t8.5 118.5q0 135 -64 213.5t-190 78.5q-79 0 -144 -30t-106.5 -81t-67 -109.5t-36.5 -123.5l-22 -127q-8 -56 -8 -109.5z" />
<glyph unicode="q" d="M129 414q0 133 36 255t102.5 220t172 156.5t234.5 58.5q131 0 212 -55.5t118 -139.5h4l30 170h179l-259 -1464h-186l90 526h-4q-61 -78 -138 -122t-194 -44q-187 0 -292 119t-105 320zM319 410q0 -130 65.5 -209.5t190.5 -79.5q151 0 239.5 96.5t115.5 249.5l20 115 q8 49 8 93q0 50 -10 95q-19 85 -83 140t-167 55q-80 0 -145 -34.5t-108 -90.5t-72 -129.5t-41.5 -149t-12.5 -151.5z" />
<glyph unicode="r" d="M223 0l191 1079h174l-49 -282h4q90 163 206 233t279 70q120 0 217 -39l-33 -166q-112 35 -243 35q-93 0 -178 -42t-146 -111t-102 -155.5t-56 -177.5l-75 -444h-189z" />
<glyph unicode="s" d="M166 311h170q0 -194 270 -194q128 0 200.5 45.5t72.5 140.5q0 59 -42 95.5t-130 60.5l-146 39q-59 16 -103.5 37.5t-81 55t-56 83t-19.5 114.5q0 133 106.5 224.5t301.5 91.5q83 0 154 -19t127 -57.5t87 -102.5q29 -60 29 -137v-10h-172q-4 91 -63 138t-166 47 q-112 0 -170 -44t-58 -126q0 -57 38 -91t126 -59l113 -31q160 -43 230.5 -107t70.5 -186q0 -72 -26.5 -133t-79.5 -109.5t-141.5 -76t-203.5 -27.5q-216 0 -332 89q-107 82 -107 224q0 12 1 25z" />
<glyph unicode="t" d="M184 926l27 153h270q63 0 93 25t40 88l39 219h170l-59 -332h442l-26 -153h-443l-102 -572q-6 -47 -7 -81.5t10.5 -59t26.5 -40.5t40.5 -24.5t52.5 -12t63 -3.5q113 0 223 35l-26 -152q-118 -41 -221 -41q-211 0 -293 91q-57 64 -57 184q0 51 10 112l98 564h-371z" />
<glyph unicode="u" d="M195 391l120 688h185l-119 -680q-10 -57 -10 -102q0 -68 23 -107q38 -65 159 -65q130 0 223.5 112.5t128.5 313.5l92 528h185l-191 -1079h-174l37 201h-8q-20 -33 -39 -59.5t-52 -60t-68.5 -55.5t-86.5 -37.5t-108 -15.5q-173 0 -253 104q-55 72 -55 194q0 55 11 120z " />
<glyph unicode="v" d="M236 1079h176l143 -714q5 -27 13 -69t10 -52q3 -13 8 -54h12q9 18 25 54q21 50 59 121l389 714h186l-598 -1079h-198z" />
<glyph unicode="w" d="M172 1079h164l-6 -719q0 -68 -8 -120q-1 -12 -3.5 -35.5t-3.5 -34.5h13q3 11 8 35.5t8 36.5q20 79 37 116l278 721h183l20 -721q0 -38 -4 -116q-1 -12 -2 -36t-2 -36h12q2 7 8 33l9 39q21 82 32 116l242 721h168l-383 -1079h-211l-20 614q-1 20 -1 45q0 50 3 119 q1 14 2 42t2 42h-12q-1 -3 -10.5 -35t-14.5 -49q-29 -103 -55 -164l-238 -614h-209z" />
<glyph unicode="x" d="M53 0l500 557l-307 522h194l230 -397h6l352 397h209l-483 -534l319 -545h-194l-242 416h-6l-367 -416h-211z" />
<glyph unicode="y" d="M-84 -360l43 145q101 -37 197 -37q79 0 133.5 35t105.5 117l64 100l-242 1079h184l150 -696q18 -91 22 -125q1 -10 3.5 -28.5t3.5 -24.5h8q11 30 24 53q24 56 64 129l377 692h196l-694 -1226q-83 -142 -179.5 -200.5t-234.5 -58.5q-115 0 -225 46z" />
<glyph unicode="z" d="M90 0l27 152l817 776h-662l27 151h887l-29 -157l-817 -772h707l-27 -150h-930z" />
<glyph unicode="{" d="M279 602l28 164h103q92 0 132 35t54 121l53 335q27 169 96 255t188 106t294 0l-25 -133q-73 7 -124.5 7.5t-92.5 -8t-66.5 -23.5t-44.5 -43.5t-29.5 -64.5t-19.5 -89l-53 -332q-11 -68 -22.5 -105.5t-35.5 -69.5t-61.5 -47t-99.5 -24l-2 -8q173 -20 129 -246l-66 -348 q-14 -88 6.5 -133t88 -63t204.5 -13l-26 -133q-280 -17 -379 68.5t-59 306.5l59 329q17 86 -12.5 121t-114.5 35h-102z" />
<glyph unicode="|" d="M461 -266l332 1880h153l-332 -1880h-153z" />
<glyph unicode="}" d="M125 -258l25 133q83 -6 144 -1t100.5 13.5t66 36t41 66.5t24.5 104l54 332q11 68 22.5 105.5t35.5 69.5t61.5 47t99.5 24l2 8q-173 20 -129 246l65 348q21 128 -40.5 173t-258.5 38l27 133q281 17 380 -69t58 -308l-59 -330q-17 -85 12 -120t115 -35h102l-29 -164h-102 q-94 0 -133 -34.5t-53 -121.5l-56 -346q-20 -125 -63.5 -199.5t-113 -109t-168 -42t-230.5 2.5z" />
<glyph unicode="~" d="M207 598q0 127 74 201.5t184 74.5q57 0 139 -29.5t152 -59t98 -29.5q39 0 65.5 30t30.5 93h150q0 -128 -72 -202.5t-184 -74.5q-57 0 -137 29t-150.5 58.5t-103.5 29.5q-37 0 -65 -29.5t-32 -91.5h-149z" />
<glyph unicode="&#xa0;" />
<glyph unicode="&#xa1;" d="M385 -385l227 1128h150l-172 -1128h-205zM586 954l49 275h274l-49 -275h-274z" />
<glyph unicode="&#xa2;" d="M170 408q0 98 19 193t61.5 184t104 157.5t153 112.5t201.5 51l34 194h127l-34 -198q171 -22 251.5 -114.5t75.5 -233.5h-176q2 70 -42.5 127t-135.5 75l-145 -833q103 7 169.5 69.5t84.5 159.5h186q-21 -160 -147 -269.5t-320 -109.5l-37 -211h-127l39 220 q-170 29 -256 139t-86 287zM356 420q0 -112 46 -186.5t137 -100.5l145 825q-71 -13 -129 -55.5t-94 -99t-60.5 -126t-34.5 -133.5t-10 -124z" />
<glyph unicode="&#xa3;" d="M74 0l26 141l84 60q70 52 113.5 91.5t72.5 77.5t39.5 80t10.5 87t-10 110h-240l29 146h184l-18 104q-33 180 14.5 325.5t173 231.5t309.5 86q222 0 332.5 -127.5t69.5 -329.5h-181q24 146 -32 226t-199 80q-74 0 -133 -23.5t-94.5 -63.5t-58 -93t-25 -113t5.5 -123 l28 -180h445l-29 -146h-395q12 -157 -34.5 -256t-178.5 -192l-43 -31v-4h754l-31 -164h-989z" />
<glyph unicode="&#xa4;" d="M94 729l29 162l215 -37q18 51 61 104l-131 189l135 94l129 -186q65 23 127 26l37 215l162 -28l-39 -217q62 -24 111 -70l194 139l93 -131l-199 -137q21 -56 24 -123l218 -37l-29 -162l-217 39q-23 -58 -66 -108l135 -191l-135 -94l-133 193q-58 -22 -121 -25l-39 -221 l-161 29l38 219q-55 21 -108 65l-193 -135l-92 129l195 135q-24 64 -27 129zM446 711q-2 -107 60 -176.5t164 -69.5q103 0 167 69.5t66 176.5t-60 177t-165 70q-102 0 -166 -70t-66 -177z" />
<glyph unicode="&#xa5;" d="M137 328l25 141h395l33 190h-397l24 142h377l-307 717h192l244 -594h4l442 594h193l-547 -717h359l-25 -142h-387l-33 -190h389l-24 -141h-392l-57 -328h-172l57 328h-393z" />
<glyph unicode="&#xa6;" d="M461 -266l157 897h154l-158 -897h-153zM647 793l146 821h153l-145 -821h-154z" />
<glyph unicode="&#xa7;" d="M127 129h176q-8 -105 45.5 -165t175.5 -60q98 0 168 50t70 138q0 59 -22 95t-74 69l-220 135q-124 74 -176.5 142t-52.5 178q0 244 266 305v2q-53 71 -53 178q0 156 114.5 250t295.5 94q163 0 266 -87.5t92 -246.5h-178q6 91 -42.5 144t-158.5 53q-88 0 -150.5 -50 t-62.5 -147q0 -55 23.5 -91.5t79.5 -72.5l219 -135q120 -72 173.5 -143.5t53.5 -173.5q0 -246 -266 -307v-2q51 -68 51 -166q0 -154 -121 -251t-313 -97q-181 0 -285.5 89.5t-93.5 272.5zM393 731q0 -55 23 -90t88 -76l223 -139q13 -8 33 -21.5t26 -17.5q87 8 140 50.5 t53 127.5q0 52 -24 91.5t-87 78.5l-221 137q-9 5 -28.5 18.5t-30.5 20.5q-87 -8 -141 -51.5t-54 -128.5z" />
<glyph unicode="&#xa8;" d="M424 1282l47 264h266l-47 -264h-266zM866 1282l47 264h265l-48 -264h-264z" />
<glyph unicode="&#xa9;" d="M113 537q0 112 26 258l31 163q55 298 204 463.5t398 165.5t376.5 -150.5t127.5 -424.5q0 -118 -25 -246l-30 -164q-56 -300 -205.5 -466.5t-399.5 -166.5q-244 0 -371 144.5t-132 423.5zM240 532q0 -99 21.5 -179.5t65.5 -142t116 -95t167 -33.5q89 0 163 29.5 t125.5 78.5t92 121t65.5 149t42 171l26 149q25 143 25 244q0 133 -37.5 232t-122.5 159t-211 60q-90 0 -163.5 -29.5t-125 -78t-91 -120.5t-63.5 -148t-42 -169l-29 -150q-24 -132 -24 -248zM422.5 569q-2.5 84 17.5 207q41 240 119.5 341.5t214.5 101.5q52 0 93.5 -14.5 t74 -45.5t45 -86t0.5 -129h-141q21 152 -80 152q-72 0 -111.5 -69.5t-68.5 -244.5q-33 -173 -18 -246t91 -73q39 0 67.5 28.5t41 63.5t18.5 78h140q-40 -295 -277 -295q-69 0 -116 22.5t-77.5 73.5t-33 135z" />
<glyph unicode="&#xaa;" d="M291 864q0 176 166 246q75 36 169.5 46.5t299.5 10.5l6 35q18 105 -32.5 158t-149.5 53q-178 0 -201 -143h-160q12 126 112 197t259 71q186 0 272 -97.5t51 -273.5l-63 -325q-10 -42 3 -58t50 -16h37l-27 -135h-57q-92 0 -129 26.5t-33 108.5h-8q-113 -152 -297 -152 q-127 0 -197.5 66t-70.5 182zM463 881q0 -140 149 -140q40 0 84 18t85.5 51.5t73.5 90t44 125.5l4 23q-168 2 -252.5 -9t-126.5 -41q-61 -39 -61 -118z" />
<glyph unicode="&#xab;" d="M201 547l323 403h195l-322 -420l162 -413h-184zM631 547l323 403h197l-322 -420l162 -413h-186z" />
<glyph unicode="&#xac;" d="M236 651l28 162h942l-98 -553h-166l70 391h-776z" />
<glyph unicode="&#xad;" d="M348 580l33 182h610l-33 -182h-610z" />
<glyph unicode="&#xae;" d="M254 1079q8 216 156 363t364 147q144 0 258 -68t174.5 -184.5t55.5 -257.5q-8 -215 -156.5 -360.5t-368.5 -145.5q-141 0 -253.5 66.5t-173.5 182.5t-56 257zM358 1079q-7 -178 102.5 -296.5t280.5 -118.5q174 0 293 118t127 297q5 182 -106 301t-285 119 q-112 0 -205.5 -54t-148.5 -150.5t-58 -215.5zM526 838l90 522h209q74 0 116 -34.5t42 -100.5q0 -69 -40 -108t-95 -48l92 -231h-113l-77 209h-80l-37 -209h-107zM684 1130h92q98 0 98 87q0 63 -65 63h-98z" />
<glyph unicode="&#xaf;" d="M463 1303l31 170h651l-31 -170h-651z" />
<glyph unicode="&#xb0;" d="M315 1104q0 192 125 320t320 128q172 0 286.5 -113t114.5 -290q0 -190 -124.5 -317t-315.5 -127q-178 0 -292 110t-114 289zM475 1104q0 -110 70 -184t176 -74q127 0 202.5 85t75.5 222q0 111 -68 185.5t-175 74.5q-127 0 -204 -86.5t-77 -222.5z" />
<glyph unicode="&#xb1;" d="M104 0l29 158h924l-29 -158h-924zM242 715l30 157h373l76 392h176l-76 -392h375l-31 -157h-374l-76 -393h-176l75 393h-372z" />
<glyph unicode="&#xb2;" d="M311 705l23 126l493 373q108 82 155.5 147.5t47.5 153.5q0 80 -50 127t-136 47q-95 0 -161 -62t-73 -192h-153q0 175 111.5 280t285.5 105q157 0 248.5 -82t91.5 -215q0 -123 -60.5 -213t-197.5 -192l-186 -141q-27 -20 -71.5 -49t-53.5 -35q-17 -11 -56 -33v-6h547 l-24 -139h-781z" />
<glyph unicode="&#xb3;" d="M362 1014h158q0 -201 213 -201q111 0 177.5 59.5t66.5 151.5q0 168 -180 168h-109l27 135h100q106 0 167.5 51.5t61.5 139.5q0 79 -49.5 121t-130.5 42q-208 0 -233 -200h-158q12 145 119.5 237t275.5 92q153 0 244.5 -73t91.5 -205q0 -111 -66 -179.5t-171 -90.5v-11 q170 -50 170 -229q0 -152 -118 -246t-294 -94q-175 0 -273 90t-90 242z" />
<glyph unicode="&#xb4;" d="M586 1247l188 367h277l-308 -367h-157z" />
<glyph unicode="&#xb6;" d="M301 1155q0 184 130 298t327 114h162l-277 -1567h-160l146 821q-145 5 -236.5 96t-91.5 238zM805 0l276 1567h160l-276 -1567h-160z" />
<glyph unicode="&#xb7;" d="M494 506l49 274h274l-49 -274h-274z" />
<glyph unicode="&#xb8;" d="M385 -276h150q1 -23 22 -36.5t51 -13.5q82 0 82 76q0 64 -65 64q-41 0 -68 -27h-141l194 307h107l-115 -178h45q92 0 139.5 -41t47.5 -115q0 -88 -64.5 -142t-175.5 -54q-104 0 -161.5 43.5t-47.5 116.5z" />
<glyph unicode="&#xb9;" d="M369 705l26 135h269l124 645h-274l23 117h92q107 0 166 47q60 51 79 149h136l-185 -958h265l-27 -135h-694z" />
<glyph unicode="&#xba;" d="M295 967q0 111 28 211t83 181.5t147.5 130t210.5 48.5q184 0 277.5 -94.5t93.5 -255.5q0 -111 -28 -211t-83 -182t-147.5 -130.5t-210.5 -48.5q-185 0 -278 93.5t-93 257.5zM463 969q0 -226 209 -226q65 0 117 30t84.5 76t54.5 106.5t30.5 117t8.5 111.5q0 227 -209 227 q-64 0 -116 -30t-84.5 -76.5t-54.5 -106.5t-31 -117.5t-9 -111.5z" />
<glyph unicode="&#xbb;" d="M160 117l301 420l-182 413h186l194 -430l-303 -403h-196zM592 117l301 420l-182 413h184l195 -430l-304 -403h-194z" />
<glyph unicode="&#xbc;" horiz-adv-x="3932" d="M330 526l26 136h269l125 645h-275l23 116h92q107 0 166 47q61 52 80 150h135l-185 -958h265l-27 -136h-694zM1245 -82l1415 1679h172l-1415 -1679h-172zM2494 176l21 123l625 711h192l-123 -701h168l-22 -133h-170l-45 -258h-158l47 258h-535zM2689 309h365l96 537h-12 q-3 -4 -15 -22.5t-20 -28.5q-40 -58 -101 -127z" />
<glyph unicode="&#xbd;" horiz-adv-x="3932" d="M330 526l26 136h269l125 645h-275l23 116h92q107 0 166 47q61 52 80 150h135l-185 -958h265l-27 -136h-694zM1206 -82l1415 1679h172l-1415 -1679h-172zM2587 -82l22 127l494 373q107 82 154.5 147.5t47.5 153.5q0 80 -50 127t-136 47q-95 0 -160.5 -61.5t-72.5 -192.5 h-154q0 175 111.5 280t285.5 105q157 0 248.5 -82t91.5 -215q0 -123 -60.5 -213t-197.5 -192l-186 -142q-27 -20 -71.5 -49t-53.5 -35q-22 -15 -55 -33v-6h546l-24 -139h-780z" />
<glyph unicode="&#xbe;" horiz-adv-x="3932" d="M311 836h158q0 -201 213 -201q111 0 177.5 59.5t66.5 151.5q0 80 -45 124t-136 44h-108l27 135h100q106 0 167.5 51t61.5 139q0 79 -49.5 121.5t-130.5 42.5q-208 0 -233 -200h-158q12 145 119.5 237t275.5 92q153 0 244.5 -73t91.5 -205q0 -111 -66.5 -180t-171.5 -91 v-10q170 -50 170 -229q0 -152 -117.5 -246t-293.5 -94q-175 0 -273 90t-90 242zM1247 -82l1415 1679h172l-1415 -1679h-172zM2515 176l20 123l625 711h193l-123 -701h168l-23 -133h-170l-45 -258h-158l47 258h-534zM2710 309h364l96 537h-12q-3 -4 -15 -22.5t-20 -28.5 q-44 -63 -100 -127z" />
<glyph unicode="&#xbf;" d="M135 -23q0 70 17.5 133t43.5 108.5t66 88t74.5 70t79.5 57.5l90 64q12 9 33 23.5t27 19.5t19.5 15t16.5 15.5t10.5 15.5t10.5 20.5t7 24t9 32.5l20 100h170l-24 -131q-21 -102 -56.5 -146.5t-154.5 -124.5l-102 -71q-86 -59 -129.5 -127t-43.5 -170q0 -111 67.5 -177.5 t184.5 -66.5q157 0 238 92.5t100 282.5h178q-12 -253 -153.5 -390.5t-370.5 -137.5q-202 0 -315 107.5t-113 272.5zM635 954l49 275h274l-49 -275h-274z" />
<glyph unicode="&#xc0;" d="M-16 0l729 1567h248l184 -1567h-201l-49 467h-506l-211 -467h-194zM459 621h422l-52 501q-3 25 -7 86.5t-7 87.5q-2 35 -6 101h-16q0 -1 -13 -35t-28.5 -73.5t-35 -88t-32.5 -78.5zM555 1966h276l97 -272h-166z" />
<glyph unicode="&#xc1;" d="M-16 0l729 1567h248l184 -1567h-201l-49 467h-506l-211 -467h-194zM459 621h422l-52 501q-3 25 -7 86.5t-7 87.5q-2 35 -6 101h-16q0 -1 -13 -35t-28.5 -73.5t-35 -88t-32.5 -78.5zM762 1694l141 272h277l-246 -272h-172z" />
<glyph unicode="&#xc2;" d="M-16 0l729 1567h248l184 -1567h-201l-49 467h-506l-211 -467h-194zM459 621h422l-52 501q-3 25 -7 86.5t-7 87.5q-2 35 -6 101h-16q0 -1 -13 -35t-28.5 -73.5t-35 -88t-32.5 -78.5zM528 1694l246 272h234l151 -272h-170l-115 135h-6l-159 -135h-181z" />
<glyph unicode="&#xc3;" d="M-16 0l729 1567h248l184 -1567h-201l-49 467h-506l-211 -467h-194zM459 621h422l-52 501q-3 25 -7 86.5t-7 87.5q-2 35 -6 101h-16q0 -1 -13 -35t-28.5 -73.5t-35 -88t-32.5 -78.5zM487 1694q8 124 70.5 200t175.5 76q41 0 83 -17.5t70 -38.5t60.5 -38.5t57.5 -17.5 q78 0 92 120h145q-11 -126 -71.5 -202t-172.5 -76q-41 0 -82 17t-69 38t-60 38t-57 17q-83 0 -96 -116h-146z" />
<glyph unicode="&#xc4;" d="M-16 0l729 1567h248l184 -1567h-201l-49 467h-506l-211 -467h-194zM459 621h422l-52 501q-3 25 -7 86.5t-7 87.5q-2 35 -6 101h-16q0 -1 -13 -35t-28.5 -73.5t-35 -88t-32.5 -78.5zM487 1694l48 264h266l-47 -264h-267zM930 1694l47 264h264l-47 -264h-264z" />
<glyph unicode="&#xc5;" d="M-16 0l729 1567h248l184 -1567h-201l-49 467h-506l-211 -467h-194zM459 621h422l-52 501q-3 25 -7 86.5t-7 87.5q-2 35 -6 101h-16q0 -1 -13 -35t-28.5 -73.5t-35 -88t-32.5 -78.5zM608 1870q0 119 80 201.5t203 82.5q113 0 180.5 -68.5t67.5 -174.5q0 -118 -81.5 -198.5 t-203.5 -80.5q-112 1 -179 67t-67 171zM735 1884q0 -63 34 -102t93 -39q65 0 107.5 45.5t42.5 112.5q0 62 -35 102.5t-94 40.5q-65 0 -106.5 -46.5t-41.5 -113.5z" />
<glyph unicode="&#xc6;" d="M-111 0l785 1567h792l-28 -166h-455l-94 -529h389l-29 -161h-389l-96 -545h465l-29 -166h-643l82 467h-332l-231 -467h-187zM383 621h283l139 780h-35z" />
<glyph unicode="&#xc7;" d="M137 526q0 27 1.5 63t9.5 110t21 146.5t39 163.5t61.5 169.5t91 156t123.5 132t164 88.5t208 34q220 0 342.5 -131t110.5 -358h-193q2 66 -10 122t-41.5 105.5t-86.5 78t-136 28.5q-95 0 -174 -43.5t-131 -110.5t-91.5 -159t-60.5 -179t-34.5 -180.5t-17 -153 t-3.5 -106.5q0 -190 83 -283.5t218 -93.5q149 0 251 98t138 266h188q-17 -102 -60.5 -193.5t-113.5 -166t-174 -118.5t-229 -44h-33l-33 -51h45q92 0 139.5 -41t47.5 -115q0 -88 -64.5 -142t-175.5 -54q-104 0 -161.5 43.5t-47.5 116.5h150q1 -23 22 -36.5t51 -13.5 q82 0 82 76q0 64 -65 64q-41 0 -68 -27h-141l123 193q-365 77 -365 546z" />
<glyph unicode="&#xc8;" d="M119 0l276 1567h940l-28 -166h-750l-94 -529h643l-29 -161h-643l-96 -545h760l-29 -166h-950zM623 1966h276l96 -272h-166z" />
<glyph unicode="&#xc9;" d="M119 0l276 1567h940l-28 -166h-750l-94 -529h643l-29 -161h-643l-96 -545h760l-29 -166h-950zM786 1694l142 272h276l-246 -272h-172z" />
<glyph unicode="&#xca;" d="M119 0l276 1567h940l-28 -166h-750l-94 -529h643l-29 -161h-643l-96 -545h760l-29 -166h-950zM569 1694l246 272h234l151 -272h-170l-115 135h-6l-159 -135h-181z" />
<glyph unicode="&#xcb;" d="M119 0l276 1567h940l-28 -166h-750l-94 -529h643l-29 -161h-643l-96 -545h760l-29 -166h-950zM535 1694l47 264h266l-47 -264h-266zM977 1694l47 264h264l-47 -264h-264z" />
<glyph unicode="&#xcc;" d="M109 0l26 154h357l223 1259h-357l27 154h901l-26 -154h-357l-223 -1259h356l-26 -154h-901zM565 1966h277l96 -272h-166z" />
<glyph unicode="&#xcd;" d="M109 0l26 154h357l223 1259h-357l27 154h901l-26 -154h-357l-223 -1259h356l-26 -154h-901zM768 1694l141 272h277l-246 -272h-172z" />
<glyph unicode="&#xce;" d="M109 0l26 154h357l223 1259h-357l27 154h901l-26 -154h-357l-223 -1259h356l-26 -154h-901zM535 1694l245 272h234l151 -272h-170l-114 135h-7l-159 -135h-180z" />
<glyph unicode="&#xcf;" d="M109 0l26 154h357l223 1259h-357l27 154h901l-26 -154h-357l-223 -1259h356l-26 -154h-901zM504 1694l47 264h266l-47 -264h-266zM946 1694l47 264h264l-47 -264h-264z" />
<glyph unicode="&#xd0;" d="M27 713l28 157h181l122 697h326q129 0 235.5 -36t187.5 -108.5t126 -189.5t45 -270q0 -155 -27.5 -293.5t-89 -262t-152.5 -213.5t-225.5 -142t-300.5 -52h-401l125 713h-180zM301 164h211q108 0 196.5 35t146.5 89.5t101.5 131.5t67 150t37.5 155.5t18 138.5t4 109 q0 430 -411 430h-152l-94 -533h356l-28 -157h-357z" />
<glyph unicode="&#xd1;" d="M55 0l277 1567h252l293 -1143q18 -72 30 -148q11 -61 11 -65h12l237 1356h172l-276 -1567h-252l-295 1149q-18 70 -29 143q-8 46 -10 64h-12l-238 -1356h-172zM524 1694q8 124 70.5 200t175.5 76q41 0 83 -17.5t70 -38.5t60 -38.5t57 -17.5q79 0 93 120h145 q-11 -126 -71.5 -202t-172.5 -76q-41 0 -82 17t-69 38t-60 38t-57 17q-83 0 -96 -116h-146z" />
<glyph unicode="&#xd2;" d="M113 516q0 73 8 157.5t29.5 190.5t54 205t87 195t123.5 167t168 114.5t216 43.5q477 0 477 -551q0 -72 -8 -155.5t-29 -189.5t-53.5 -205t-87 -195t-123.5 -167.5t-168.5 -115t-216.5 -43.5q-477 0 -477 549zM305 502q0 -197 74 -286t215 -89q83 0 153.5 39t119.5 102 t88 147.5t62.5 171t39 177.5t21 162t5.5 129q0 197 -73.5 286t-214.5 89q-83 0 -154 -39t-120 -102t-88 -147.5t-62.5 -171t-39 -177.5t-21 -162t-5.5 -129zM567 1966h277l96 -272h-166z" />
<glyph unicode="&#xd3;" d="M113 516q0 73 8 157.5t29.5 190.5t54 205t87 195t123.5 167t168 114.5t216 43.5q477 0 477 -551q0 -72 -8 -155.5t-29 -189.5t-53.5 -205t-87 -195t-123.5 -167.5t-168.5 -115t-216.5 -43.5q-477 0 -477 549zM305 502q0 -197 74 -286t215 -89q83 0 153.5 39t119.5 102 t88 147.5t62.5 171t39 177.5t21 162t5.5 129q0 197 -73.5 286t-214.5 89q-83 0 -154 -39t-120 -102t-88 -147.5t-62.5 -171t-39 -177.5t-21 -162t-5.5 -129zM745 1694l142 272h276l-245 -272h-173z" />
<glyph unicode="&#xd4;" d="M113 516q0 73 8 157.5t29.5 190.5t54 205t87 195t123.5 167t168 114.5t216 43.5q477 0 477 -551q0 -72 -8 -155.5t-29 -189.5t-53.5 -205t-87 -195t-123.5 -167.5t-168.5 -115t-216.5 -43.5q-477 0 -477 549zM305 502q0 -197 74 -286t215 -89q83 0 153.5 39t119.5 102 t88 147.5t62.5 171t39 177.5t21 162t5.5 129q0 197 -73.5 286t-214.5 89q-83 0 -154 -39t-120 -102t-88 -147.5t-62.5 -171t-39 -177.5t-21 -162t-5.5 -129zM524 1694l246 272h234l151 -272h-170l-115 135h-6l-159 -135h-181z" />
<glyph unicode="&#xd5;" d="M113 516q0 73 8 157.5t29.5 190.5t54 205t87 195t123.5 167t168 114.5t216 43.5q477 0 477 -551q0 -72 -8 -155.5t-29 -189.5t-53.5 -205t-87 -195t-123.5 -167.5t-168.5 -115t-216.5 -43.5q-477 0 -477 549zM305 502q0 -197 74 -286t215 -89q83 0 153.5 39t119.5 102 t88 147.5t62.5 171t39 177.5t21 162t5.5 129q0 197 -73.5 286t-214.5 89q-83 0 -154 -39t-120 -102t-88 -147.5t-62.5 -171t-39 -177.5t-21 -162t-5.5 -129zM500 1694q8 124 70.5 200t174.5 76q41 0 83 -17.5t70 -38.5t60.5 -38.5t57.5 -17.5q78 0 92 120h145 q-11 -126 -71.5 -202t-171.5 -76q-41 0 -82.5 17t-69 38t-60 38t-57.5 17q-83 0 -96 -116h-145z" />
<glyph unicode="&#xd6;" d="M113 516q0 73 8 157.5t29.5 190.5t54 205t87 195t123.5 167t168 114.5t216 43.5q477 0 477 -551q0 -72 -8 -155.5t-29 -189.5t-53.5 -205t-87 -195t-123.5 -167.5t-168.5 -115t-216.5 -43.5q-477 0 -477 549zM305 502q0 -197 74 -286t215 -89q83 0 153.5 39t119.5 102 t88 147.5t62.5 171t39 177.5t21 162t5.5 129q0 197 -73.5 286t-214.5 89q-83 0 -154 -39t-120 -102t-88 -147.5t-62.5 -171t-39 -177.5t-21 -162t-5.5 -129zM489 1694l48 264h266l-47 -264h-267zM932 1694l47 264h264l-47 -264h-264z" />
<glyph unicode="&#xd7;" d="M197 379l397 338l-268 336l127 108l262 -340l399 353l103 -123l-408 -344l274 -349l-127 -108l-264 350l-401 -346z" />
<glyph unicode="&#xd8;" d="M-41 -51l209 266q-55 126 -55 301q0 73 8 157.5t29.5 190.5t54 205t87 195t123.5 167t168 114.5t216 43.5q221 0 346 -131l129 166h156l-213 -270q59 -121 59 -310q0 -75 -8 -160.5t-29 -192t-53.5 -205.5t-87 -195t-123.5 -166.5t-168.5 -114t-216.5 -43.5 q-226 0 -352 137l-123 -155h-156zM301 496q0 -56 6 -103l725 924q-70 117 -235 117q-83 0 -154 -39.5t-120.5 -103.5t-89.5 -149t-64 -173t-40 -180t-22 -163.5t-6 -129.5zM350 250q69 -127 242 -127q83 0 154 39.5t120.5 103t89 149t63.5 174t40 181t22 165t6 132.5 q0 67 -8 111z" />
<glyph unicode="&#xd9;" d="M133 329.5q-13 99.5 14 231.5l181 1006h190l-178 -1008q-41 -228 25.5 -331t242.5 -103q305 0 363 338l196 1104h187l-195 -1100q-45 -255 -180 -376.5t-381 -121.5q-95 0 -172 19t-142 62t-101.5 111.5t-49.5 168zM580 1966h276l96 -272h-166z" />
<glyph unicode="&#xda;" d="M133 329.5q-13 99.5 14 231.5l181 1006h190l-178 -1008q-41 -228 25.5 -331t242.5 -103q305 0 363 338l196 1104h187l-195 -1100q-45 -255 -180 -376.5t-381 -121.5q-95 0 -172 19t-142 62t-101.5 111.5t-49.5 168zM743 1694l142 272h276l-246 -272h-172z" />
<glyph unicode="&#xdb;" d="M133 329.5q-13 99.5 14 231.5l181 1006h190l-178 -1008q-41 -228 25.5 -331t242.5 -103q305 0 363 338l196 1104h187l-195 -1100q-45 -255 -180 -376.5t-381 -121.5q-95 0 -172 19t-142 62t-101.5 111.5t-49.5 168zM545 1694l246 272h233l152 -272h-170l-115 135h-6 l-160 -135h-180z" />
<glyph unicode="&#xdc;" d="M133 329.5q-13 99.5 14 231.5l181 1006h190l-178 -1008q-41 -228 25.5 -331t242.5 -103q305 0 363 338l196 1104h187l-195 -1100q-45 -255 -180 -376.5t-381 -121.5q-95 0 -172 19t-142 62t-101.5 111.5t-49.5 168zM506 1694l47 264h266l-47 -264h-266zM948 1694l47 264 h265l-48 -264h-264z" />
<glyph unicode="&#xdd;" d="M256 1567h199l252 -721h4l497 721h207l-641 -899l-117 -668h-188l117 662zM741 1694l142 272h276l-246 -272h-172z" />
<glyph unicode="&#xde;" d="M117 0l276 1567h191l-58 -328h279q186 0 299 -99.5t113 -289.5q0 -159 -69 -273.5t-184 -169.5t-262 -55h-333l-62 -352h-190zM397 510h285q167 0 252.5 89.5t85.5 242.5q0 239 -258 239h-264z" />
<glyph unicode="&#xdf;" d="M133 0l213 1196q24 137 93.5 231.5t165.5 137.5t214 43q185 0 291.5 -100.5t106.5 -274.5q0 -156 -87 -253t-227 -128v-10q119 -28 192.5 -118t73.5 -232q0 -100 -35.5 -187.5t-104 -156.5t-180 -108.5t-253.5 -39.5h-104l28 156h88q174 0 278.5 87t104.5 238 q0 132 -75 212.5t-207 80.5h-45l28 156h49q142 0 217.5 82t75.5 217q0 112 -62.5 170.5t-160.5 58.5q-120 0 -192 -71t-101 -226l-205 -1161h-180z" />
<glyph unicode="&#xe0;" d="M158 285q0 137 86 223t233 113q101 17 190 23.5t240 6.5l8 43q49 271 -215 271q-101 0 -167 -47t-76 -140h-178q8 145 126.5 236.5t309.5 91.5q217 0 312.5 -116t62.5 -310l-80 -447q-18 -83 61 -83h51l-24 -150h-68q-186 0 -186 168v8h-6q-116 -192 -344 -192 q-156 0 -246 77.5t-90 223.5zM346 301q0 -91 46 -131.5t140 -40.5q128 0 221 91t121 235l13 65q-276 0 -398 -41q-143 -46 -143 -178zM453 1614h270l98 -367h-157z" />
<glyph unicode="&#xe1;" d="M158 285q0 137 86 223t233 113q101 17 190 23.5t240 6.5l8 43q49 271 -215 271q-101 0 -167 -47t-76 -140h-178q8 145 126.5 236.5t309.5 91.5q217 0 312.5 -116t62.5 -310l-80 -447q-18 -83 61 -83h51l-24 -150h-68q-186 0 -186 168v8h-6q-116 -192 -344 -192 q-156 0 -246 77.5t-90 223.5zM346 301q0 -91 46 -131.5t140 -40.5q128 0 221 91t121 235l13 65q-276 0 -398 -41q-143 -46 -143 -178zM647 1247l189 367h276l-307 -367h-158z" />
<glyph unicode="&#xe2;" d="M158 285q0 137 86 223t233 113q101 17 190 23.5t240 6.5l8 43q49 271 -215 271q-101 0 -167 -47t-76 -140h-178q8 145 126.5 236.5t309.5 91.5q217 0 312.5 -116t62.5 -310l-80 -447q-18 -83 61 -83h51l-24 -150h-68q-186 0 -186 168v8h-6q-116 -192 -344 -192 q-156 0 -246 77.5t-90 223.5zM346 301q0 -91 46 -131.5t140 -40.5q128 0 221 91t121 235l13 65q-276 0 -398 -41q-143 -46 -143 -178zM438 1247l269 367h202l156 -367h-156l-123 201h-2l-180 -201h-166z" />
<glyph unicode="&#xe3;" d="M158 285q0 137 86 223t233 113q101 17 190 23.5t240 6.5l8 43q49 271 -215 271q-101 0 -167 -47t-76 -140h-178q8 145 126.5 236.5t309.5 91.5q217 0 312.5 -116t62.5 -310l-80 -447q-18 -83 61 -83h51l-24 -150h-68q-186 0 -186 168v8h-6q-116 -192 -344 -192 q-156 0 -246 77.5t-90 223.5zM346 301q0 -91 46 -131.5t140 -40.5q128 0 221 91t121 235l13 65q-276 0 -398 -41q-143 -46 -143 -178zM408 1284q8 128 66.5 209.5t168.5 81.5q39 0 82 -19t73 -41.5t64.5 -41.5t59.5 -19q73 0 88 127h147q-29 -289 -235 -289q-44 0 -87 18.5 t-71 41t-61 41t-58 18.5q-75 0 -90 -127h-147z" />
<glyph unicode="&#xe4;" d="M158 285q0 137 86 223t233 113q101 17 190 23.5t240 6.5l8 43q49 271 -215 271q-101 0 -167 -47t-76 -140h-178q8 145 126.5 236.5t309.5 91.5q217 0 312.5 -116t62.5 -310l-80 -447q-18 -83 61 -83h51l-24 -150h-68q-186 0 -186 168v8h-6q-116 -192 -344 -192 q-156 0 -246 77.5t-90 223.5zM346 301q0 -91 46 -131.5t140 -40.5q128 0 221 91t121 235l13 65q-276 0 -398 -41q-143 -46 -143 -178zM406 1282l47 264h266l-47 -264h-266zM848 1282l47 264h264l-47 -264h-264z" />
<glyph unicode="&#xe5;" d="M158 285q0 137 86 223t233 113q101 17 190 23.5t240 6.5l8 43q49 271 -215 271q-101 0 -167 -47t-76 -140h-178q8 145 126.5 236.5t309.5 91.5q217 0 312.5 -116t62.5 -310l-80 -447q-18 -83 61 -83h51l-24 -150h-68q-186 0 -186 168v8h-6q-116 -192 -344 -192 q-156 0 -246 77.5t-90 223.5zM346 301q0 -91 46 -131.5t140 -40.5q128 0 221 91t121 235l13 65q-276 0 -398 -41q-143 -46 -143 -178zM510 1430q0 119 80 201.5t203 82.5q113 0 180 -68.5t67 -175.5q0 -118 -81 -198t-203 -80q-112 1 -179 67t-67 171zM637 1444 q0 -63 34 -102t93 -39q65 0 107 45t42 112q0 62 -35 103t-94 41q-65 0 -106 -46.5t-41 -113.5z" />
<glyph unicode="&#xe6;" d="M-16 274q0 108 42.5 180.5t129.5 120.5q71 40 155 52t262 12l25 113q21 95 -16 153t-127 58q-86 0 -131 -51.5t-52 -131.5h-166q4 144 104 235t251 91q207 0 262 -164h8q37 76 107 120t170 44q87 0 149.5 -36t93 -97.5t39.5 -144t-10 -175.5l-27 -151h-530 q-35 -192 -7 -284.5t140 -92.5q82 0 120.5 43.5t53.5 114.5h172q-24 -148 -119 -227t-227 -79q-232 0 -281 205h-6q-87 -202 -303 -202q-129 0 -205.5 81t-76.5 213zM160 293q0 -83 38 -126.5t105 -43.5t116.5 43t76.5 109.5t41 156.5l12 72q-148 0 -209.5 -9t-99.5 -40 q-80 -63 -80 -162zM745 639h361q34 155 4.5 237t-131.5 82q-95 0 -149 -75t-85 -244z" />
<glyph unicode="&#xe7;" d="M180 428q0 101 19.5 196t63.5 183.5t108.5 154t162 105t216.5 39.5q203 0 309.5 -97t101.5 -255h-178q0 39 -12 74t-38 66t-74.5 49t-113.5 18q-85 0 -152 -35.5t-108 -90t-68 -126.5t-37.5 -138t-10.5 -131q0 -152 66 -234.5t204 -82.5q118 0 193.5 63t93.5 166h188 q-21 -161 -150 -270t-335 -109h-33l-37 -57h45q92 0 139.5 -41t47.5 -115q0 -88 -64.5 -142t-175.5 -54q-104 0 -161.5 43.5t-47.5 116.5h150q1 -23 22 -36.5t51 -13.5q82 0 82 76q0 64 -65 64q-41 0 -68 -27h-141l127 199q-159 36 -239.5 151.5t-80.5 290.5z" />
<glyph unicode="&#xe8;" d="M162 422q0 102 20.5 198t65.5 185t110.5 155.5t163 106t215.5 39.5q84 0 153.5 -22t118.5 -61.5t83 -93t48.5 -117t13.5 -134t-19 -143.5l-11 -46h-776q-2 -23 -2 -63q0 -301 283 -301q100 0 167 43t91 115h190q-42 -144 -161 -227t-300 -83q-118 0 -206.5 34t-142 95.5 t-79.5 141.5t-26 178zM367 635h600q26 153 -37.5 240.5t-198.5 87.5q-80 0 -144 -26t-107 -73t-70.5 -103.5t-42.5 -125.5zM479 1614h271l98 -367h-158z" />
<glyph unicode="&#xe9;" d="M162 422q0 102 20.5 198t65.5 185t110.5 155.5t163 106t215.5 39.5q84 0 153.5 -22t118.5 -61.5t83 -93t48.5 -117t13.5 -134t-19 -143.5l-11 -46h-776q-2 -23 -2 -63q0 -301 283 -301q100 0 167 43t91 115h190q-42 -144 -161 -227t-300 -83q-118 0 -206.5 34t-142 95.5 t-79.5 141.5t-26 178zM367 635h600q26 153 -37.5 240.5t-198.5 87.5q-80 0 -144 -26t-107 -73t-70.5 -103.5t-42.5 -125.5zM653 1247l189 367h276l-307 -367h-158z" />
<glyph unicode="&#xea;" d="M162 422q0 102 20.5 198t65.5 185t110.5 155.5t163 106t215.5 39.5q84 0 153.5 -22t118.5 -61.5t83 -93t48.5 -117t13.5 -134t-19 -143.5l-11 -46h-776q-2 -23 -2 -63q0 -301 283 -301q100 0 167 43t91 115h190q-42 -144 -161 -227t-300 -83q-118 0 -206.5 34t-142 95.5 t-79.5 141.5t-26 178zM367 635h600q26 153 -37.5 240.5t-198.5 87.5q-80 0 -144 -26t-107 -73t-70.5 -103.5t-42.5 -125.5zM449 1247l268 367h203l155 -367h-155l-123 201h-2l-181 -201h-165z" />
<glyph unicode="&#xeb;" d="M162 422q0 102 20.5 198t65.5 185t110.5 155.5t163 106t215.5 39.5q84 0 153.5 -22t118.5 -61.5t83 -93t48.5 -117t13.5 -134t-19 -143.5l-11 -46h-776q-2 -23 -2 -63q0 -301 283 -301q100 0 167 43t91 115h190q-42 -144 -161 -227t-300 -83q-118 0 -206.5 34t-142 95.5 t-79.5 141.5t-26 178zM367 635h600q26 153 -37.5 240.5t-198.5 87.5q-80 0 -144 -26t-107 -73t-70.5 -103.5t-42.5 -125.5zM410 1282l47 264h266l-47 -264h-266zM852 1282l47 264h264l-47 -264h-264z" />
<glyph unicode="&#xec;" d="M92 0l27 154h393l137 778h-334l27 147h514l-164 -925h404l-27 -154h-977zM485 1614h271l98 -367h-158z" />
<glyph unicode="&#xed;" d="M92 0l27 154h393l137 778h-334l27 147h514l-164 -925h404l-27 -154h-977zM707 1247l188 367h276l-307 -367h-157z" />
<glyph unicode="&#xee;" d="M92 0l27 154h393l137 778h-334l27 147h514l-164 -925h404l-27 -154h-977zM414 1247l268 367h203l155 -367h-155l-123 201h-2l-180 -201h-166z" />
<glyph unicode="&#xef;" d="M92 0l27 154h393l137 778h-334l27 147h514l-164 -925h404l-27 -154h-977zM395 1282l47 264h267l-47 -264h-267zM838 1282l47 264h264l-47 -264h-264z" />
<glyph unicode="&#xf0;" d="M145 401q0 106 20.5 205.5t66 190.5t110.5 159t162 108t213 40q67 0 116.5 -14t72.5 -30t59 -48h8q-48 182 -154 303l-315 -109l-33 105l262 90q-81 75 -213 164l154 61q126 -74 223 -168l240 82l37 -102l-197 -68q192 -246 192 -635q0 -123 -21 -234t-66.5 -208 t-112 -168t-162.5 -111.5t-213 -40.5q-118 0 -206 32.5t-140.5 91.5t-77.5 134.5t-25 169.5zM336 401q0 -286 266 -286q86 0 154 40.5t108.5 102t67 141.5t36 151t9.5 140q0 137 -62 205t-196 68q-84 0 -152 -38t-110 -97t-70 -136t-39.5 -149t-11.5 -142z" />
<glyph unicode="&#xf1;" d="M127 0l190 1079h175l-39 -213h4q123 238 370 238q173 0 249 -111.5t40 -320.5l-119 -672h-186l119 668q26 147 -11.5 216.5t-160.5 69.5q-128 0 -220 -104.5t-122 -265.5l-103 -584h-186zM408 1284q8 128 66.5 209.5t168.5 81.5q39 0 82 -19t73 -41.5t64.5 -41.5 t59.5 -19q73 0 88 127h147q-29 -289 -235 -289q-44 0 -87 18.5t-71 41t-61 41t-58 18.5q-75 0 -90 -127h-147z" />
<glyph unicode="&#xf2;" d="M145 403q0 107 20.5 207.5t66 190.5t110.5 157t160 106.5t209 39.5q223 0 338.5 -116t115.5 -314q0 -108 -21 -208.5t-66 -191t-110 -157t-160.5 -105.5t-209.5 -39q-222 0 -337.5 116t-115.5 314zM336 401q0 -131 65 -207.5t203 -76.5q68 0 125.5 26t97 71.5t69 101.5 t46.5 120t25 123.5t8 116.5q0 130 -67 207.5t-203 77.5q-82 0 -147.5 -38t-106 -97t-67.5 -135.5t-37.5 -148.5t-10.5 -141zM500 1614h270l98 -367h-157z" />
<glyph unicode="&#xf3;" d="M145 403q0 107 20.5 207.5t66 190.5t110.5 157t160 106.5t209 39.5q223 0 338.5 -116t115.5 -314q0 -108 -21 -208.5t-66 -191t-110 -157t-160.5 -105.5t-209.5 -39q-222 0 -337.5 116t-115.5 314zM336 401q0 -131 65 -207.5t203 -76.5q68 0 125.5 26t97 71.5t69 101.5 t46.5 120t25 123.5t8 116.5q0 130 -67 207.5t-203 77.5q-82 0 -147.5 -38t-106 -97t-67.5 -135.5t-37.5 -148.5t-10.5 -141zM659 1247l189 367h276l-307 -367h-158z" />
<glyph unicode="&#xf4;" d="M145 403q0 107 20.5 207.5t66 190.5t110.5 157t160 106.5t209 39.5q223 0 338.5 -116t115.5 -314q0 -108 -21 -208.5t-66 -191t-110 -157t-160.5 -105.5t-209.5 -39q-222 0 -337.5 116t-115.5 314zM336 401q0 -131 65 -207.5t203 -76.5q68 0 125.5 26t97 71.5t69 101.5 t46.5 120t25 123.5t8 116.5q0 130 -67 207.5t-203 77.5q-82 0 -147.5 -38t-106 -97t-67.5 -135.5t-37.5 -148.5t-10.5 -141zM451 1247l268 367h203l155 -367h-155l-123 201h-2l-181 -201h-165z" />
<glyph unicode="&#xf5;" d="M145 403q0 107 20.5 207.5t66 190.5t110.5 157t160 106.5t209 39.5q223 0 338.5 -116t115.5 -314q0 -108 -21 -208.5t-66 -191t-110 -157t-160.5 -105.5t-209.5 -39q-222 0 -337.5 116t-115.5 314zM336 401q0 -131 65 -207.5t203 -76.5q68 0 125.5 26t97 71.5t69 101.5 t46.5 120t25 123.5t8 116.5q0 130 -67 207.5t-203 77.5q-82 0 -147.5 -38t-106 -97t-67.5 -135.5t-37.5 -148.5t-10.5 -141zM424 1284q8 128 66.5 209.5t168.5 81.5q39 0 82 -19t73 -41.5t64.5 -41.5t59.5 -19q73 0 88 127h148q-29 -289 -236 -289q-44 0 -86.5 18.5 t-70.5 41t-61 41t-58 18.5q-76 0 -91 -127h-147z" />
<glyph unicode="&#xf6;" d="M145 403q0 107 20.5 207.5t66 190.5t110.5 157t160 106.5t209 39.5q223 0 338.5 -116t115.5 -314q0 -108 -21 -208.5t-66 -191t-110 -157t-160.5 -105.5t-209.5 -39q-222 0 -337.5 116t-115.5 314zM336 401q0 -131 65 -207.5t203 -76.5q68 0 125.5 26t97 71.5t69 101.5 t46.5 120t25 123.5t8 116.5q0 130 -67 207.5t-203 77.5q-82 0 -147.5 -38t-106 -97t-67.5 -135.5t-37.5 -148.5t-10.5 -141zM414 1282l47 264h266l-47 -264h-266zM856 1282l47 264h264l-47 -264h-264z" />
<glyph unicode="&#xf7;" d="M233 651l33 162h930l-33 -162h-930zM477 207l53 276h267l-54 -276h-266zM627 981l53 276h266l-53 -276h-266z" />
<glyph unicode="&#xf8;" d="M43 -55l178 194q-76 107 -76 264q0 107 20.5 207.5t66 190.5t110.5 157t160 106.5t209 39.5q187 0 307 -90l102 112h162l-184 -200q67 -104 67 -252q0 -108 -21 -208.5t-66 -191t-110 -157t-160.5 -105.5t-209.5 -39q-182 0 -295 84l-102 -112h-158zM334 399 q0 -56 16 -118l555 610q-69 72 -198 72q-83 0 -149.5 -38.5t-107 -98t-68 -136.5t-38 -149t-10.5 -142zM414 178q66 -63 188 -63q84 0 151 38.5t108 97.5t68 136.5t37.5 149t10.5 141.5q0 56 -12 102z" />
<glyph unicode="&#xf9;" d="M195 391l120 688h185l-119 -680q-25 -144 13 -209t159 -65q130 0 223.5 112.5t128.5 313.5l92 528h185l-191 -1079h-174l37 201h-8q-20 -33 -39 -59.5t-52 -60t-68.5 -55.5t-86.5 -37.5t-108 -15.5q-173 0 -253 104t-44 314zM492 1614h270l98 -367h-158z" />
<glyph unicode="&#xfa;" d="M195 391l120 688h185l-119 -680q-25 -144 13 -209t159 -65q130 0 223.5 112.5t128.5 313.5l92 528h185l-191 -1079h-174l37 201h-8q-20 -33 -39 -59.5t-52 -60t-68.5 -55.5t-86.5 -37.5t-108 -15.5q-173 0 -253 104t-44 314zM676 1247l188 367h277l-307 -367h-158z" />
<glyph unicode="&#xfb;" d="M195 391l120 688h185l-119 -680q-25 -144 13 -209t159 -65q130 0 223.5 112.5t128.5 313.5l92 528h185l-191 -1079h-174l37 201h-8q-20 -33 -39 -59.5t-52 -60t-68.5 -55.5t-86.5 -37.5t-108 -15.5q-173 0 -253 104t-44 314zM465 1247l268 367h203l156 -367h-156 l-123 201h-2l-180 -201h-166z" />
<glyph unicode="&#xfc;" d="M195 391l120 688h185l-119 -680q-25 -144 13 -209t159 -65q130 0 223.5 112.5t128.5 313.5l92 528h185l-191 -1079h-174l37 201h-8q-20 -33 -39 -59.5t-52 -60t-68.5 -55.5t-86.5 -37.5t-108 -15.5q-173 0 -253 104t-44 314zM428 1282l47 264h266l-47 -264h-266z M870 1282l48 264h264l-47 -264h-265z" />
<glyph unicode="&#xfd;" d="M-82 -360l43 145q101 -37 197 -37q79 0 133.5 35t105.5 117l64 100l-242 1079h184l150 -696q18 -91 22 -125q1 -10 3.5 -28.5t3.5 -24.5h8q11 30 24 53q24 56 64 129l377 692h196l-694 -1226q-83 -142 -179.5 -200.5t-234.5 -58.5q-115 0 -225 46zM625 1247l188 367h277 l-308 -367h-157z" />
<glyph unicode="&#xfe;" d="M35 -385l352 1999h182l-120 -699h4q126 187 352 187q181 0 283 -118.5t102 -321.5q0 -104 -22.5 -203.5t-68 -187.5t-109 -154.5t-152 -105t-191.5 -38.5q-250 0 -325 191h-7l-96 -549h-184zM363.5 383.5q0.5 -56.5 18.5 -105t48 -85t82 -57.5t119 -21q78 0 142 36 t105 93.5t69 131.5t40 146.5t12 143.5q0 136 -63.5 214t-192.5 78q-79 0 -142 -29t-104.5 -79.5t-67 -108.5t-38.5 -127l-20 -114q-8 -60 -7.5 -116.5z" />
<glyph unicode="&#xff;" d="M-84 -360l43 145q101 -37 197 -37q79 0 133.5 35t105.5 117l64 100l-242 1079h184l150 -696q18 -91 22 -125q1 -10 3.5 -28.5t3.5 -24.5h8q11 30 24 53q24 56 64 129l377 692h196l-694 -1226q-83 -142 -179.5 -200.5t-234.5 -58.5q-115 0 -225 46zM399 1282l47 264h267 l-47 -264h-267zM842 1282l47 264h264l-47 -264h-264z" />
<glyph unicode="&#x152;" d="M66 543q0 26 1.5 61t9.5 106.5t21.5 141.5t40.5 157t63 163t93 150.5t126.5 127t167.5 85t212 32.5h665l-28 -166h-455l-94 -529h389l-29 -161h-389l-96 -545h465l-29 -166h-649q-226 0 -355.5 132t-129.5 411zM260 502q0 -78 14.5 -137t49.5 -107t99.5 -73t156.5 -25 l219 1247h-25q-80 0 -148.5 -29t-117.5 -75.5t-88.5 -112.5t-65 -133.5t-44 -145t-28 -139t-15 -124.5t-6.5 -93.5t-1 -52.5z" />
<glyph unicode="&#x153;" d="M25 287q0 44 4 100t16.5 137t32 158t54 155.5t79 136.5t111 95t145.5 37q198 0 254 -172h6q39 78 111.5 125t173.5 47q71 0 125 -23.5t86.5 -65.5t51.5 -99t19 -123.5t-10 -139.5l-27 -153h-530q-36 -189 -7 -283t146 -94q136 0 168 158h172q-24 -148 -119 -227t-227 -79 q-103 0 -168.5 43t-101.5 140h-12q-48 -87 -114.5 -133.5t-166.5 -46.5q-128 0 -200 76.5t-72 230.5zM203 293q0 -96 27 -136t85 -40q54 0 100 44.5t74.5 115.5t50.5 150t33 157.5t16 128.5t5 71q0 97 -28.5 139t-90.5 42q-66 0 -117.5 -64.5t-79.5 -152.5t-46 -191 t-23.5 -168t-5.5 -96zM752 639h358q35 154 6.5 236.5t-133.5 82.5q-96 0 -148 -74t-83 -245z" />
<glyph unicode="&#x178;" d="M256 1567h199l252 -721h4l497 721h207l-641 -899l-117 -668h-188l117 662zM487 1694l48 264h266l-47 -264h-267zM930 1694l47 264h264l-47 -264h-264z" />
<glyph unicode="&#x2c6;" d="M451 1247l268 367h203l155 -367h-155l-123 201h-2l-181 -201h-165z" />
<glyph unicode="&#x2dc;" d="M420 1270q8 128 66.5 209.5t168.5 81.5q39 0 82 -19t73 -41.5t64.5 -41.5t59.5 -19q73 0 88 127h147q-29 -289 -235 -289q-44 0 -87 18.5t-71 41t-61 41t-58 18.5q-75 0 -90 -127h-147z" />
<glyph unicode="&#x2000;" horiz-adv-x="1077" />
<glyph unicode="&#x2001;" horiz-adv-x="2154" />
<glyph unicode="&#x2002;" horiz-adv-x="1077" />
<glyph unicode="&#x2003;" horiz-adv-x="2154" />
<glyph unicode="&#x2004;" horiz-adv-x="718" />
<glyph unicode="&#x2005;" horiz-adv-x="538" />
<glyph unicode="&#x2006;" horiz-adv-x="359" />
<glyph unicode="&#x2007;" horiz-adv-x="359" />
<glyph unicode="&#x2008;" horiz-adv-x="269" />
<glyph unicode="&#x2009;" horiz-adv-x="430" />
<glyph unicode="&#x200a;" horiz-adv-x="119" />
<glyph unicode="&#x2010;" d="M348 580l33 182h610l-33 -182h-610z" />
<glyph unicode="&#x2011;" d="M348 580l33 182h610l-33 -182h-610z" />
<glyph unicode="&#x2012;" d="M348 580l33 182h610l-33 -182h-610z" />
<glyph unicode="&#x2013;" d="M283 592l28 158h738l-29 -158h-737z" />
<glyph unicode="&#x2014;" d="M23 592l28 158h1270l-29 -158h-1269z" />
<glyph unicode="&#x2018;" d="M498 1032l338 535h161l-204 -535h-295z" />
<glyph unicode="&#x2019;" d="M539 1032l204 535h295l-338 -535h-161z" />
<glyph unicode="&#x201a;" d="M346 -260l205 534h295l-338 -534h-162z" />
<glyph unicode="&#x201c;" d="M324 1032l338 535h161l-205 -535h-294zM735 1032l338 535h162l-205 -535h-295z" />
<glyph unicode="&#x201d;" d="M344 1032l205 535h295l-338 -535h-162zM756 1032l205 535h294l-337 -535h-162z" />
<glyph unicode="&#x201e;" d="M133 -260l205 534h295l-338 -534h-162zM541 -260l204 534h295l-338 -534h-161z" />
<glyph unicode="&#x2022;" d="M414 631q0 105 71 175.5t170 70.5q108 0 175 -68.5t67 -177.5q0 -110 -70 -178t-174 -68q-105 0 -172 67.5t-67 178.5z" />
<glyph unicode="&#x2026;" d="M-18 0l49 274h274l-49 -274h-274zM422 0l49 274h274l-49 -274h-274zM862 0l49 274h275l-49 -274h-275z" />
<glyph unicode="&#x202f;" horiz-adv-x="430" />
<glyph unicode="&#x2039;" d="M336 539l444 411h240l-440 -420l321 -413h-223z" />
<glyph unicode="&#x203a;" d="M285 117l448 430l-317 403h223l338 -411l-453 -422h-239z" />
<glyph unicode="&#x205f;" horiz-adv-x="538" />
<glyph unicode="&#x20ac;" d="M72 514l26 145h158q7 57 18 113q3 13 8.5 37t8.5 37h-160l25 145h172q86 281 225.5 415t359.5 134q196 0 302 -129t77 -330h-178q14 155 -38 231.5t-179 76.5q-147 0 -235 -97t-148 -301h442l-24 -145h-455q-11 -51 -18 -92q-2 -10 -8 -43.5t-9 -51.5h457l-27 -145h-446 q-12 -205 51.5 -299t200.5 -94q120 0 208.5 86.5t127.5 216.5h180q-56 -210 -190 -333.5t-334 -123.5q-450 0 -428 547h-170z" />
<glyph unicode="&#x2122;" d="M188 1466l17 101h444l-16 -101h-168l-100 -567h-113l100 567h-164zM625 899l116 668h166l49 -416q2 -31 2 -76v-31h7l10 31q9 28 31 76l194 416h172l-117 -668h-114l92 522h-8q-1 -3 -6.5 -17t-8.5 -22q-15 -36 -43 -98l-182 -385h-96l-49 383q-9 59 -9 100v39h-8 l-92 -522h-106z" />
<glyph unicode="&#xfb01;" horiz-adv-x="2621" d="M211 926l27 153h387l39 215q17 89 53.5 152.5t91.5 100.5t122 54t152 17q134 0 238 -39l-25 -145q-105 30 -215 30q-105 0 -161.5 -47.5t-75.5 -152.5l-33 -185h422l-27 -153h-422l-163 -926h-187l164 926h-387zM1403 0l27 154h393l137 778h-334l27 147h514l-164 -925 h403l-26 -154h-977zM1952 1282l49 274h274l-49 -274h-274z" />
<glyph unicode="&#xfb02;" horiz-adv-x="2621" d="M211 926l27 153h387l39 215q17 89 53.5 152.5t91.5 100.5t122 54t152 17q134 0 238 -39l-25 -145q-105 30 -215 30q-105 0 -161.5 -47.5t-75.5 -152.5l-33 -185h422l-27 -153h-422l-163 -926h-187l164 926h-387zM1403 0l27 154h393l231 1312h-354l26 148h537l-258 -1460 h401l-26 -154h-977z" />
</font>
</defs>
</svg>
