<?xml version="1.0" encoding="utf-8"?>
<!-- Generator: Adobe Illustrator 19.2.1, SVG Export Plug-In . SVG Version: 6.00 Build 0)  -->
<svg version="1.1" id="Layer_1" xmlns="http://www.w3.org/2000/svg" xmlns:xlink="http://www.w3.org/1999/xlink" x="0px" y="0px"
	 viewBox="0 0 189.6 189.6" style="enable-background:new 0 0 189.6 189.6;" xml:space="preserve">
<metadata><?xpacket begin="﻿" id="W5M0MpCehiHzreSzNTczkc9d"?>
<x:xmpmeta xmlns:x="adobe:ns:meta/" x:xmptk="Adobe XMP Core 5.6-c111 79.158366, 2015/09/25-01:12:00        ">
   <rdf:RDF xmlns:rdf="http://www.w3.org/1999/02/22-rdf-syntax-ns#">
      <rdf:Description rdf:about=""/>
   </rdf:RDF>
</x:xmpmeta>
                                                                                                    
                                                                                                    
                                                                                                    
                                                                                                    
                                                                                                    
                                                                                                    
                                                                                                    
                                                                                                    
                                                                                                    
                                                                                                    
                                                                                                    
                                                                                                    
                                                                                                    
                                                                                                    
                                                                                                    
                                                                                                    
                                                                                                    
                                                                                                    
                                                                                                    
                                                                                                    
                           
<?xpacket end="w"?></metadata>
<style type="text/css">
	.st0{fill:#FFFFFF;}
</style>
<g>
	<path class="st0" d="M189.6,189.6H0V0h189.6V189.6z M5.3,184.3h179V5.3H5.3V184.3z"/>
</g>
<g>
	<g>
		<path class="st0" d="M37.7,76.3H43v23.2h12.1v4H37.7V76.3z"/>
		<path class="st0" d="M68.2,100.4l6.3-24.1h7.8l6.3,24.1v3h-4.7L82,95.6h-7.7l-1.9,7.9h-4.2V100.4z M75.2,91.6H81l-2.5-10.7h-0.7
			L75.2,91.6z"/>
		<path class="st0" d="M101.8,76.3h6.1l7.3,18.4h0.7V76.3h5v27.1h-6.1L107.4,85h-0.7v18.4h-5V76.3z"/>
		<path class="st0" d="M135.4,76.3h9.6c1.3,0,2.4,0.2,3.4,0.5c1,0.3,1.9,0.7,2.6,1.2c0.7,0.5,1.4,1.1,1.9,1.7
			c0.5,0.6,0.9,1.3,1.2,1.9v16.4c-0.3,0.6-0.7,1.3-1.2,1.9c-0.5,0.6-1.1,1.2-1.9,1.7c-0.8,0.5-1.6,0.9-2.6,1.2
			c-1,0.3-2.1,0.5-3.4,0.5h-9.6V76.3z M144,99.5c1.2,0,2.3-0.2,3.1-0.7c0.8-0.5,1.4-1.1,1.7-1.9v-14c-0.3-0.7-0.9-1.4-1.7-1.9
			c-0.8-0.5-1.8-0.7-3.1-0.7h-3.3v19.2H144z"/>
	</g>
	<g>
		<path class="st0" d="M35.3,122.9h6.8l3.2,10.9h0.5l3-10.9h6.7V150h-5v-19.5H50l-3.3,10.9h-2.6l-3.3-10.9h-0.5V150h-4.9V122.9z"/>
		<path class="st0" d="M68.2,147l6.3-24.1h7.8l6.3,24.1v3h-4.7l-1.9-7.9h-7.7l-1.9,7.9h-4.2V147z M75.2,138.1H81l-2.5-10.7h-0.7
			L75.2,138.1z"/>
		<path class="st0" d="M102.2,122.9h10.8c1.7,0,3.3,0.4,4.7,1.2c1.4,0.8,2.5,1.9,3.3,3.4v7.6c-0.5,1-1.2,1.8-2.1,2.5
			c-0.8,0.7-1.8,1.2-2.9,1.6l5.2,7.9v3h-4.1l-6.3-10.4h-3.3V150h-5.3V122.9z M111.9,135.8c1,0,1.8-0.2,2.5-0.6s1.2-0.9,1.6-1.6v-4.6
			c-0.4-0.7-0.9-1.3-1.7-1.6c-0.7-0.4-1.5-0.6-2.4-0.6h-4.3v9H111.9z"/>
		<path class="st0" d="M135.5,122.9h5.3v10.5h0.6l8.9-10.5h3.8v3l-7.8,8.8l8.1,12.3v3h-4.1l-7.4-11.5l-2,2.3v9.2h-5.3V122.9z"/>
	</g>
	<g>
		<path class="st0" d="M37.7,43.2c0.2-0.4,0.4-0.8,0.7-1.2c0.3-0.4,0.7-0.8,1.2-1.2c0.5-0.4,1.1-0.6,1.8-0.9
			c0.7-0.2,1.5-0.3,2.4-0.3c0.9,0,1.7,0.1,2.4,0.3c0.7,0.2,1.3,0.5,1.8,0.8c0.5,0.3,0.9,0.7,1.2,1.1c0.3,0.4,0.6,0.8,0.7,1.1v3.3
			h-3.1v-2.4c-0.2-0.5-0.5-0.9-1-1.2c-0.5-0.3-1.1-0.5-1.9-0.5c-0.8,0-1.4,0.2-1.9,0.5c-0.5,0.3-0.8,0.8-1,1.2v8.8
			c0.2,0.5,0.5,0.9,1,1.2c0.5,0.3,1.1,0.5,1.9,0.5c0.8,0,1.4-0.2,1.9-0.5c0.5-0.3,0.8-0.8,1-1.2V50h3.1v3.5
			c-0.2,0.3-0.4,0.7-0.7,1.1c-0.3,0.4-0.7,0.8-1.2,1.1c-0.5,0.3-1.1,0.6-1.8,0.8c-0.7,0.2-1.5,0.3-2.4,0.3c-0.9,0-1.7-0.1-2.4-0.3
			c-0.7-0.2-1.3-0.5-1.8-0.9c-0.5-0.4-0.9-0.7-1.2-1.2c-0.3-0.4-0.6-0.8-0.7-1.2V43.2z"/>
		<path class="st0" d="M55.3,40h3.3v6.8h4.9V40h3.3v16.6h-3.3v-7.4h-4.9v7.4h-3.3V40z"/>
		<path class="st0" d="M73.5,40H84v2.4h-7.2v4.4h6.7v2.4h-6.7v4.8h7.4v2.4H73.5V40z"/>
		<path class="st0" d="M91,40h3.3v14.2h7.4v2.4H91V40z"/>
		<path class="st0" d="M107.2,51.3h3.1v1.6c0.2,0.3,0.5,0.7,1,1c0.5,0.3,1.1,0.5,1.8,0.5c0.8,0,1.4-0.2,1.8-0.5c0.5-0.3,0.8-0.7,1-1
			V51c-0.2-0.3-0.4-0.6-0.7-0.8c-0.3-0.2-0.8-0.4-1.6-0.6l-1.4-0.3c-0.9-0.2-1.6-0.4-2.2-0.7c-0.6-0.2-1.1-0.5-1.4-0.7
			c-0.4-0.3-0.7-0.5-0.9-0.8c-0.2-0.3-0.4-0.5-0.6-0.8v-3.6c0.2-0.3,0.4-0.6,0.7-0.9c0.3-0.4,0.7-0.7,1.2-1c0.5-0.3,1-0.6,1.7-0.8
			c0.7-0.2,1.5-0.3,2.4-0.3c0.9,0,1.7,0.1,2.4,0.3c0.7,0.2,1.2,0.5,1.7,0.8c0.5,0.3,0.9,0.7,1.2,1c0.3,0.4,0.5,0.7,0.7,0.9V45h-3.1
			v-1.4c-0.2-0.3-0.5-0.7-1-1c-0.5-0.3-1.1-0.5-1.8-0.5c-0.4,0-0.7,0-1,0.1c-0.3,0.1-0.6,0.2-0.8,0.4c-0.2,0.1-0.4,0.3-0.6,0.5
			c-0.2,0.2-0.3,0.3-0.4,0.5v1.5c0.2,0.3,0.4,0.6,0.7,0.8c0.3,0.2,0.9,0.4,1.6,0.6l1.4,0.3c0.9,0.2,1.6,0.4,2.1,0.7
			c0.6,0.2,1,0.5,1.4,0.7c0.4,0.3,0.7,0.5,0.9,0.8c0.2,0.3,0.4,0.5,0.5,0.8v4c-0.1,0.3-0.4,0.6-0.7,0.9c-0.3,0.4-0.7,0.7-1.2,1
			c-0.5,0.3-1,0.6-1.7,0.8c-0.7,0.2-1.5,0.3-2.4,0.3c-0.9,0-1.7-0.1-2.4-0.3c-0.7-0.2-1.2-0.5-1.7-0.8c-0.5-0.3-0.9-0.7-1.2-1
			s-0.5-0.7-0.7-1V51.3z"/>
		<path class="st0" d="M125.5,40H136v2.4h-7.2v4.4h6.7v2.4h-6.7v4.8h7.4v2.4h-10.6V40z"/>
		<path class="st0" d="M141.5,54.7l3.8-14.8h4.8l3.9,14.8v1.9h-2.9l-1.1-4.8h-4.7l-1.2,4.8h-2.6V54.7z M145.9,49.3h3.6l-1.5-6.5
			h-0.4L145.9,49.3z"/>
	</g>
</g>
</svg>
