<?xml version="1.0" standalone="no"?>
<!DOCTYPE svg PUBLIC "-//W3C//DTD SVG 1.1//EN" "http://www.w3.org/Graphics/SVG/1.1/DTD/svg11.dtd" >
<svg xmlns="http://www.w3.org/2000/svg">
<metadata></metadata>
<defs>
<font id="atlas_typewriter_regularRg" horiz-adv-x="1310" >
<font-face units-per-em="2048" ascent="1663" descent="-385" />
<missing-glyph horiz-adv-x="500" />
<glyph horiz-adv-x="0" />
<glyph horiz-adv-x="682" />
<glyph horiz-adv-x="0" />
<glyph horiz-adv-x="0" />
<glyph unicode="&#xd;" horiz-adv-x="1024" />
<glyph unicode=" " />
<glyph unicode="!" d="M518 0v274h275v-274h-275zM553 1614h205l-29 -1129h-149z" />
<glyph unicode="&#x22;" d="M291 1567h282l-67 -555h-148zM698 1567h283l-68 -555h-147z" />
<glyph unicode="#" d="M104 610v146h238l45 307h-221v145h244l51 357h149l-51 -357h275l51 357h149l-51 -357h221v-145h-243l-46 -307h228v-146h-248l-59 -407h-150l59 407h-274l-59 -407h-150l60 407h-218zM492 756h274l45 307h-274z" />
<glyph unicode="$" d="M123 434h180q43 -262 285 -291v557l-35 7q-190 36 -284.5 138t-94.5 285q0 159 115 271t299 129v166h135v-166q198 -17 307.5 -129t120.5 -295h-178q-29 243 -250 278v-534l57 -10q398 -70 398 -412q0 -195 -115.5 -310t-339.5 -132v-224h-135v224q-209 17 -322 128 t-143 320zM354 1130q0 -113 55.5 -173.5t165.5 -79.5l13 -3v510q-118 -17 -176 -84.5t-58 -169.5zM723 143h12q260 34 260 269q0 215 -250 260l-22 4v-533z" />
<glyph unicode="%" d="M63 1231q0 169 86 259.5t218 90.5t217.5 -90.5t85.5 -259.5q0 -168 -86 -260t-217 -92q-135 0 -219.5 90.5t-84.5 261.5zM131 0l899 1585h158l-899 -1585h-158zM217 1231q0 -222 150 -225q72 0 110.5 57.5t38.5 167.5q0 223 -149 223q-150 3 -150 -223zM647 338 q0 169 86 259.5t217 90.5q134 0 218.5 -90t84.5 -260q0 -169 -85 -260.5t-218 -91.5t-218 91.5t-85 260.5zM801 338q0 -225 147 -225q73 0 112.5 58t39.5 167q0 111 -39.5 167t-112.5 56q-147 0 -147 -223z" />
<glyph unicode="&#x26;" d="M86 391q0 102 35.5 181.5t99.5 142t176 137.5q-92 128 -134 217.5t-42 196.5q0 156 102 252t267 96q169 0 267.5 -93.5t98.5 -242.5q0 -69 -21 -129.5t-65 -115.5t-100 -103.5t-137 -102.5l297 -415l12 -17q45 131 74 387h153q-21 -325 -125 -522q55 -65 95 -82.5 t118 -17.5v-160h-92q-71 0 -120 25.5t-107 89.5q-145 -148 -373 -148q-227 0 -353 119t-126 305zM274 410q0 -138 83 -216.5t212 -78.5q179 0 279 114q-28 40 -33 45l-332 459l-12 -8q-116 -81 -156.5 -148.5t-40.5 -166.5zM395 1276q0 -33 6 -64t11.5 -51t25.5 -54t28 -47 t40 -58.5t43 -61.5q71 54 103.5 81.5t67.5 69.5t47.5 85t12.5 102q0 90 -51 141t-137 51q-91 0 -144 -55.5t-53 -138.5z" />
<glyph unicode="'" d="M541 1567h282l-67 -555h-148z" />
<glyph unicode="(" d="M422 674q0 300 104.5 527t296.5 413h191q-410 -421 -410 -940q0 -147 33.5 -286.5t92.5 -257.5t129 -214.5t155 -181.5h-191q-189 184 -295 413t-106 527z" />
<glyph unicode=")" d="M297 -266q410 432 410 940q0 147 -33.5 286.5t-92.5 257.5t-129 214.5t-155 181.5h190q189 -184 295.5 -413t106.5 -527q0 -300 -105 -527t-297 -413h-190z" />
<glyph unicode="*" d="M135 1122l68 197l385 -186l6 2l-43 432h207l-43 -432l6 -2l383 186l70 -197l-410 -108v-6l283 -326l-166 -119l-224 367h-4l-225 -367l-166 119l283 326v6z" />
<glyph unicode="+" d="M184 653v158h387v391h166v-391h389v-158h-389v-393h-166v393h-387z" />
<glyph unicode="," d="M442 -260l111 534h295l-244 -534h-162z" />
<glyph unicode="-" d="M350 580v182h611v-182h-611z" />
<glyph unicode="." d="M518 0v274h275v-274h-275z" />
<glyph unicode="/" d="M80 -266l930 1880h170l-930 -1880h-170z" />
<glyph unicode="0" d="M137 754q0 397 132.5 590.5t383.5 193.5q252 0 386.5 -194t134.5 -590q0 -785 -521 -785q-516 0 -516 785zM334 750q0 -627 319 -627q157 0 240.5 159t83.5 468q0 632 -324 632q-319 0 -319 -632z" />
<glyph unicode="1" d="M217 0v154h373v964h-373v144h137q138 0 203 65q33 36 48.5 81.5t15.5 115.5h153v-1370h379v-154h-936z" />
<glyph unicode="2" d="M172 0v143l520 512q75 75 118 123.5t82 106t55 112.5t16 119q0 117 -78 193.5t-201 76.5q-154 0 -235.5 -97t-77.5 -277h-178q-7 237 128 382.5t361 145.5q116 0 208 -35.5t147 -95t83.5 -132t28.5 -151.5q0 -146 -71 -271t-257 -304l-235 -225q-65 -62 -133 -125 q-27 -27 -35 -33v-4h751v-164h-997z" />
<glyph unicode="3" d="M150 426h176q17 -150 107 -226.5t233 -76.5q134 0 224.5 80.5t90.5 212.5q0 130 -79 202t-230 72h-131v162h131q131 0 201.5 73t70.5 197q0 120 -77 191t-201 71q-145 0 -227.5 -75t-86.5 -226h-178q2 92 33.5 172.5t90 145t153.5 102t215 37.5q212 0 337 -110t125 -283 q0 -257 -270 -359v-4q136 -32 221.5 -126.5t85.5 -254.5q0 -89 -35 -167.5t-99.5 -138t-163 -94t-218.5 -34.5q-122 0 -217.5 36.5t-155 100.5t-91 144.5t-35.5 175.5z" />
<glyph unicode="4" d="M113 373v143l643 1002h233v-990h199v-155h-199v-373h-176v373h-700zM295 526h518v809h-8q-11 -25 -21 -43q-21 -43 -67 -116z" />
<glyph unicode="5" d="M145 401h179q39 -283 321 -280q66 0 125 22t107 65t76 114.5t28 162.5q0 169 -93 265t-235 96q-199 0 -288 -137h-166l45 809h831v-162h-669l-25 -482h4q109 125 303 125q95 0 179.5 -30t153 -89.5t108.5 -160t40 -230.5q0 -238 -141.5 -379t-382.5 -141q-102 0 -184 24 t-137 64.5t-93.5 97t-58.5 117t-27 129.5z" />
<glyph unicode="6" d="M137 672q0 435 138.5 651.5t424.5 216.5q191 0 305.5 -93t141.5 -257h-186q-51 201 -269 201q-99 0 -170 -43t-112.5 -127t-61.5 -195.5t-22 -261.5h6q54 97 155 151t230 54q68 0 132.5 -16.5t124.5 -54t104.5 -92t71 -136.5t26.5 -181q0 -230 -137 -375t-371 -145 q-88 0 -161 18t-143.5 66t-119 125t-78 203t-29.5 291zM350 473q0 -88 27 -156.5t72.5 -109.5t101.5 -61.5t119 -20.5q60 0 115 20.5t100 61.5t71.5 109.5t26.5 156.5q0 161 -89 249.5t-224 88.5q-146 0 -233 -85t-87 -253z" />
<glyph unicode="7" d="M145 1354v164h1022v-121l-659 -1397h-195l641 1354h-809z" />
<glyph unicode="8" d="M133 395q0 66 18.5 123.5t48 98t68.5 73t77.5 51t78.5 29.5v4q-101 31 -174.5 130t-73.5 229q0 176 128.5 291.5t350.5 115.5q221 0 351.5 -115.5t130.5 -291.5q0 -133 -73 -230.5t-175 -128.5v-4q53 -13 101.5 -41t92.5 -72t70.5 -112t26.5 -150q0 -189 -137 -306.5 t-388 -121.5q-248 -4 -385 115.5t-137 312.5zM324 403q0 -73 27 -130t74 -90.5t105 -50.5t125 -17q147 0 241.5 72t94.5 216q0 73 -27 130t-74.5 91.5t-107 52t-127.5 17.5q-140 0 -235.5 -74.5t-95.5 -216.5zM367 1116q0 -132 82.5 -204t205.5 -72q76 0 140 29.5t106.5 94 t42.5 152.5q0 134 -83 205.5t-206 71.5t-205.5 -71.5t-82.5 -205.5z" />
<glyph unicode="9" d="M141 1044q0 215 139.5 355.5t358.5 140.5q248 0 386 -171t138 -519q0 -240 -35.5 -411t-107 -273.5t-169.5 -149.5t-230 -47q-81 0 -153.5 21t-135 64.5t-105.5 117t-59 170.5h176q58 -223 295 -223q173 0 255.5 151t82.5 484h-8q-50 -88 -143 -135.5t-220 -47.5 q-66 0 -129.5 16t-125 53t-108 90.5t-74.5 134.5t-28 179zM330 1049q0 -153 88 -239.5t221 -86.5q141 0 229 86t88 240q0 80 -27 145t-72.5 106t-102.5 62.5t-119 21.5q-59 0 -112 -19.5t-97 -58.5t-70 -105.5t-26 -151.5z" />
<glyph unicode=":" d="M518 0v274h275v-274h-275zM518 805v274h275v-274h-275z" />
<glyph unicode=";" d="M424 -260l111 534h294l-243 -534h-162zM553 805v274h274v-274h-274z" />
<glyph unicode="&#x3c;" d="M160 618v127l958 472v-179l-735 -356l735 -356v-179z" />
<glyph unicode="=" d="M184 469v156h942v-156h-942zM184 840v155h942v-155h-942z" />
<glyph unicode="&#x3e;" d="M190 147v179l736 356l-736 356v179l959 -472v-127z" />
<glyph unicode="?" d="M164 1104q-7 237 128 382.5t359 145.5q94 0 171.5 -23.5t131 -62.5t90 -91.5t53.5 -110.5t17 -119q0 -62 -13.5 -116.5t-32.5 -93.5t-52 -79t-59 -64.5t-66 -58.5l-76 -65q-63 -58 -75.5 -83.5t-12.5 -99.5v-100h-168v131q0 71 12.5 110.5t38 68t97.5 91.5l86 76 q71 58 105 120.5t34 145.5q0 118 -75.5 191.5t-201.5 73.5q-155 0 -238 -95t-79 -274h-174zM506 0v274h274v-274h-274z" />
<glyph unicode="@" d="M125 504v135q0 131 6.5 219.5t28.5 167.5q105 371 516 371q129 0 228 -42.5t159.5 -117.5t91.5 -174t31 -217v-668h-152v133h-4q-64 -155 -260 -155q-136 0 -222.5 99.5t-86.5 307.5q0 198 86.5 305t238.5 107q166 0 240 -133h12q0 92 -18 165t-58 133.5t-112.5 94 t-173.5 33.5q-171 0 -260 -79t-119 -220q-3 -15 -6 -32t-5 -31t-3.5 -34t-2.5 -32t-2 -35.5t-1.5 -33t-0.5 -36v-34v-37v-35.5v-78q0 -92 4.5 -163.5t16.5 -144t33 -125t55 -99.5t80.5 -76t111 -45.5t146.5 -16.5q78 0 128.5 8t115.5 27l-6 -127q-111 -43 -248 -43 q-164 0 -276.5 45t-181.5 141t-99.5 235t-30.5 337zM639 569q0 -87 15 -147t55.5 -98.5t107.5 -38.5q90 0 147.5 67t57.5 168v78q0 112 -55.5 181t-135.5 69q-192 0 -192 -279z" />
<glyph unicode="A" d="M72 0l456 1567h250l461 -1567h-205l-131 467h-510l-129 -467h-192zM436 621h424l-139 501q-8 27 -22 88.5t-19 79.5q-4 20 -23 94h-16q0 -9 -66 -262z" />
<glyph unicode="B" d="M184 0v1567h514q216 0 340.5 -97t124.5 -284q0 -281 -274 -346v-4q150 -26 236.5 -130.5t86.5 -252.5q0 -103 -28.5 -182t-77.5 -130t-121 -83t-153.5 -45t-180.5 -13h-467zM375 152h278q181 0 272 71.5t91 241.5q0 151 -94 218t-285 67h-262v-598zM375 899h289 q65 0 117.5 13.5t95.5 43t66.5 82.5t23.5 127q0 126 -72.5 188t-206.5 62h-313v-516z" />
<glyph unicode="C" d="M115 778q0 402 151 606.5t430 204.5q98 0 183 -29t154.5 -87t115 -154t57.5 -221h-192q-7 51 -21 96.5t-40 90.5t-60 77.5t-85.5 53t-113.5 20.5q-201 0 -291 -158.5t-90 -499.5q0 -344 89.5 -499.5t289.5 -155.5q83 0 145 31t98 85t55.5 115t25.5 133h186 q-12 -150 -73 -266t-174.5 -185t-264.5 -69q-141 0 -246 45.5t-179.5 141.5t-112 252t-37.5 372z" />
<glyph unicode="D" d="M154 0v1567h338q132 0 240 -24t200 -80t154.5 -143t97.5 -217.5t35 -299.5q0 -210 -49.5 -365.5t-143.5 -250.5t-221.5 -141t-290.5 -46h-360zM344 166h166q171 0 281.5 61t169.5 202t59 368q0 318 -127 463t-371 145h-178v-1239z" />
<glyph unicode="E" d="M215 0v1567h940v-166h-749v-529h643v-161h-643v-545h759v-166h-950z" />
<glyph unicode="F" d="M256 0v1567h956v-166h-766v-572h682v-161h-682v-668h-190z" />
<glyph unicode="G" d="M109 776q0 406 149.5 609.5t429.5 203.5q211 0 348.5 -125t149.5 -313h-193q-13 119 -93.5 202t-213.5 83q-205 0 -292 -165t-87 -493q0 -337 87.5 -498t281.5 -161q77 0 138.5 25.5t99.5 66t63 93t35 102.5t10 100v129h-373v156h547v-791h-166v188h-8 q-47 -95 -140.5 -157t-234.5 -62q-130 0 -227.5 44.5t-168 139.5t-106.5 251t-36 372z" />
<glyph unicode="H" d="M154 0v1567h190v-697h623v697h190v-1567h-190v709h-623v-709h-190z" />
<glyph unicode="I" d="M205 0v154h356v1259h-356v154h901v-154h-356v-1259h356v-154h-901z" />
<glyph unicode="J" d="M219 16v172q156 -38 320 -38q157 0 232 77.5t75 218.5v959h-533v162h723v-1133q0 -217 -134.5 -335.5t-360.5 -118.5q-158 0 -322 36z" />
<glyph unicode="K" d="M195 0v1567h188v-756l610 756h213l-536 -662l569 -905h-225l-475 756l-156 -191v-565h-188z" />
<glyph unicode="L" d="M256 0v1567h190v-1401h779v-166h-969z" />
<glyph unicode="M" d="M154 0v1567h268l180 -746q19 -86 37 -194q9 -63 10 -78h17q5 54 8 78q9 70 37 190l180 752l266 -2v-1569l-180 2v1339h-16q-2 -31 -13 -86q-4 -30 -43 -206l-162 -672h-186l-160 669q-22 78 -41 209q-9 47 -12 86h-16v-1339h-174z" />
<glyph unicode="N" d="M152 0v1567h251l506 -1151q43 -112 49 -129q6 -23 19 -62h12v1342h170v-1567h-252l-506 1149q-15 33 -33.5 83t-19.5 52q-13 43 -16 57h-10v-1341h-170z" />
<glyph unicode="O" d="M100 778q0 811 557 811q104 0 187.5 -26.5t153 -86t115.5 -152.5t71.5 -230.5t25.5 -315.5q0 -220 -39 -379t-114 -252.5t-174.5 -136.5t-229.5 -43q-133 0 -232.5 43t-172.5 137t-110.5 252t-37.5 379zM303 778q0 -344 86 -500.5t266 -156.5q186 0 269.5 153.5 t83.5 503.5q0 355 -85 506.5t-268 151.5q-181 0 -266.5 -155.5t-85.5 -502.5z" />
<glyph unicode="P" d="M199 0v1567h463q116 0 212 -28.5t170 -85.5t115 -151t41 -217q0 -161 -73 -272.5t-196 -163t-286 -51.5h-256v-598h-190zM389 752h256q174 0 266.5 84t92.5 249q0 171 -90.5 249.5t-262.5 78.5h-262v-661z" />
<glyph unicode="Q" d="M100 778q0 811 557 811q104 0 187.5 -26.5t153 -86t115.5 -152.5t71.5 -230.5t25.5 -315.5q0 -512 -211 -676v-10q103 -26 169.5 -89t111.5 -175l-168 -82q-94 242 -262 242q-19 0 -83.5 -8.5t-109.5 -8.5q-133 0 -233 42.5t-174 136t-112 251t-38 377.5zM303 776 q0 -347 83.5 -501t268.5 -154q44 0 79 6t73 23.5t66.5 47t54.5 79.5t43 117.5t27 164t10 217.5q0 358 -83 510t-270 152q-185 0 -268.5 -155t-83.5 -507z" />
<glyph unicode="R" d="M186 0v1567h502q178 0 303 -70q197 -107 197 -369q0 -81 -21 -149t-54 -114t-78.5 -82t-88 -56t-88.5 -33v-4l346 -690h-215l-323 664h-289v-664h-191zM377 821h297q145 0 230 75t85 230q0 141 -83 213t-224 72h-305v-590z" />
<glyph unicode="S" d="M106 440h193q9 -66 33.5 -121t67 -101t111 -71.5t157.5 -25.5q94 0 163 22.5t108 63.5t57 90.5t18 110.5q0 221 -256 276l-219 47q-205 45 -296 143.5t-91 282.5q0 190 139.5 311t367.5 121q243 0 374 -120t149 -322h-193q-13 126 -96 206.5t-236 80.5q-155 0 -236 -76 t-81 -189q0 -117 56.5 -174.5t178.5 -83.5l240 -53q209 -47 301 -149t92 -281q0 -215 -139.5 -338t-404.5 -123q-253 0 -399.5 130t-158.5 343z" />
<glyph unicode="T" d="M57 1405v162h1194v-162h-501v-1405h-191v1405h-502z" />
<glyph unicode="U" d="M141 522v1045h191v-1043q0 -399 325 -399q324 0 324 399v1043h186v-1045q0 -283 -136 -418t-376 -135q-243 0 -378.5 133.5t-135.5 419.5z" />
<glyph unicode="V" d="M80 1567h203l309 -1137q7 -26 20.5 -83t20.5 -81q3 -16 10 -45t10 -45h17q17 65 22 92q6 22 19.5 79t21.5 83l307 1137h191l-443 -1567h-262z" />
<glyph unicode="W" d="M86 1567h178l78 -1368h16q2 31 13 90q15 103 39 215l159 735h176l160 -735q30 -156 39 -215q9 -49 12 -90h19l78 1368h172l-101 -1567h-264l-153 707q-23 108 -35 194q-10 56 -15 98h-14q-9 -66 -14 -98q-14 -99 -35 -194l-154 -707h-254z" />
<glyph unicode="X" d="M63 0l482 811l-447 756h217l334 -598h8l351 598h196l-448 -746l491 -821h-221l-377 662h-6l-383 -662h-197z" />
<glyph unicode="Y" d="M76 1567h211l375 -723h4l376 723h193l-485 -893v-674h-189v668z" />
<glyph unicode="Z" d="M129 0v145l832 1258h-801v164h1026v-146l-830 -1257h846v-164h-1073z" />
<glyph unicode="[" d="M416 -266v1880h569v-144h-395v-1593h395v-143h-569z" />
<glyph unicode="\" d="M131 1614h170l930 -1880h-170z" />
<glyph unicode="]" d="M326 -123h395v1593h-395v144h569v-1880h-569v143z" />
<glyph unicode="^" d="M199 872l385 695h151l377 -693h-192l-258 492h-15l-272 -494h-176z" />
<glyph unicode="_" d="M205 -233h901v-152h-901v152z" />
<glyph unicode="`" d="M424 1614h276l123 -367h-157z" />
<glyph unicode="a" d="M178 295q0 187 162 266q151 78 532 90v56q0 134 -58 195t-177 61q-62 0 -108.5 -17t-72 -45.5t-38.5 -58.5t-15 -64h-178q8 143 115 235.5t297 92.5q195 0 303.5 -96.5t108.5 -298.5v-480q0 -49 17 -65t67 -16h36v-150h-57q-119 0 -169 45t-56 150h-13 q-48 -103 -136 -158t-210 -55q-164 0 -257 83.5t-93 229.5zM362 305q0 -85 52.5 -129.5t146.5 -44.5q43 0 85 11t83.5 38t72.5 67t50.5 102.5t19.5 139.5v25q-187 -8 -292.5 -25.5t-157.5 -54.5q-60 -48 -60 -129z" />
<glyph unicode="b" d="M193 0v1614h184v-713h2q50 92 144 148.5t218 56.5q94 0 172.5 -29.5t142.5 -91.5t100 -172t36 -258q0 -143 -36.5 -256t-101 -183t-147.5 -106.5t-180 -36.5q-126 0 -216.5 56t-139.5 143h-4v-172h-174zM371 500q0 -167 85.5 -274t243.5 -107q306 0 306 436 q0 403 -308 403q-148 0 -237.5 -100.5t-89.5 -243.5v-114z" />
<glyph unicode="c" d="M184 537q0 262 133.5 415.5t372.5 153.5q178 0 300.5 -86.5t150.5 -265.5h-191q-13 83 -83.5 145t-186.5 62q-153 0 -228 -110t-75 -306q0 -101 15.5 -176.5t50.5 -132.5t94.5 -86t142.5 -29q67 0 121 23t85.5 59.5t49.5 73.5t25 75h186q-24 -176 -152 -277.5 t-315 -101.5q-243 0 -368.5 146t-127.5 418z" />
<glyph unicode="d" d="M117 532q0 271 133.5 422.5t349.5 151.5q114 0 198 -48.5t130 -121.5h4v678h186v-1614h-176v172h-8q-44 -86 -138.5 -142.5t-217.5 -56.5q-74 0 -139.5 18t-125.5 59.5t-102.5 104.5t-68 159.5t-25.5 217.5zM305 541q0 -422 305 -422q149 0 238.5 98.5t89.5 249.5v115 q0 172 -84.5 274t-224.5 102q-162 0 -243 -110t-81 -307z" />
<glyph unicode="e" d="M170 535q0 162 57 289.5t172.5 204.5t272.5 77q98 0 177.5 -28.5t133 -77t90 -115.5t52.5 -142t16 -159v-95h-785q8 -174 89.5 -273t238.5 -99q68 0 118.5 16t78.5 44.5t42 52t23 53.5h176q-31 -143 -148.5 -226.5t-295.5 -83.5q-126 0 -224 42.5t-159.5 118.5t-93 177.5 t-31.5 223.5zM360 637h592v12q-2 70 -18.5 125.5t-49 99.5t-87 67.5t-127.5 23.5q-135 0 -213.5 -87.5t-96.5 -240.5z" />
<glyph unicode="f" d="M147 926v153h392v219q0 163 103 242.5t271 79.5q115 0 230 -33v-155q-111 34 -223 34q-100 0 -149.5 -43.5t-49.5 -140.5v-203h422v-153h-422v-926h-182v926h-392z" />
<glyph unicode="g" d="M131 555q0 261 130.5 406t344.5 145q130 0 214 -55.5t126 -141.5h6v170h176v-1052q0 -219 -138 -327t-374 -108q-82 0 -156 16t-140 49.5t-109 93.5t-53 140h178q18 -74 84.5 -112.5t200.5 -38.5q168 0 246.5 70t78.5 243v160h-2q-48 -86 -145 -145.5t-217 -59.5 q-90 0 -168.5 30.5t-143 92.5t-102 171t-37.5 253zM319 555q0 -94 15 -164t49.5 -125t97 -83.5t152.5 -28.5q137 0 227 97.5t90 237.5v109q0 163 -88.5 263t-236.5 100q-153 0 -229.5 -108t-76.5 -298z" />
<glyph unicode="h" d="M225 0v1614h187v-713h2q41 86 128 145.5t210 59.5q344 0 344 -354v-752h-187v668q0 59 -1 83.5t-9.5 65t-26.5 64.5q-54 71 -170 71q-145 0 -217.5 -83t-72.5 -222v-647h-187z" />
<glyph unicode="i" d="M188 0v154h398v778h-338v147h514v-925h403v-154h-977zM522 1282v274h275v-274h-275z" />
<glyph unicode="j" d="M283 -219q4 -1 28.5 -7t32 -7.5l30 -6t37 -6t37.5 -3t46 -1.5q108 0 161.5 56.5t53.5 158.5v963h-426v151h602v-1134q0 -167 -103.5 -260t-269.5 -93q-98 0 -229 29v160zM645 1282v274h275v-274h-275z" />
<glyph unicode="k" d="M258 0v1614h176v-1073l488 538h217l-391 -420l448 -659h-219l-354 530l-189 -202v-328h-176z" />
<glyph unicode="l" d="M188 0v154h394v1312h-355v148h537v-1460h401v-154h-977z" />
<glyph unicode="m" d="M121 0v1079h158v-155h8q54 182 229 182q178 0 217 -178h6q56 178 234 178q120 0 173.5 -69.5t53.5 -219.5v-817h-178v778q0 35 -1 54t-7 46.5t-17 41.5t-32.5 25t-53.5 11q-161 0 -161 -299v-657h-179v778q0 33 -1.5 54t-7.5 47t-17.5 41t-33 25.5t-52.5 10.5 q-85 0 -122.5 -73.5t-37.5 -225.5v-657h-178z" />
<glyph unicode="n" d="M225 0v1079h174v-182h4q39 87 133.5 148t215.5 61q344 0 344 -354v-752h-187v666q0 59 -1 84t-9.5 66t-26.5 65q-54 71 -170 71q-145 0 -217.5 -83t-72.5 -222v-647h-187z" />
<glyph unicode="o" d="M152 541q0 270 130 417.5t373 147.5q246 0 375 -147t129 -418t-130.5 -419.5t-373.5 -148.5q-245 0 -374 148.5t-129 419.5zM342 541q0 -424 313 -424q314 0 314 424q0 203 -78 312.5t-236 109.5t-235.5 -109.5t-77.5 -312.5z" />
<glyph unicode="p" d="M193 -385v1464h178v-180h4q55 93 147.5 150t214.5 57q75 0 140 -17.5t123.5 -58.5t100.5 -103.5t66.5 -157t24.5 -214.5q0 -143 -37 -256t-101.5 -183t-148 -106.5t-180.5 -36.5q-119 0 -214.5 54.5t-129.5 130.5h-4v-543h-184zM371 500q0 -167 85.5 -274t243.5 -107 q306 0 306 436q0 403 -308 403q-147 0 -237 -101t-90 -243v-114z" />
<glyph unicode="q" d="M117 532q0 271 133.5 422.5t353.5 151.5q122 0 207.5 -55t120.5 -136h4v164h182v-1464h-186v549h-6q-44 -80 -134.5 -135.5t-213.5 -55.5q-74 0 -139.5 17.5t-125.5 59t-102.5 104.5t-68 159.5t-25.5 218.5zM305 541q0 -422 305 -422q149 0 238.5 98.5t89.5 249.5v115 q0 170 -87 273t-226 103q-158 0 -239 -110t-81 -307z" />
<glyph unicode="r" d="M324 0v1079h174v-268h4q58 155 167 222t277 67q56 0 116.5 -12t98.5 -31v-174q-50 16 -76.5 23t-76.5 14.5t-103 7.5q-194 0 -295.5 -122.5t-101.5 -342.5v-463h-184z" />
<glyph unicode="s" d="M207 305h178q11 -85 76 -136.5t188 -51.5q140 0 206.5 43.5t66.5 132.5q0 73 -45 107.5t-164 54.5l-178 30q-136 22 -209.5 93t-73.5 210q0 138 106 228t299 90q200 0 304.5 -79.5t117.5 -217.5h-178q-13 82 -75 118t-171 36t-168 -43t-59 -119q0 -70 44 -106t140 -54 l158 -27q177 -30 254.5 -102t77.5 -201q0 -160 -112.5 -249t-340.5 -89q-92 0 -166 18t-133.5 56.5t-96 103.5t-46.5 154z" />
<glyph unicode="t" d="M117 926v153h291q63 0 87.5 25t24.5 88v219h170v-332h422v-153h-422v-611q0 -100 50.5 -141t142.5 -41q70 0 116.5 10t112.5 33v-153q-123 -48 -242 -48q-191 0 -276.5 83.5t-85.5 242.5v625h-391z" />
<glyph unicode="u" d="M221 328v751h182v-663q0 -54 1.5 -84t10.5 -70.5t27 -64.5q54 -72 166 -72q295 0 295 371v583h184v-1079h-176v184h-4q-40 -90 -129.5 -150.5t-210.5 -60.5q-163 0 -254.5 86t-91.5 269z" />
<glyph unicode="v" d="M145 1079h187l266 -714q6 -18 20.5 -60t20.5 -59q2 -7 7.5 -24.5t8.5 -26.5h13q3 9 8.5 26.5t7.5 24.5q6 17 20.5 59t20.5 60l266 714h174l-411 -1079h-197z" />
<glyph unicode="w" d="M78 1079h170l117 -719q8 -49 12 -120q1 -11 2 -34.5t2 -35.5h12q1 13 4 37t4 35q2 12 8 55t9 61l151 721h179l147 -721q3 -17 8.5 -59t7.5 -57q1 -11 4.5 -35t4.5 -37h12q3 38 6 72q3 19 6 59.5t6 56.5l113 721h170l-199 -1079h-209l-127 604q-11 45 -26 164 q-8 59 -10 84h-13q-2 -25 -10 -84q-6 -47 -27 -164l-127 -604h-209z" />
<glyph unicode="x" d="M139 0l410 557l-379 522h211l272 -385h9l274 385h192l-376 -514l413 -565h-213l-307 428h-6l-305 -428h-195z" />
<glyph unicode="y" d="M152 1079h196l270 -696q7 -19 22.5 -62.5t21.5 -60.5q5 -13 14 -45h8q10 35 14 47q25 76 45 125l254 692h187l-445 -1147q-74 -191 -161 -265.5t-236 -74.5q-90 0 -170 23v154q90 -21 160 -21q92 0 137.5 39t89.5 156l23 57z" />
<glyph unicode="z" d="M186 0v162l701 768h-668v149h881v-159l-707 -768h723v-152h-930z" />
<glyph unicode="{" d="M250 592v164h102q92 0 124 34t32 121v338q0 202 105 283.5t358 81.5h45v-144q-194 0 -264 -42t-70 -166v-340q0 -47 -5.5 -81.5t-22.5 -71.5t-54.5 -61t-93.5 -32v-8q56 -8 93.5 -32t54.5 -61t22.5 -71.5t5.5 -81.5v-340q0 -125 69.5 -165t264.5 -40v-143h-45 q-255 0 -359 78t-104 280v344q0 87 -32.5 121.5t-123.5 34.5h-102z" />
<glyph unicode="|" d="M578 -266v1880h153v-1880h-153z" />
<glyph unicode="}" d="M295 -123q194 0 264 42.5t70 166.5v340q0 47 5.5 81.5t22.5 71.5t54.5 61t93.5 32v8q-56 8 -93.5 32t-54.5 61t-22.5 71.5t-5.5 81.5v340q0 125 -69 164.5t-265 39.5v144h45q254 0 358.5 -79t104.5 -280v-344q0 -89 31 -122t124 -33h103v-164h-103q-93 0 -124 -33.5 t-31 -122.5v-338q0 -202 -105 -283t-358 -81h-45v143z" />
<glyph unicode="~" d="M211 598q0 128 71 202t183 74q57 0 139 -30.5t152 -61t98 -30.5q38 0 65 31.5t31 95.5h146q0 -128 -70.5 -202.5t-181.5 -74.5q-59 0 -139.5 30t-150 60.5t-101.5 30.5q-36 0 -64.5 -31t-32.5 -94h-145z" />
<glyph unicode="&#xa0;" />
<glyph unicode="&#xa1;" d="M539 954v275h274v-275h-274zM573 -385l29 1128h150l26 -1128h-205z" />
<glyph unicode="&#xa2;" d="M203 535q0 230 110 386.5t303 180.5v198h127v-196q74 -6 136.5 -29.5t114 -64.5t83 -106.5t37.5 -149.5h-180q-8 78 -56.5 136.5t-134.5 74.5v-846q45 8 80.5 28t57.5 44.5t37 54.5t21.5 55.5t8.5 50.5h172q-18 -167 -118 -260.5t-259 -111.5v-218h-127v218 q-201 23 -307 168t-106 387zM387 543q0 -374 229 -422v840q-111 -29 -170 -139.5t-59 -278.5z" />
<glyph unicode="&#xa3;" d="M143 647v146h164l-22 71q-41 138 -34.5 247t46.5 190t107 134t146 79t165 26q214 0 337.5 -119t123.5 -338h-189q0 59 -13 110t-41.5 96t-82 71t-127.5 26q-62 0 -112 -15.5t-90 -52.5t-60.5 -93.5t-18 -144t32.5 -197.5l25 -90h454v-146h-415q37 -147 14.5 -252 t-117.5 -198l-30 -29v-4h768v-164h-1008v141l72 60q79 68 112 124t33.5 129.5t-33.5 192.5h-207z" />
<glyph unicode="&#xa4;" d="M78 629v164h217q11 59 43 114l-162 162l117 117l160 -162q61 36 118 47v219h164v-219q64 -14 121 -51l168 172l113 -113l-172 -170q33 -55 45 -116h221v-164h-221q-13 -70 -45 -117l165 -164l-116 -117l-164 166q-56 -33 -115 -45v-223h-164v223q-69 13 -118 45 l-166 -168l-113 113l168 166q-37 63 -47 121h-217zM426 711q0 -105 63 -174.5t162 -69.5q102 0 165 69t63 175t-63.5 175.5t-164.5 69.5q-99 0 -162 -70t-63 -175z" />
<glyph unicode="&#xa5;" d="M115 1518h209l329 -594h4l347 594h190l-430 -717h364v-142h-387v-190h392v-141h-392v-328h-172v328h-393v141h393v190h-397v142h369z" />
<glyph unicode="&#xa6;" d="M578 -266v897h153v-897h-153zM578 793v821h153v-821h-153z" />
<glyph unicode="&#xa7;" d="M156 721q0 62 16.5 110.5t48.5 81t67.5 54t82.5 39.5v4q-74 74 -74 209q0 142 108 231.5t285 89.5q182 0 281 -89t110 -245h-176q-18 193 -219 193q-104 0 -157.5 -48.5t-53.5 -121.5q0 -76 35 -116t108 -69l281 -118q161 -70 219 -146.5t58 -187.5q0 -215 -213 -293v-6 q43 -46 60 -91.5t17 -107.5q0 -156 -104.5 -241.5t-308.5 -85.5q-201 0 -307.5 97.5t-114.5 268.5h178q14 -110 72.5 -165.5t177.5 -55.5q225 0 225 166q0 70 -35 107.5t-123 74.5l-258 109q-150 65 -218 142.5t-68 209.5zM336 748q0 -73 30 -117.5t107 -79.5l279 -119 q45 -19 92 -47q80 19 116.5 60.5t36.5 117.5q0 68 -34.5 114.5t-118.5 80.5l-256 106q-5 2 -96 49q-71 -10 -113.5 -55.5t-42.5 -109.5z" />
<glyph unicode="&#xa8;" d="M299 1282v264h266v-264h-266zM741 1282v264h265v-264h-265z" />
<glyph unicode="&#xa9;" d="M102 696v168q0 162 30.5 291t94.5 228.5t172.5 153.5t255.5 54q118 0 212 -36t157 -100t105 -156t60.5 -199.5t18.5 -235.5v-168q0 -165 -30.5 -295t-95 -229t-172.5 -152t-255 -53t-255 52.5t-172.5 151t-95 228.5t-30.5 297zM236 705q0 -104 9.5 -188t37 -168 t72.5 -141t121.5 -92.5t178.5 -35.5q103 0 179.5 35.5t121.5 92t72.5 141.5t37 168.5t9.5 187.5v151q0 81 -7 151t-23 143.5t-47.5 130.5t-76 103t-112.5 70.5t-154 24.5q-102 0 -178.5 -37t-121.5 -95t-72.5 -142.5t-37 -167t-9.5 -181.5v-151zM393 776q0 240 66.5 341.5 t210.5 101.5q107 0 172 -65t69 -210h-141q-2 77 -23 114.5t-83 37.5q-66 0 -95.5 -74t-29.5 -240q0 -173 27 -244t102 -71q30 0 51.5 17t31 45t13.5 54t4 54h145q-20 -295 -247 -295q-146 0 -209.5 96.5t-63.5 337.5z" />
<glyph unicode="&#xaa;" d="M246 879q0 159 139 227q45 22 118.5 35t136 17t191.5 9v31q0 211 -194 211q-175 0 -193 -143h-159q11 124 105.5 198t252.5 74q174 0 261 -81t87 -257v-356q0 -43 15 -58.5t51 -15.5h37v-137h-60q-92 0 -134.5 26.5t-53.5 108.5h-12q-96 -152 -295 -152q-144 0 -218.5 69 t-74.5 194zM418 889q0 -139 151 -139q46 0 90 15.5t83.5 47t64 88t24.5 129.5v19q-174 -7 -250 -16t-114 -36q-49 -35 -49 -108z" />
<glyph unicode="&#xab;" d="M223 535l232 415h180l-213 -422l223 -411h-188zM637 535l231 415h181l-213 -422l221 -411h-187z" />
<glyph unicode="&#xac;" d="M184 651v162h942v-553h-165v391h-777z" />
<glyph unicode="&#xad;" d="M350 580v182h611v-182h-611z" />
<glyph unicode="&#xae;" d="M152 1079q0 216 143.5 363t357.5 147q218 0 362 -146.5t144 -363.5q0 -215 -144 -360.5t-362 -145.5q-214 0 -357.5 145.5t-143.5 360.5zM256 1079q0 -179 112.5 -297t284.5 -118q174 0 290 118.5t116 296.5q0 181 -116 300.5t-290 119.5q-172 0 -284.5 -119t-112.5 -301 zM469 838v522h215q75 0 126.5 -38t51.5 -114q0 -67 -32.5 -101.5t-77.5 -43.5l116 -225h-120l-107 209h-66v-209h-106zM575 1130h87q90 0 90 78q0 35 -23 53.5t-65 18.5h-89v-150z" />
<glyph unicode="&#xaf;" d="M328 1303v170h651v-170h-651z" />
<glyph unicode="&#xb0;" d="M231 1128q0 181 120 302.5t302 121.5q183 0 303.5 -121.5t120.5 -302.5q0 -182 -120 -302.5t-304 -120.5q-183 0 -302.5 120.5t-119.5 302.5zM391 1128q0 -124 73 -203t189 -79q118 0 190 79t72 203q0 123 -72.5 204t-189.5 81q-116 0 -189 -81t-73 -204z" />
<glyph unicode="&#xb1;" d="M184 0v158h942v-158h-942zM184 715v157h387v392h166v-392h389v-157h-389v-393h-166v393h-387z" />
<glyph unicode="&#xb2;" d="M258 680v113l389 350q110 97 153.5 162t43.5 151q0 82 -54.5 132t-142.5 50q-211 0 -219 -249h-156q1 178 103 278t272 100q161 0 261 -82.5t100 -224.5q0 -108 -52 -191t-186 -202l-135 -121q-22 -19 -57.5 -46.5t-47.5 -37.5q-16 -14 -43 -33v-6h539v-143h-768z" />
<glyph unicode="&#xb3;" d="M264 985h164q12 -97 73.5 -145.5t157.5 -48.5q94 0 156 51t62 135q0 86 -57 133t-161 47h-98v133h94q86 0 138.5 49t52.5 127q0 77 -53 121.5t-140 44.5q-201 0 -207 -190h-163q0 136 96.5 230.5t277.5 94.5q163 0 259 -79.5t96 -202.5q0 -95 -49 -154.5t-144 -93.5v-4 q219 -49 219 -262q0 -133 -103.5 -223.5t-285.5 -90.5q-96 0 -169.5 26.5t-118.5 73t-69 104t-28 124.5z" />
<glyph unicode="&#xb4;" d="M502 1247l123 367h276l-242 -367h-157z" />
<glyph unicode="&#xb6;" d="M174 1196q0 186 114 278.5t302 92.5h151v-1567h-161v821q-185 5 -295.5 100.5t-110.5 274.5zM907 0v1567h162v-1567h-162z" />
<glyph unicode="&#xb7;" d="M518 506v274h275v-274h-275z" />
<glyph unicode="&#xb8;" d="M455 -299h157q15 -35 64 -35q74 0 74 72q0 33 -18.5 52.5t-53.5 19.5q-37 0 -64 -31h-145l143 315h107l-82 -178h65q92 0 141.5 -43.5t49.5 -128.5q0 -82 -60 -135t-167 -53q-88 0 -143 36.5t-68 108.5z" />
<glyph unicode="&#xb9;" d="M340 680v131h268v627h-262v125h70q113 0 159 43q29 25 41.5 58.5t12.5 90.5h137v-944h256v-131h-682z" />
<glyph unicode="&#xba;" d="M242 1077q0 206 111.5 333.5t301.5 127.5q199 0 306.5 -124t107.5 -337q0 -210 -112.5 -336.5t-303.5 -126.5q-197 0 -304 125t-107 338zM418 1077q0 -161 57 -245t182 -84q236 0 236 329q0 330 -240 330q-116 0 -175.5 -86.5t-59.5 -243.5z" />
<glyph unicode="&#xbb;" d="M256 950h186l232 -415l-230 -418h-182l215 422zM670 950h184l233 -415l-231 -418h-180l213 422z" />
<glyph unicode="&#xbc;" horiz-adv-x="3932" d="M340 526v131h268v627h-262v125h70q113 0 159 43q29 25 41.5 59t12.5 91h137v-945h256v-131h-682zM1362 -82l1163 1679h168l-1163 -1679h-168zM2652 172v121l486 696h194v-684h172v-133h-172v-254h-154v254h-526zM2814 303h371v526l-13 2l-16 -32q-17 -34 -49 -80z" />
<glyph unicode="&#xbd;" horiz-adv-x="3932" d="M340 526v131h268v627h-262v125h70q113 0 159 43q29 25 41.5 59t12.5 91h137v-945h256v-131h-682zM1300 -82l1164 1679h168l-1164 -1679h-168zM2675 31l389 350q110 97 153 162t43 151q0 82 -54 132.5t-142 50.5q-211 0 -219 -250h-156q1 178 103 278.5t272 100.5 q161 0 260.5 -82.5t99.5 -225.5q0 -108 -51.5 -191.5t-185.5 -201.5l-135 -121q-22 -19 -57.5 -46.5t-47.5 -37.5q-9 -8 -43 -32v-7h539v-143h-768v113z" />
<glyph unicode="&#xbe;" horiz-adv-x="3932" d="M264 831h164q12 -97 73.5 -145.5t157.5 -48.5q94 0 156 51t62 135q0 86 -57 133.5t-161 47.5h-98v133h94q86 0 138.5 49t52.5 127q0 77 -53 121.5t-140 44.5q-201 0 -207 -191h-163q0 136 96.5 231t277.5 95q163 0 259 -80t96 -203q0 -95 -49 -154.5t-144 -93.5v-4 q219 -49 219 -262q0 -132 -103.5 -222.5t-285.5 -90.5q-96 0 -169.5 26.5t-118.5 73t-69 103.5t-28 124zM1341 -82l1164 1679h168l-1164 -1679h-168zM2652 172v121l486 696h194v-684h172v-133h-172v-254h-154v254h-526zM2814 303h371v526l-13 2l-16 -32q-17 -34 -49 -80z " />
<glyph unicode="&#xbf;" d="M184 4q0 61 13.5 116t33 94t52.5 79t59 64.5t66 58.5l75 65q63 58 75.5 83.5t12.5 99.5v100h168v-131q0 -71 -12 -110.5t-38 -69t-97 -91.5l-86 -75q-70 -58 -104.5 -121t-34.5 -146q0 -118 75 -191t201 -73q155 0 238.5 95.5t79.5 273.5h174q7 -237 -128.5 -382.5 t-359.5 -145.5q-94 0 -171.5 23.5t-131 62.5t-90 91.5t-53.5 110.5t-17 119zM518 954v275h275v-275h-275z" />
<glyph unicode="&#xc0;" d="M72 0l456 1567h250l461 -1567h-205l-131 467h-510l-129 -467h-192zM358 1966h277l104 -272h-166zM436 621h424l-139 501q-8 27 -22 88.5t-19 79.5q-4 20 -23 94h-16q0 -9 -66 -262z" />
<glyph unicode="&#xc1;" d="M72 0l456 1567h250l461 -1567h-205l-131 467h-510l-129 -467h-192zM436 621h424l-139 501q-8 27 -22 88.5t-19 79.5q-4 20 -23 94h-16q0 -9 -66 -262zM582 1694l104 272h277l-215 -272h-166z" />
<glyph unicode="&#xc2;" d="M72 0l456 1567h250l461 -1567h-205l-131 467h-510l-129 -467h-192zM340 1694l199 272h233l199 -272h-178l-138 135h-6l-137 -135h-172zM436 621h424l-139 501q-8 27 -22 88.5t-19 79.5q-4 20 -23 94h-16q0 -9 -66 -262z" />
<glyph unicode="&#xc3;" d="M72 0l456 1567h250l461 -1567h-205l-131 467h-510l-129 -467h-192zM283 1694q5 126 64.5 201t162.5 75q44 0 89 -17t75 -37t65 -37t62 -17q40 0 59 27t25 89h149q-5 -124 -65 -200t-164 -76q-55 0 -111 27t-101 54t-73 27q-75 0 -86 -116h-151zM436 621h424l-139 501 q-8 27 -22 88.5t-19 79.5q-4 20 -23 94h-16q0 -9 -66 -262z" />
<glyph unicode="&#xc4;" d="M72 0l456 1567h250l461 -1567h-205l-131 467h-510l-129 -467h-192zM299 1694v264h266v-264h-266zM436 621h424l-139 501q-8 27 -22 88.5t-19 79.5q-4 20 -23 94h-16q0 -9 -66 -262zM741 1694v264h265v-264h-265z" />
<glyph unicode="&#xc5;" d="M72 0l456 1567h250l461 -1567h-205l-131 467h-510l-129 -467h-192zM383 1892q0 112 74 187t190 75q117 0 191.5 -75t74.5 -187q0 -113 -74 -186.5t-192 -73.5q-116 0 -190 73.5t-74 186.5zM436 621h424l-139 501q-8 27 -22 88.5t-19 79.5q-4 20 -23 94h-16q0 -9 -66 -262 zM510 1892q0 -66 38 -107.5t99 -41.5q63 0 101 41.5t38 107.5q0 64 -38.5 108t-100.5 44q-60 0 -98.5 -44t-38.5 -108z" />
<glyph unicode="&#xc6;" d="M-14 0l508 1567h792v-166h-455v-529h390v-161h-390v-545h465v-166h-643v467h-338l-149 -467h-180zM365 621h288v780h-41z" />
<glyph unicode="&#xc7;" d="M115 778q0 402 151 606.5t430 204.5q98 0 183 -29t154.5 -87t115 -154t57.5 -221h-192q-7 51 -21 96.5t-40 90.5t-60 77.5t-85.5 53t-113.5 20.5q-201 0 -291 -158.5t-90 -499.5q0 -344 89.5 -499.5t289.5 -155.5q83 0 145 31t98 85t55.5 115t25.5 133h186 q-12 -150 -73 -266t-174.5 -185t-264.5 -69h-24l-25 -55h66q92 0 141 -43.5t49 -128.5q0 -83 -60 -136t-167 -53q-88 0 -143 37t-68 109h157q15 -35 64 -35q74 0 74 72q0 33 -18.5 52t-53.5 19q-38 0 -64 -30h-145l92 202q-223 38 -336.5 231t-113.5 570z" />
<glyph unicode="&#xc8;" d="M215 0v1567h940v-166h-749v-529h643v-161h-643v-545h759v-166h-950zM418 1966h276l105 -272h-166z" />
<glyph unicode="&#xc9;" d="M215 0v1567h940v-166h-749v-529h643v-161h-643v-545h759v-166h-950zM604 1694l105 272h276l-215 -272h-166z" />
<glyph unicode="&#xca;" d="M215 0v1567h940v-166h-749v-529h643v-161h-643v-545h759v-166h-950zM383 1694l199 272h233l199 -272h-178l-138 135h-6l-137 -135h-172z" />
<glyph unicode="&#xcb;" d="M215 0v1567h940v-166h-749v-529h643v-161h-643v-545h759v-166h-950zM346 1694v264h266v-264h-266zM788 1694v264h265v-264h-265z" />
<glyph unicode="&#xcc;" d="M205 0v154h356v1259h-356v154h901v-154h-356v-1259h356v-154h-901zM358 1966h277l104 -272h-166z" />
<glyph unicode="&#xcd;" d="M205 0v154h356v1259h-356v154h901v-154h-356v-1259h356v-154h-901zM582 1694l104 272h277l-215 -272h-166z" />
<glyph unicode="&#xce;" d="M205 0v154h356v1259h-356v154h901v-154h-356v-1259h356v-154h-901zM340 1694l199 272h233l199 -272h-178l-138 135h-6l-137 -135h-172z" />
<glyph unicode="&#xcf;" d="M205 0v154h356v1259h-356v154h901v-154h-356v-1259h356v-154h-901zM303 1694v264h266v-264h-266zM745 1694v264h265v-264h-265z" />
<glyph unicode="&#xd0;" d="M8 713v157h150v697h313q132 0 240 -24t200 -80t154.5 -143t97.5 -217.5t35 -299.5t-32.5 -302.5t-92.5 -227t-147.5 -155t-194.5 -90t-237 -28.5h-336v713h-150zM348 166h141q171 0 281.5 61t169.5 202t59 368q0 318 -126.5 463t-370.5 145h-154v-535h377v-157h-377v-547 z" />
<glyph unicode="&#xd1;" d="M152 0v1567h251l506 -1151q43 -112 49 -129q6 -23 19 -62h12v1342h170v-1567h-252l-506 1149q-15 33 -33.5 83t-19.5 52q-13 43 -16 57h-10v-1341h-170zM322 1694q5 126 64.5 201t162.5 75q44 0 89 -17t75 -37t65 -37t62 -17q40 0 59 27t25 89h149q-5 -124 -65 -200 t-164 -76q-54 0 -110.5 27t-101.5 54t-73 27q-75 0 -86 -116h-151z" />
<glyph unicode="&#xd2;" d="M100 778q0 811 557 811q104 0 187.5 -26.5t153 -86t115.5 -152.5t71.5 -230.5t25.5 -315.5q0 -220 -39 -379t-114 -252.5t-174.5 -136.5t-229.5 -43q-133 0 -232.5 43t-172.5 137t-110.5 252t-37.5 379zM303 778q0 -344 86 -500.5t266 -156.5q186 0 269.5 153.5 t83.5 503.5q0 355 -85 506.5t-268 151.5q-181 0 -266.5 -155.5t-85.5 -502.5zM358 1966h277l104 -272h-166z" />
<glyph unicode="&#xd3;" d="M100 778q0 811 557 811q104 0 187.5 -26.5t153 -86t115.5 -152.5t71.5 -230.5t25.5 -315.5q0 -220 -39 -379t-114 -252.5t-174.5 -136.5t-229.5 -43q-133 0 -232.5 43t-172.5 137t-110.5 252t-37.5 379zM303 778q0 -344 86 -500.5t266 -156.5q186 0 269.5 153.5 t83.5 503.5q0 355 -85 506.5t-268 151.5q-181 0 -266.5 -155.5t-85.5 -502.5zM582 1694l104 272h277l-215 -272h-166z" />
<glyph unicode="&#xd4;" d="M100 778q0 811 557 811q104 0 187.5 -26.5t153 -86t115.5 -152.5t71.5 -230.5t25.5 -315.5q0 -220 -39 -379t-114 -252.5t-174.5 -136.5t-229.5 -43q-133 0 -232.5 43t-172.5 137t-110.5 252t-37.5 379zM303 778q0 -344 86 -500.5t266 -156.5q186 0 269.5 153.5 t83.5 503.5q0 355 -85 506.5t-268 151.5q-181 0 -266.5 -155.5t-85.5 -502.5zM340 1694l199 272h233l199 -272h-178l-138 135h-6l-137 -135h-172z" />
<glyph unicode="&#xd5;" d="M100 778q0 811 557 811q104 0 187.5 -26.5t153 -86t115.5 -152.5t71.5 -230.5t25.5 -315.5q0 -220 -39 -379t-114 -252.5t-174.5 -136.5t-229.5 -43q-133 0 -232.5 43t-172.5 137t-110.5 252t-37.5 379zM299 1694q5 126 64.5 201t162.5 75q44 0 89 -17t75 -37t65 -37 t62 -17q40 0 59 27t25 89h150q-5 -124 -65.5 -200t-164.5 -76q-43 0 -88 17t-75.5 37t-64 37t-56.5 17q-75 0 -86 -116h-152zM303 778q0 -344 86 -500.5t266 -156.5q186 0 269.5 153.5t83.5 503.5q0 355 -85 506.5t-268 151.5q-181 0 -266.5 -155.5t-85.5 -502.5z" />
<glyph unicode="&#xd6;" d="M100 778q0 811 557 811q104 0 187.5 -26.5t153 -86t115.5 -152.5t71.5 -230.5t25.5 -315.5q0 -220 -39 -379t-114 -252.5t-174.5 -136.5t-229.5 -43q-133 0 -232.5 43t-172.5 137t-110.5 252t-37.5 379zM303 778q0 -344 86 -500.5t266 -156.5q186 0 269.5 153.5 t83.5 503.5q0 355 -85 506.5t-268 151.5q-181 0 -266.5 -155.5t-85.5 -502.5zM303 1694v264h266v-264h-266zM745 1694v264h265v-264h-265z" />
<glyph unicode="&#xd7;" d="M193 365l350 344l-346 346l114 114l346 -348l344 348l113 -112l-350 -344l348 -348l-115 -115l-346 350l-346 -348z" />
<glyph unicode="&#xd8;" d="M25 -51l180 274q-105 199 -105 555q0 811 557 811q224 0 361 -137l115 172h149l-184 -281q112 -201 112 -565q0 -220 -39 -379t-114 -252.5t-174.5 -136.5t-229.5 -43q-235 0 -370 146l-109 -164h-149zM299 778q0 -230 33 -362l588 887q-79 133 -265 133 q-183 0 -269.5 -155.5t-86.5 -502.5zM387 270q82 -149 268 -149t271.5 154t85.5 503q0 241 -37 383z" />
<glyph unicode="&#xd9;" d="M141 522v1045h191v-1043q0 -399 325 -399q324 0 324 399v1043h186v-1045q0 -283 -136 -418t-376 -135q-243 0 -378.5 133.5t-135.5 419.5zM375 1966h276l105 -272h-166z" />
<glyph unicode="&#xda;" d="M141 522v1045h191v-1043q0 -399 325 -399q324 0 324 399v1043h186v-1045q0 -283 -136 -418t-376 -135q-243 0 -378.5 133.5t-135.5 419.5zM588 1694l104 272h277l-215 -272h-166z" />
<glyph unicode="&#xdb;" d="M141 522v1045h191v-1043q0 -399 325 -399q324 0 324 399v1043h186v-1045q0 -283 -136 -418t-376 -135q-243 0 -378.5 133.5t-135.5 419.5zM346 1694l199 272h233l199 -272h-178l-137 135h-7l-137 -135h-172z" />
<glyph unicode="&#xdc;" d="M141 522v1045h191v-1043q0 -399 325 -399q324 0 324 399v1043h186v-1045q0 -283 -136 -418t-376 -135q-243 0 -378.5 133.5t-135.5 419.5zM309 1694v264h266v-264h-266zM752 1694v264h264v-264h-264z" />
<glyph unicode="&#xdd;" d="M76 1567h211l375 -723h4l376 723h193l-485 -893v-674h-189v668zM590 1694l104 272h277l-215 -272h-166z" />
<glyph unicode="&#xde;" d="M213 0v1567h190v-328h275q226 0 354.5 -109.5t128.5 -330.5q0 -223 -131 -335t-368 -112h-259v-352h-190zM403 510h254h15q157 4 226 72.5t69 216.5q0 156 -70.5 219t-232.5 63h-261v-571z" />
<glyph unicode="&#xdf;" d="M225 0v1157q0 115 33.5 203.5t93.5 141.5t137.5 79.5t169.5 26.5q199 0 319 -103.5t120 -290.5q0 -129 -60 -219.5t-170 -128.5v-4q140 -27 225 -126.5t85 -274.5q0 -220 -137 -340.5t-375 -120.5h-76v158h80q148 0 234.5 75t86.5 228q0 143 -84 227t-237 84h-45v158h41 q116 0 180.5 70.5t64.5 199.5q0 125 -69 190.5t-183 65.5q-111 0 -180 -73.5t-69 -235.5v-1147h-185z" />
<glyph unicode="&#xe0;" d="M178 295q0 187 162 266q151 78 532 90v56q0 134 -58 195t-177 61q-62 0 -108.5 -17t-72 -45.5t-38.5 -58.5t-15 -64h-178q8 143 115 235.5t297 92.5q195 0 303.5 -96.5t108.5 -298.5v-480q0 -49 17 -65t67 -16h36v-150h-57q-119 0 -169 45t-56 150h-13 q-48 -103 -136 -158t-210 -55q-164 0 -257 83.5t-93 229.5zM346 1614h277l122 -367h-157zM362 305q0 -85 52.5 -129.5t146.5 -44.5q43 0 85 11t83.5 38t72.5 67t50.5 102.5t19.5 139.5v25q-187 -8 -292.5 -25.5t-157.5 -54.5q-60 -48 -60 -129z" />
<glyph unicode="&#xe1;" d="M178 295q0 187 162 266q151 78 532 90v56q0 134 -58 195t-177 61q-62 0 -108.5 -17t-72 -45.5t-38.5 -58.5t-15 -64h-178q8 143 115 235.5t297 92.5q195 0 303.5 -96.5t108.5 -298.5v-480q0 -49 17 -65t67 -16h36v-150h-57q-119 0 -169 45t-56 150h-13 q-48 -103 -136 -158t-210 -55q-164 0 -257 83.5t-93 229.5zM362 305q0 -85 52.5 -129.5t146.5 -44.5q43 0 85 11t83.5 38t72.5 67t50.5 102.5t19.5 139.5v25q-187 -8 -292.5 -25.5t-157.5 -54.5q-60 -48 -60 -129zM555 1247l123 367h276l-241 -367h-158z" />
<glyph unicode="&#xe2;" d="M178 295q0 187 162 266q151 78 532 90v56q0 134 -58 195t-177 61q-62 0 -108.5 -17t-72 -45.5t-38.5 -58.5t-15 -64h-178q8 143 115 235.5t297 92.5q195 0 303.5 -96.5t108.5 -298.5v-480q0 -49 17 -65t67 -16h36v-150h-57q-119 0 -169 45t-56 150h-13 q-48 -103 -136 -158t-210 -55q-164 0 -257 83.5t-93 229.5zM358 1247l209 367h213l209 -367h-172l-151 213h-2l-152 -213h-154zM362 305q0 -85 52.5 -129.5t146.5 -44.5q43 0 85 11t83.5 38t72.5 67t50.5 102.5t19.5 139.5v25q-187 -8 -292.5 -25.5t-157.5 -54.5 q-60 -48 -60 -129z" />
<glyph unicode="&#xe3;" d="M178 295q0 187 162 266q151 78 532 90v56q0 134 -58 195t-177 61q-62 0 -108.5 -17t-72 -45.5t-38.5 -58.5t-15 -64h-178q8 143 115 235.5t297 92.5q195 0 303.5 -96.5t108.5 -298.5v-480q0 -49 17 -65t67 -16h36v-150h-57q-119 0 -169 45t-56 150h-13 q-48 -103 -136 -158t-210 -55q-164 0 -257 83.5t-93 229.5zM285 1268q5 133 63.5 210.5t161.5 77.5q43 0 86.5 -18t73 -39t63.5 -39t60 -18q40 0 60 30t26 95h149q-5 -131 -64.5 -210t-162.5 -79q-42 0 -85 18t-72.5 39.5t-63 39.5t-56.5 18q-77 0 -88 -125h-151zM362 305 q0 -85 52.5 -129.5t146.5 -44.5q43 0 85 11t83.5 38t72.5 67t50.5 102.5t19.5 139.5v25q-187 -8 -292.5 -25.5t-157.5 -54.5q-60 -48 -60 -129z" />
<glyph unicode="&#xe4;" d="M178 295q0 187 162 266q151 78 532 90v56q0 134 -58 195t-177 61q-62 0 -108.5 -17t-72 -45.5t-38.5 -58.5t-15 -64h-178q8 143 115 235.5t297 92.5q195 0 303.5 -96.5t108.5 -298.5v-480q0 -49 17 -65t67 -16h36v-150h-57q-119 0 -169 45t-56 150h-13 q-48 -103 -136 -158t-210 -55q-164 0 -257 83.5t-93 229.5zM299 1282v264h266v-264h-266zM362 305q0 -85 52.5 -129.5t146.5 -44.5q43 0 85 11t83.5 38t72.5 67t50.5 102.5t19.5 139.5v25q-187 -8 -292.5 -25.5t-157.5 -54.5q-60 -48 -60 -129zM741 1282v264h265v-264h-265z " />
<glyph unicode="&#xe5;" d="M178 295q0 187 162 266q151 78 532 90v56q0 134 -58 195t-177 61q-62 0 -108.5 -17t-72 -45.5t-38.5 -58.5t-15 -64h-178q8 143 115 235.5t297 92.5q195 0 303.5 -96.5t108.5 -298.5v-480q0 -49 17 -65t67 -16h36v-150h-57q-119 0 -169 45t-56 150h-13 q-48 -103 -136 -158t-210 -55q-164 0 -257 83.5t-93 229.5zM362 305q0 -85 52.5 -129.5t146.5 -44.5q43 0 85 11t83.5 38t72.5 67t50.5 102.5t19.5 139.5v25q-187 -8 -292.5 -25.5t-157.5 -54.5q-60 -48 -60 -129zM391 1452q0 112 74 187t190 75q117 0 192 -75t75 -187 q0 -113 -74.5 -186.5t-192.5 -73.5q-116 0 -190 73.5t-74 186.5zM518 1452q0 -66 38 -107.5t99 -41.5q63 0 101.5 41.5t38.5 107.5q0 64 -39 108t-101 44q-60 0 -98.5 -44t-38.5 -108z" />
<glyph unicode="&#xe6;" d="M29 301q0 96 39 167t104 110q61 36 136.5 48.5t234.5 12.5v113q0 100 -36.5 154.5t-123.5 54.5q-152 0 -164 -177h-160q2 66 22.5 123t59 102t101 71t143.5 26q190 0 260 -164h8q33 75 103.5 119.5t167.5 44.5q86 0 150 -34t101 -94.5t54.5 -136.5t17.5 -169v-170h-530 q0 -76 4.5 -131.5t17 -104.5t34 -79t55.5 -47t81 -17q136 0 160 160h166q-17 -147 -100.5 -226.5t-223.5 -79.5q-122 0 -190 54t-100 151h-7q-42 -94 -110 -148t-185 -54q-133 0 -211.5 84.5t-78.5 236.5zM211 311q0 -188 145 -188q93 0 140 79.5t47 229.5v72 q-137 4 -193 -6.5t-86 -40.5q-53 -50 -53 -146zM715 637h356v14q0 60 -3.5 102.5t-14 83.5t-29.5 66t-50.5 40t-76.5 15q-99 0 -139.5 -81t-42.5 -240z" />
<glyph unicode="&#xe7;" d="M184 537q0 262 133.5 415.5t372.5 153.5q178 0 300.5 -86.5t150.5 -265.5h-191q-13 83 -83.5 145t-186.5 62q-153 0 -228 -110t-75 -306q0 -101 15.5 -176.5t50.5 -132.5t94.5 -86t142.5 -29q67 0 121 23t85.5 59.5t49.5 73.5t25 75h186q-24 -176 -152 -277.5 t-315 -101.5h-6l-27 -57h66q92 0 141 -43.5t49 -128.5q0 -82 -60 -135t-167 -53q-88 0 -143 36.5t-68 108.5h158q15 -35 63 -35q74 0 74 72q0 33 -18.5 52.5t-53.5 19.5q-36 0 -63 -31h-146l92 203q-191 32 -288 173.5t-99 381.5z" />
<glyph unicode="&#xe8;" d="M170 535q0 162 57 289.5t172.5 204.5t272.5 77q98 0 177.5 -28.5t133 -77t90 -115.5t52.5 -142t16 -159v-95h-785q8 -174 89.5 -273t238.5 -99q68 0 118.5 16t78.5 44.5t42 52t23 53.5h176q-31 -143 -148.5 -226.5t-295.5 -83.5q-126 0 -224 42.5t-159.5 118.5t-93 177.5 t-31.5 223.5zM360 637h592v12q-2 70 -18.5 125.5t-49 99.5t-87 67.5t-127.5 23.5q-135 0 -213.5 -87.5t-96.5 -240.5zM362 1614h277l123 -367h-158z" />
<glyph unicode="&#xe9;" d="M170 535q0 162 57 289.5t172.5 204.5t272.5 77q98 0 177.5 -28.5t133 -77t90 -115.5t52.5 -142t16 -159v-95h-785q8 -174 89.5 -273t238.5 -99q68 0 118.5 16t78.5 44.5t42 52t23 53.5h176q-31 -143 -148.5 -226.5t-295.5 -83.5q-126 0 -224 42.5t-159.5 118.5t-93 177.5 t-31.5 223.5zM360 637h592v12q-2 70 -18.5 125.5t-49 99.5t-87 67.5t-127.5 23.5q-135 0 -213.5 -87.5t-96.5 -240.5zM580 1247l122 367h277l-242 -367h-157z" />
<glyph unicode="&#xea;" d="M170 535q0 162 57 289.5t172.5 204.5t272.5 77q98 0 177.5 -28.5t133 -77t90 -115.5t52.5 -142t16 -159v-95h-785q8 -174 89.5 -273t238.5 -99q68 0 118.5 16t78.5 44.5t42 52t23 53.5h176q-31 -143 -148.5 -226.5t-295.5 -83.5q-126 0 -224 42.5t-159.5 118.5t-93 177.5 t-31.5 223.5zM360 637h592v12q-2 70 -18.5 125.5t-49 99.5t-87 67.5t-127.5 23.5q-135 0 -213.5 -87.5t-96.5 -240.5zM371 1247l209 367h213l208 -367h-172l-151 213h-2l-152 -213h-153z" />
<glyph unicode="&#xeb;" d="M170 535q0 162 57 289.5t172.5 204.5t272.5 77q98 0 177.5 -28.5t133 -77t90 -115.5t52.5 -142t16 -159v-95h-785q8 -174 89.5 -273t238.5 -99q68 0 118.5 16t78.5 44.5t42 52t23 53.5h176q-31 -143 -148.5 -226.5t-295.5 -83.5q-126 0 -224 42.5t-159.5 118.5t-93 177.5 t-31.5 223.5zM326 1282v264h266v-264h-266zM360 637h592v12q-2 70 -18.5 125.5t-49 99.5t-87 67.5t-127.5 23.5q-135 0 -213.5 -87.5t-96.5 -240.5zM768 1282v264h264v-264h-264z" />
<glyph unicode="&#xec;" d="M188 0v154h398v778h-338v147h514v-925h403v-154h-977zM342 1614h276l123 -367h-157z" />
<glyph unicode="&#xed;" d="M188 0v154h398v778h-338v147h514v-925h403v-154h-977zM588 1247l123 367h276l-242 -367h-157z" />
<glyph unicode="&#xee;" d="M188 0v154h398v778h-338v147h514v-925h403v-154h-977zM336 1247l209 367h213l209 -367h-172l-152 213h-2l-152 -213h-153z" />
<glyph unicode="&#xef;" d="M188 0v154h398v778h-338v147h514v-925h403v-154h-977zM293 1282v264h266v-264h-266zM735 1282v264h264v-264h-264z" />
<glyph unicode="&#xf0;" d="M152 541q0 250 133.5 406.5t343.5 156.5q154 0 250 -96h10q-71 147 -227 297l-316 -117l-43 123l250 92q-160 122 -217 160l158 59q126 -72 225 -158l260 97l45 -121l-201 -74q165 -171 250.5 -373.5t85.5 -421.5q0 -292 -130.5 -445t-375.5 -153q-241 0 -371 154 t-130 414zM344 541q0 -424 315 -424q156 0 233 110.5t77 313.5q0 220 -71.5 322t-235.5 102q-158 0 -238 -111t-80 -313z" />
<glyph unicode="&#xf1;" d="M225 0v1079h174v-182h4q39 87 133.5 148t215.5 61q344 0 344 -354v-752h-187v666q0 59 -1 84t-9.5 66t-26.5 65q-54 71 -170 71q-145 0 -217.5 -83t-72.5 -222v-647h-187zM299 1268q5 133 63.5 210.5t161.5 77.5q43 0 86.5 -18t73 -39t63.5 -39t60 -18q40 0 60 30t26 95 h149q-5 -131 -64.5 -210t-162.5 -79q-53 0 -106.5 29t-97 57.5t-72.5 28.5q-77 0 -88 -125h-152z" />
<glyph unicode="&#xf2;" d="M152 541q0 270 130 417.5t373 147.5q246 0 375 -147t129 -418t-130.5 -419.5t-373.5 -148.5q-245 0 -374 148.5t-129 419.5zM336 1614h276l123 -367h-157zM342 541q0 -424 313 -424q314 0 314 424q0 203 -78 312.5t-236 109.5t-235.5 -109.5t-77.5 -312.5z" />
<glyph unicode="&#xf3;" d="M152 541q0 270 130 417.5t373 147.5q246 0 375 -147t129 -418t-130.5 -419.5t-373.5 -148.5q-245 0 -374 148.5t-129 419.5zM342 541q0 -424 313 -424q314 0 314 424q0 203 -78 312.5t-236 109.5t-235.5 -109.5t-77.5 -312.5zM559 1247l123 367h276l-241 -367h-158z" />
<glyph unicode="&#xf4;" d="M152 541q0 270 130 417.5t373 147.5q246 0 375 -147t129 -418t-130.5 -419.5t-373.5 -148.5q-245 0 -374 148.5t-129 419.5zM342 541q0 -424 313 -424q314 0 314 424q0 203 -78 312.5t-236 109.5t-235.5 -109.5t-77.5 -312.5zM348 1247l209 367h213l209 -367h-172 l-152 213h-2l-151 -213h-154z" />
<glyph unicode="&#xf5;" d="M152 541q0 270 130 417.5t373 147.5q246 0 375 -147t129 -418t-130.5 -419.5t-373.5 -148.5q-245 0 -374 148.5t-129 419.5zM301 1268q5 133 63.5 210.5t161.5 77.5q43 0 86.5 -18t73 -39t63.5 -39t60 -18q40 0 60 30t26 95h149q-5 -131 -64.5 -210t-162.5 -79 q-53 0 -106.5 29t-97 57.5t-72.5 28.5q-77 0 -88 -125h-152zM342 541q0 -424 313 -424q314 0 314 424q0 203 -78 312.5t-236 109.5t-235.5 -109.5t-77.5 -312.5z" />
<glyph unicode="&#xf6;" d="M152 541q0 270 130 417.5t373 147.5q246 0 375 -147t129 -418t-130.5 -419.5t-373.5 -148.5q-245 0 -374 148.5t-129 419.5zM303 1282v264h266v-264h-266zM342 541q0 -424 313 -424q314 0 314 424q0 203 -78 312.5t-236 109.5t-235.5 -109.5t-77.5 -312.5zM745 1282v264 h265v-264h-265z" />
<glyph unicode="&#xf7;" d="M184 653v158h942v-158h-942zM518 207v274h275v-274h-275zM518 979v274h275v-274h-275z" />
<glyph unicode="&#xf8;" d="M94 -55l166 205q-110 146 -110 391q0 255 136.5 410t368.5 155q180 0 306 -90l88 110h161l-161 -198q108 -150 108 -387q0 -256 -136 -412t-370 -156q-177 0 -303 90l-96 -118h-158zM342 541q0 -163 33 -250l489 608q-72 66 -211 66q-155 0 -233 -111t-78 -313zM444 182 q71 -65 213 -65q156 0 232 110t76 314q0 156 -31 245z" />
<glyph unicode="&#xf9;" d="M221 328v751h182v-663q0 -54 1.5 -84t10.5 -70.5t27 -64.5q54 -72 166 -72q295 0 295 371v583h184v-1079h-176v184h-4q-40 -90 -129.5 -150.5t-210.5 -60.5q-163 0 -254.5 86t-91.5 269zM346 1614h277l122 -367h-157z" />
<glyph unicode="&#xfa;" d="M221 328v751h182v-663q0 -54 1.5 -84t10.5 -70.5t27 -64.5q54 -72 166 -72q295 0 295 371v583h184v-1079h-176v184h-4q-40 -90 -129.5 -150.5t-210.5 -60.5q-163 0 -254.5 86t-91.5 269zM573 1247l123 367h277l-242 -367h-158z" />
<glyph unicode="&#xfb;" d="M221 328v751h182v-663q0 -54 1.5 -84t10.5 -70.5t27 -64.5q54 -72 166 -72q295 0 295 371v583h184v-1079h-176v184h-4q-40 -90 -129.5 -150.5t-210.5 -60.5q-163 0 -254.5 86t-91.5 269zM352 1247l209 367h213l209 -367h-172l-152 213h-2l-151 -213h-154z" />
<glyph unicode="&#xfc;" d="M221 328v751h182v-663q0 -54 1.5 -84t10.5 -70.5t27 -64.5q54 -72 166 -72q295 0 295 371v583h184v-1079h-176v184h-4q-40 -90 -129.5 -150.5t-210.5 -60.5q-163 0 -254.5 86t-91.5 269zM307 1282v264h266v-264h-266zM750 1282v264h264v-264h-264z" />
<glyph unicode="&#xfd;" d="M152 1079h196l270 -696q7 -19 22.5 -62.5t21.5 -60.5q5 -13 14 -45h8q10 35 14 47q25 76 45 125l254 692h187l-445 -1147q-74 -191 -161 -265.5t-236 -74.5q-90 0 -170 23v154q90 -21 160 -21q92 0 137.5 39t89.5 156l23 57zM594 1247l123 367h276l-241 -367h-158z" />
<glyph unicode="&#xfe;" d="M195 -385v1999h182v-713h4q46 91 140.5 148t213.5 57q75 0 140 -17.5t124 -58.5t101.5 -103.5t67 -157.5t24.5 -214q0 -143 -37 -256t-102 -183t-148.5 -106.5t-181.5 -36.5q-117 0 -214 55t-126 130h-6v-543h-182zM371 500q0 -167 85.5 -274t241.5 -107q308 0 308 436 q0 403 -310 403q-147 0 -236 -101t-89 -243v-114z" />
<glyph unicode="&#xff;" d="M152 1079h196l270 -696q7 -19 22.5 -62.5t21.5 -60.5q5 -13 14 -45h8q10 35 14 47q25 76 45 125l254 692h187l-445 -1147q-74 -191 -161 -265.5t-236 -74.5q-90 0 -170 23v154q90 -21 160 -21q92 0 137.5 39t89.5 156l23 57zM330 1282v264h266v-264h-266zM772 1282v264 h264v-264h-264z" />
<glyph unicode="&#x152;" d="M39 780q0 175 31 311t84.5 225t132 146t166.5 81t194 24h639v-166h-455v-529h390v-161h-390v-545h465v-166h-649q-608 0 -608 780zM236 778q0 -223 46 -360t135 -197.5t230 -60.5v1247q-207 0 -309 -150.5t-102 -478.5z" />
<glyph unicode="&#x153;" d="M41 541q0 291 88.5 428t263.5 137q199 0 266 -170h7q36 80 105.5 125t166.5 45q87 0 150.5 -33.5t101 -95.5t55 -142t17.5 -182v-151l-531 -2q0 -91 8.5 -156.5t29 -117t59 -77.5t94.5 -26q44 0 76 15t48.5 41.5t24 50t12.5 53.5h166q-17 -148 -99.5 -227t-221.5 -79 q-103 0 -173.5 43t-113.5 140h-12q-25 -83 -88.5 -135t-161.5 -52q-170 0 -254 136.5t-84 431.5zM221 541q0 -229 41 -326.5t139 -97.5q94 0 128 98.5t34 325.5q0 226 -34 325t-128 99t-137 -99t-43 -325zM729 637h356v14q0 61 -3.5 103.5t-14 83.5t-29.5 65.5t-50.5 39.5 t-76.5 15q-99 0 -138 -78.5t-44 -242.5z" />
<glyph unicode="&#x178;" d="M76 1567h211l375 -723h4l376 723h193l-485 -893v-674h-189v668zM311 1694v264h267v-264h-267zM754 1694v264h264v-264h-264z" />
<glyph unicode="&#x2c6;" d="M340 1247l209 367h213l209 -367h-172l-152 213h-2l-151 -213h-154z" />
<glyph unicode="&#x2dc;" d="M287 1268q5 133 63.5 210.5t161.5 77.5q43 0 86.5 -18t73 -39t63.5 -39t60 -18q40 0 60 30t26 95h149q-5 -131 -64.5 -210t-162.5 -79q-42 0 -85 18t-72.5 39.5t-63 39.5t-56.5 18q-77 0 -88 -125h-151z" />
<glyph unicode="&#x2000;" horiz-adv-x="1077" />
<glyph unicode="&#x2001;" horiz-adv-x="2154" />
<glyph unicode="&#x2002;" horiz-adv-x="1077" />
<glyph unicode="&#x2003;" horiz-adv-x="2154" />
<glyph unicode="&#x2004;" horiz-adv-x="718" />
<glyph unicode="&#x2005;" horiz-adv-x="538" />
<glyph unicode="&#x2006;" horiz-adv-x="359" />
<glyph unicode="&#x2007;" horiz-adv-x="359" />
<glyph unicode="&#x2008;" horiz-adv-x="269" />
<glyph unicode="&#x2009;" horiz-adv-x="430" />
<glyph unicode="&#x200a;" horiz-adv-x="119" />
<glyph unicode="&#x2010;" d="M350 580v182h611v-182h-611z" />
<glyph unicode="&#x2011;" d="M350 580v182h611v-182h-611z" />
<glyph unicode="&#x2012;" d="M350 580v182h611v-182h-611z" />
<glyph unicode="&#x2013;" d="M287 592v158h737v-158h-737z" />
<glyph unicode="&#x2014;" d="M20 592v158h1270v-158h-1270z" />
<glyph unicode="&#x2018;" d="M442 1032l244 535h162l-111 -535h-295z" />
<glyph unicode="&#x2019;" d="M463 1032l110 535h295l-243 -535h-162z" />
<glyph unicode="&#x201a;" d="M463 -260l110 534h295l-243 -534h-162z" />
<glyph unicode="&#x201c;" d="M229 1032l244 535h162l-111 -535h-295zM637 1032l244 535h161l-110 -535h-295z" />
<glyph unicode="&#x201d;" d="M229 1032l111 535h295l-244 -535h-162zM637 1032l111 535h294l-243 -535h-162z" />
<glyph unicode="&#x201e;" d="M240 -260l110 534h295l-244 -534h-161zM647 -260l111 534h295l-244 -534h-162z" />
<glyph unicode="&#x2022;" d="M414 631q0 105 71 175.5t170 70.5q108 0 175 -68.5t67 -177.5q0 -110 -70 -178t-174 -68q-105 0 -172 67.5t-67 178.5z" />
<glyph unicode="&#x2026;" d="M78 0v274h274v-274h-274zM518 0v274h275v-274h-275zM958 0v274h275v-274h-275z" />
<glyph unicode="&#x202f;" horiz-adv-x="430" />
<glyph unicode="&#x2039;" d="M328 532l397 418h223l-381 -413l381 -420h-223z" />
<glyph unicode="&#x203a;" d="M362 117l381 413l-381 420h224l397 -415l-397 -418h-224z" />
<glyph unicode="&#x205f;" horiz-adv-x="538" />
<glyph unicode="&#x20ac;" d="M35 846v145h205q75 549 510 549q84 0 160.5 -29.5t139 -85t103.5 -144.5t51 -200h-180q-9 82 -38.5 149t-90.5 113t-145 46q-270 0 -324 -398h451v-145h-463q-2 -31 -2 -92q0 -64 2 -95h467v-145h-455q58 -393 326 -393q129 0 200.5 82t89.5 221h177 q-25 -211 -147.5 -334t-321.5 -123q-438 0 -510 547h-201v145h188q-2 31 -2 95q0 61 2 92h-192z" />
<glyph unicode="&#x2122;" d="M47 1466v101h442v-101h-163v-567h-115v567h-164zM582 899v668h170l120 -416q4 -14 9 -40.5t8 -35.5q1 -5 2 -15.5t2 -15.5h6q0 11 4 31q3 10 9.5 38t9.5 38l122 416h168v-668h-114v522h-8q-5 -25 -9 -39q-3 -13 -12 -46.5t-14 -51.5l-115 -385h-96l-117 383q-3 8 -25 100 q-4 31 -6 39h-8v-522h-106z" />
<glyph unicode="&#x25fc;" horiz-adv-x="1075" d="M0 0v1075h1075v-1075h-1075z" />
<glyph unicode="&#xfb01;" horiz-adv-x="2621" d="M147 926v153h392v219q0 163 103 242.5t271 79.5q115 0 230 -33v-155q-111 34 -223 34q-100 0 -149.5 -43.5t-49.5 -140.5v-203h422v-153h-422v-926h-182v926h-392zM1501 0v154h397v778h-337v147h514v-925h403v-154h-977zM1835 1282v274h274v-274h-274z" />
<glyph unicode="&#xfb02;" horiz-adv-x="2621" d="M147 926v153h392v219q0 163 103 242.5t271 79.5q115 0 230 -33v-155q-111 34 -223 34q-100 0 -149.5 -43.5t-49.5 -140.5v-203h422v-153h-422v-926h-182v926h-392zM1499 0v154h393v1312h-354v148h537v-1460h401v-154h-977z" />
</font>
</defs>
</svg>
