<svg id="Layer_1" data-name="Layer 1" xmlns="http://www.w3.org/2000/svg" viewBox="0 0 166.93 166.93"><defs><style>.cls-1{fill:#231f20}</style></defs><title>stamp</title><path class="cls-1" d="M306 479.46A83.46 83.46 0 1 1 389.46 396 83.56 83.56 0 0 1 306 479.46zm0-165.93A82.46 82.46 0 1 0 388.46 396 82.56 82.56 0 0 0 306 313.54z" transform="translate(-222.54 -312.54)"/><path class="cls-1" d="M250.5 358.63l-6.8-5 .48-.66 8 1v-.06l-5.65-4.17.45-.6 6.8 5-.47.64-8-1v.06l5.65 4.17zm4.93-6.4l-.51-.47 1.15-1.25-5.19-4.79-1.15 1.28-.51-.47 2.84-3.08.51.47-1.15 1.25 5.19 4.79 1.15-1.25.51.47zm6.87-10.01l.61-.53a2.62 2.62 0 0 1-.45 3.81c-1.47 1.28-3.21 1-4.75-.78l-.92-1.06c-1.54-1.77-1.58-3.53-.11-4.81a2.63 2.63 0 0 1 4 .22l-.61.53a2 2 0 0 0-2.86-.18c-1.12 1-1 2.26.23 3.72l.92 1.06c1.27 1.46 2.53 1.72 3.65.75a1.83 1.83 0 0 0 .29-2.73zm7.36-2.36l-2.25-3.26-3.18 2.2 2.25 3.26-.66.46-4.8-7 .66-.46 2.14 3.1L267 336l-2.14-3.1.66-.46 4.8 7zm7.22-4.12l-4.33 2.33-4-7.44.7-.38 3.66 6.8 3.63-2zm4.71-4.74l-2.85 1.14.2 2.71-.76.31-.56-8.88.73-.29 5.73 6.8-.76.31zm-.46-.56l-2.75-3.34.32 4.31zm4.53-.44a1.89 1.89 0 0 0 2.46 1 1.74 1.74 0 0 0 1.48-2.13c-.21-.78-.86-1.12-2.11-1.1h-.68c-1.64 0-2.5-.49-2.83-1.66-.37-1.33.42-2.47 2-2.9a2.42 2.42 0 0 1 3.17 1.45l-.77.21a1.69 1.69 0 0 0-2.2-1c-1.13.31-1.65 1-1.39 2 .21.76.82 1.08 2 1.06h.71c1.7 0 2.54.47 2.88 1.69.38 1.39-.44 2.6-2.08 3.05a2.59 2.59 0 0 1-3.42-1.52zm16.89-6.13l-1.13 5.43h-.79l-1.9-8.38h.78l.74 3.58.74 3.58h.01l1.08-5.34h.8l1.58 5.21h.05l.41-3.63.41-3.63h.78l-1.11 8.43h-.79l-1.63-5.3h-.06zm17.06 4.01l-3-.53-1.26 2.41-.81-.14 4.2-7.84.77.13 1.29 8.8-.81-.14zm-.09-.72l-.58-4.29-2 3.83zm2.72 3.92l2.38-8.1.78.23 1.74 7.82h.07l2-6.73.72.21-2.38 8.1-.76-.22-1.79-7.81h-.07l-2 6.73zm12.51-4.7q3.32 1.4 1.68 5.3t-5 2.5l-2.07-.87 3.28-7.79zm-4.33 6.57l1.29.54c1.77.74 3 .06 4-2.13s.52-3.58-1.25-4.33l-1.29-.54zm10.39 5.91l-4.24-2.37 4.12-7.38 4.24 2.37-.35.63-3.54-2-1.48 2.65 3.35 1.87-.35.62-3.35-1.87-1.58 2.83 3.54 2zm4.61-1.14l-2 2.83-.64-.46 4.91-6.87 2.24 1.6a2.38 2.38 0 0 1 .7 3.54 2.31 2.31 0 0 1-2.65.95l-.72 4-.73-.52.72-3.76zm.4-.56l1.51 1.08a1.78 1.78 0 1 0 2.12-2.86l-1.56-1.11zm4.81 6.12a1.89 1.89 0 0 0 .46 2.63 1.74 1.74 0 0 0 2.6.1c.54-.6.48-1.33-.21-2.37l-.38-.57c-.9-1.37-.94-2.38-.13-3.28s2.31-1 3.53.11a2.42 2.42 0 0 1 .49 3.46l-.6-.54a1.69 1.69 0 0 0-.38-2.38c-.87-.78-1.78-.82-2.42-.1s-.47 1.28.2 2.29l.39.59c.94 1.42 1 2.4.13 3.34s-2.43 1-3.7-.11a2.59 2.59 0 0 1-.57-3.71zm6.97 10.13l-3.24-3.62 6.3-5.64 3.24 3.62-.54.48-2.71-3-2.26 2 2.56 2.86-.53.48-2.56-2.86-2.42 2.16 2.71 3zm1.32 1.64l6.89-4.91.47.66-3.47 7.2v.06l5.72-4.08.44.61-6.89 4.91-.46-.65 3.46-7.26v-.06l-5.73 4.08zM261.5 456.18l4.81-7 2.14 1.48c1.26.87 1.58 2 .83 3.11a1.82 1.82 0 0 1-2.24.72v.06a2 2 0 0 1 .34 2.78c-.84 1.22-2.2 1.32-3.7.28zm2.5.82c1.16.8 2.12.76 2.74-.14s.31-1.79-.88-2.62l-1.36-.94-1.89 2.74zm.89-4.27l1.2.83c1.07.74 1.94.7 2.5-.11a1.52 1.52 0 0 0-.62-2.26l-1.35-.94zm5.76 5.27l-1.65 3-.69-.37 4-7.44 2.42 1.31a2.38 2.38 0 0 1 1.14 3.43 2.32 2.32 0 0 1-2.51 1.28l-.22 4.05-.79-.43.24-3.83zm.33-.61l1.63.88a1.79 1.79 0 1 0 1.74-3.11l-1.69-.91zm6.96 8.15c-1.74-.7-2.3-2.41-1.43-4.57l.52-1.3c.87-2.16 2.46-3 4.2-2.29s2.3 2.41 1.43 4.57l-.52 1.3c-.87 2.16-2.46 3-4.2 2.29zm3.46-2.54l.52-1.3c.7-1.74.31-3.06-1-3.58s-2.48.17-3.18 1.9l-.52 1.3c-.7 1.74-.31 3.06 1 3.58s2.48-.21 3.18-1.9zm4.34 5.2c-1.81-.51-2.56-2.14-1.93-4.39l.38-1.35c.63-2.24 2.12-3.25 3.93-2.74s2.56 2.14 1.93 4.39l-.38 1.35c-.67 2.24-2.12 3.25-3.93 2.74zm3.16-3l.38-1.35c.51-1.81 0-3.08-1.35-3.46s-2.45.44-3 2.24l-.34 1.37c-.51 1.81 0 3.08 1.36 3.46s2.44-.46 2.95-2.22zm2.61 4.22l1.37-8.34.79.13-.67 4.31 4.25-3.73 1 .16-3.77 3.17 2.74 5.23-1-.17-2.34-4.54-1.09.92-.49 3zm13.28 1.41l-4.91-.26.45-8.46h.8l-.41 7.73 4.12.22zm4.96-.13l-.2-3.65-3.12-4.63.92-.05 2.52 3.85h.07l2.08-4.1.92-.05-2.6 4.93.2 3.65zm5.85-.47l-1.39-8.33.8-.13 5 6.28h.08l-1.15-6.92.74-.12 1.39 8.33-.79.13-5-6.28h-.08l1.15 6.92zm10.04 0l-.38-4.13 1.11-.31.1 4.21zm13.48-7.09l-4-7.44.72-.39 6.75 4.34h.07l-3.34-6.18.66-.36 4 7.44-.7.38-6.77-4.33h-.07l3.34 6.18zm9.09-5.37l-2.08-3-5.13-2.33.76-.52 4.16 2h.06l-.37-4.59.76-.52.38 5.58 2.08 3zm-110.6-67.52a2.11 2.11 0 0 1 2.29 2.14c0 .79-.33 1.39-1.54 2.78l-1.94 2.24v.09H240v.67h-4.69v-.47l2.66-3.1c1-1.12 1.17-1.54 1.17-2.19a1.44 1.44 0 0 0-1.57-1.5 1.5 1.5 0 0 0-1.56 1.63h-.73a2.22 2.22 0 0 1 2.33-2.29zm9.39 4.04c0 2.62-.89 4.06-2.5 4.06s-2.5-1.43-2.5-4.06.89-4.06 2.5-4.06 2.5 1.44 2.5 4.06zm-.93-1.85a1.68 1.68 0 0 0-1.57-1.56c-1.16 0-1.77 1.17-1.77 3.41a9.36 9.36 0 0 0 .06 1.15zm-3.14 3.72a1.67 1.67 0 0 0 1.57 1.54c1.16 0 1.77-1.17 1.77-3.41a9.58 9.58 0 0 0-.06-1.17zm130.62 1.37v.63h-5.34v-.63h2.36v-6.24h-.08l-2.3 1.48V392l2.38-1.54h.73v7.12h2.25zm3.9.79a2.46 2.46 0 0 1-2.51-2.55 4.73 4.73 0 0 1 1-2.77l1.77-2.59h.85l-2.17 3.05a2 2 0 0 0-.22.33l.07.05a1.74 1.74 0 0 1 1.3-.57 2.36 2.36 0 0 1 2.41 2.44 2.47 2.47 0 0 1-2.5 2.61zm1.84-2.56a1.82 1.82 0 1 0-1.82 1.92 1.84 1.84 0 0 0 1.82-1.91zM350.7 416.5h-1.4v-36.41a3.89 3.89 0 0 0-3.89-3.89h-2.57a3.91 3.91 0 0 0-3.33 1.88l-19.39 32.24a5.29 5.29 0 0 1-9.06 0l-1.74-2.89a3.86 3.86 0 0 0-3.33-1.88 3.86 3.86 0 0 0-3.33 1.88l-1.73 2.89a5.25 5.25 0 0 1-4.53 2.56 5.24 5.24 0 0 1-4.53-2.56l-19.39-32.24a3.91 3.91 0 0 0-3.33-1.88h-2.57a3.89 3.89 0 0 0-3.89 3.89v36.41h-1.4v-36.41a5.29 5.29 0 0 1 5.29-5.29h2.57a5.32 5.32 0 0 1 4.53 2.56l19.39 32.24a3.86 3.86 0 0 0 3.33 1.88 3.86 3.86 0 0 0 3.33-1.88l1.73-2.89a5.25 5.25 0 0 1 4.53-2.56 5.24 5.24 0 0 1 4.53 2.56l1.74 2.89a3.89 3.89 0 0 0 6.66 0l19.39-32.24a5.31 5.31 0 0 1 4.53-2.56h2.57a5.29 5.29 0 0 1 5.29 5.29v36.41z" transform="translate(-222.54 -312.54)"/></svg>